<?xml version="1.0" encoding="utf-8" standalone="no"?>
<!DOCTYPE svg PUBLIC "-//W3C//DTD SVG 1.1//EN"
  "http://www.w3.org/Graphics/SVG/1.1/DTD/svg11.dtd">
<svg xmlns:xlink="http://www.w3.org/1999/xlink" width="998.788594pt" height="566.718281pt" viewBox="0 0 998.788594 566.718281" xmlns="http://www.w3.org/2000/svg" version="1.1">
 <metadata>
  <rdf:RDF xmlns:dc="http://purl.org/dc/elements/1.1/" xmlns:cc="http://creativecommons.org/ns#" xmlns:rdf="http://www.w3.org/1999/02/22-rdf-syntax-ns#">
   <cc:Work>
    <dc:type rdf:resource="http://purl.org/dc/dcmitype/StillImage"/>
    <dc:date>2025-12-09T22:27:17.751675</dc:date>
    <dc:format>image/svg+xml</dc:format>
    <dc:creator>
     <cc:Agent>
      <dc:title>Matplotlib v3.10.3, https://matplotlib.org/</dc:title>
     </cc:Agent>
    </dc:creator>
   </cc:Work>
  </rdf:RDF>
 </metadata>
 <defs>
  <style type="text/css">*{stroke-linejoin: round; stroke-linecap: butt}</style>
 </defs>
 <g id="figure_1">
  <g id="patch_1">
   <path d="M 0 566.718281 
L 998.788594 566.718281 
L 998.788594 0 
L 0 0 
z
" style="fill: #ffffff"/>
  </g>
  <g id="axes_1">
   <g id="patch_2">
    <path d="M 47.508594 527.500937 
L 991.588594 527.500937 
L 991.588594 37.220937 
L 47.508594 37.220937 
z
" style="fill: #ffffff"/>
   </g>
   <g id="matplotlib.axis_1">
    <g id="xtick_1">
     <g id="line2d_1">
      <path d="M 90.421321 527.500937 
L 90.421321 37.220937 
" clip-path="url(#p8ef287f89b)" style="fill: none; stroke: #cccccc; stroke-opacity: 0.3; stroke-width: 0.8; stroke-linecap: round"/>
     </g>
     <g id="text_1">
      <!-- 1980 -->
      <g style="fill: #262626" transform="translate(78.187259 542.374531) scale(0.11 -0.11)">
       <defs>
        <path id="ArialMT-31" d="M 2384 0 
L 1822 0 
L 1822 3584 
Q 1619 3391 1289 3197 
Q 959 3003 697 2906 
L 697 3450 
Q 1169 3672 1522 3987 
Q 1875 4303 2022 4600 
L 2384 4600 
L 2384 0 
z
" transform="scale(0.015625)"/>
        <path id="ArialMT-39" d="M 350 1059 
L 891 1109 
Q 959 728 1153 556 
Q 1347 384 1650 384 
Q 1909 384 2104 503 
Q 2300 622 2425 820 
Q 2550 1019 2634 1356 
Q 2719 1694 2719 2044 
Q 2719 2081 2716 2156 
Q 2547 1888 2255 1720 
Q 1963 1553 1622 1553 
Q 1053 1553 659 1965 
Q 266 2378 266 3053 
Q 266 3750 677 4175 
Q 1088 4600 1706 4600 
Q 2153 4600 2523 4359 
Q 2894 4119 3086 3673 
Q 3278 3228 3278 2384 
Q 3278 1506 3087 986 
Q 2897 466 2520 194 
Q 2144 -78 1638 -78 
Q 1100 -78 759 220 
Q 419 519 350 1059 
z
M 2653 3081 
Q 2653 3566 2395 3850 
Q 2138 4134 1775 4134 
Q 1400 4134 1122 3828 
Q 844 3522 844 3034 
Q 844 2597 1108 2323 
Q 1372 2050 1759 2050 
Q 2150 2050 2401 2323 
Q 2653 2597 2653 3081 
z
" transform="scale(0.015625)"/>
        <path id="ArialMT-38" d="M 1131 2484 
Q 781 2613 612 2850 
Q 444 3088 444 3419 
Q 444 3919 803 4259 
Q 1163 4600 1759 4600 
Q 2359 4600 2725 4251 
Q 3091 3903 3091 3403 
Q 3091 3084 2923 2848 
Q 2756 2613 2416 2484 
Q 2838 2347 3058 2040 
Q 3278 1734 3278 1309 
Q 3278 722 2862 322 
Q 2447 -78 1769 -78 
Q 1091 -78 675 323 
Q 259 725 259 1325 
Q 259 1772 486 2073 
Q 713 2375 1131 2484 
z
M 1019 3438 
Q 1019 3113 1228 2906 
Q 1438 2700 1772 2700 
Q 2097 2700 2305 2904 
Q 2513 3109 2513 3406 
Q 2513 3716 2298 3927 
Q 2084 4138 1766 4138 
Q 1444 4138 1231 3931 
Q 1019 3725 1019 3438 
z
M 838 1322 
Q 838 1081 952 856 
Q 1066 631 1291 507 
Q 1516 384 1775 384 
Q 2178 384 2440 643 
Q 2703 903 2703 1303 
Q 2703 1709 2433 1975 
Q 2163 2241 1756 2241 
Q 1359 2241 1098 1978 
Q 838 1716 838 1322 
z
" transform="scale(0.015625)"/>
        <path id="ArialMT-30" d="M 266 2259 
Q 266 3072 433 3567 
Q 600 4063 929 4331 
Q 1259 4600 1759 4600 
Q 2128 4600 2406 4451 
Q 2684 4303 2865 4023 
Q 3047 3744 3150 3342 
Q 3253 2941 3253 2259 
Q 3253 1453 3087 958 
Q 2922 463 2592 192 
Q 2263 -78 1759 -78 
Q 1097 -78 719 397 
Q 266 969 266 2259 
z
M 844 2259 
Q 844 1131 1108 757 
Q 1372 384 1759 384 
Q 2147 384 2411 759 
Q 2675 1134 2675 2259 
Q 2675 3391 2411 3762 
Q 2147 4134 1753 4134 
Q 1366 4134 1134 3806 
Q 844 3388 844 2259 
z
" transform="scale(0.015625)"/>
       </defs>
       <use xlink:href="#ArialMT-31"/>
       <use xlink:href="#ArialMT-39" transform="translate(55.615234 0)"/>
       <use xlink:href="#ArialMT-38" transform="translate(111.230469 0)"/>
       <use xlink:href="#ArialMT-30" transform="translate(166.845703 0)"/>
      </g>
     </g>
    </g>
    <g id="xtick_2">
     <g id="line2d_2">
      <path d="M 285.479172 527.500937 
L 285.479172 37.220937 
" clip-path="url(#p8ef287f89b)" style="fill: none; stroke: #cccccc; stroke-opacity: 0.3; stroke-width: 0.8; stroke-linecap: round"/>
     </g>
     <g id="text_2">
      <!-- 1990 -->
      <g style="fill: #262626" transform="translate(273.24511 542.374531) scale(0.11 -0.11)">
       <use xlink:href="#ArialMT-31"/>
       <use xlink:href="#ArialMT-39" transform="translate(55.615234 0)"/>
       <use xlink:href="#ArialMT-39" transform="translate(111.230469 0)"/>
       <use xlink:href="#ArialMT-30" transform="translate(166.845703 0)"/>
      </g>
     </g>
    </g>
    <g id="xtick_3">
     <g id="line2d_3">
      <path d="M 480.537024 527.500937 
L 480.537024 37.220937 
" clip-path="url(#p8ef287f89b)" style="fill: none; stroke: #cccccc; stroke-opacity: 0.3; stroke-width: 0.8; stroke-linecap: round"/>
     </g>
     <g id="text_3">
      <!-- 2000 -->
      <g style="fill: #262626" transform="translate(468.302961 542.374531) scale(0.11 -0.11)">
       <defs>
        <path id="ArialMT-32" d="M 3222 541 
L 3222 0 
L 194 0 
Q 188 203 259 391 
Q 375 700 629 1000 
Q 884 1300 1366 1694 
Q 2113 2306 2375 2664 
Q 2638 3022 2638 3341 
Q 2638 3675 2398 3904 
Q 2159 4134 1775 4134 
Q 1369 4134 1125 3890 
Q 881 3647 878 3216 
L 300 3275 
Q 359 3922 746 4261 
Q 1134 4600 1788 4600 
Q 2447 4600 2831 4234 
Q 3216 3869 3216 3328 
Q 3216 3053 3103 2787 
Q 2991 2522 2730 2228 
Q 2469 1934 1863 1422 
Q 1356 997 1212 845 
Q 1069 694 975 541 
L 3222 541 
z
" transform="scale(0.015625)"/>
       </defs>
       <use xlink:href="#ArialMT-32"/>
       <use xlink:href="#ArialMT-30" transform="translate(55.615234 0)"/>
       <use xlink:href="#ArialMT-30" transform="translate(111.230469 0)"/>
       <use xlink:href="#ArialMT-30" transform="translate(166.845703 0)"/>
      </g>
     </g>
    </g>
    <g id="xtick_4">
     <g id="line2d_4">
      <path d="M 675.594875 527.500937 
L 675.594875 37.220937 
" clip-path="url(#p8ef287f89b)" style="fill: none; stroke: #cccccc; stroke-opacity: 0.3; stroke-width: 0.8; stroke-linecap: round"/>
     </g>
     <g id="text_4">
      <!-- 2010 -->
      <g style="fill: #262626" transform="translate(663.360812 542.374531) scale(0.11 -0.11)">
       <use xlink:href="#ArialMT-32"/>
       <use xlink:href="#ArialMT-30" transform="translate(55.615234 0)"/>
       <use xlink:href="#ArialMT-31" transform="translate(111.230469 0)"/>
       <use xlink:href="#ArialMT-30" transform="translate(166.845703 0)"/>
      </g>
     </g>
    </g>
    <g id="xtick_5">
     <g id="line2d_5">
      <path d="M 870.652726 527.500937 
L 870.652726 37.220937 
" clip-path="url(#p8ef287f89b)" style="fill: none; stroke: #cccccc; stroke-opacity: 0.3; stroke-width: 0.8; stroke-linecap: round"/>
     </g>
     <g id="text_5">
      <!-- 2020 -->
      <g style="fill: #262626" transform="translate(858.418663 542.374531) scale(0.11 -0.11)">
       <use xlink:href="#ArialMT-32"/>
       <use xlink:href="#ArialMT-30" transform="translate(55.615234 0)"/>
       <use xlink:href="#ArialMT-32" transform="translate(111.230469 0)"/>
       <use xlink:href="#ArialMT-30" transform="translate(166.845703 0)"/>
      </g>
     </g>
    </g>
    <g id="text_6">
     <!-- Year -->
     <g style="fill: #262626" transform="translate(506.867969 557.150156) scale(0.12 -0.12)">
      <defs>
       <path id="Arial-BoldMT-59" d="M 1669 0 
L 1669 1928 
L -9 4581 
L 1075 4581 
L 2153 2769 
L 3209 4581 
L 4275 4581 
L 2591 1922 
L 2591 0 
L 1669 0 
z
" transform="scale(0.015625)"/>
       <path id="Arial-BoldMT-65" d="M 2381 1056 
L 3256 909 
Q 3088 428 2723 176 
Q 2359 -75 1813 -75 
Q 947 -75 531 491 
Q 203 944 203 1634 
Q 203 2459 634 2926 
Q 1066 3394 1725 3394 
Q 2466 3394 2894 2905 
Q 3322 2416 3303 1406 
L 1103 1406 
Q 1113 1016 1316 798 
Q 1519 581 1822 581 
Q 2028 581 2168 693 
Q 2309 806 2381 1056 
z
M 2431 1944 
Q 2422 2325 2234 2523 
Q 2047 2722 1778 2722 
Q 1491 2722 1303 2513 
Q 1116 2303 1119 1944 
L 2431 1944 
z
" transform="scale(0.015625)"/>
       <path id="Arial-BoldMT-61" d="M 1116 2306 
L 319 2450 
Q 453 2931 781 3162 
Q 1109 3394 1756 3394 
Q 2344 3394 2631 3255 
Q 2919 3116 3036 2902 
Q 3153 2688 3153 2116 
L 3144 1091 
Q 3144 653 3186 445 
Q 3228 238 3344 0 
L 2475 0 
Q 2441 88 2391 259 
Q 2369 338 2359 363 
Q 2134 144 1878 34 
Q 1622 -75 1331 -75 
Q 819 -75 523 203 
Q 228 481 228 906 
Q 228 1188 362 1408 
Q 497 1628 739 1745 
Q 981 1863 1438 1950 
Q 2053 2066 2291 2166 
L 2291 2253 
Q 2291 2506 2166 2614 
Q 2041 2722 1694 2722 
Q 1459 2722 1328 2630 
Q 1197 2538 1116 2306 
z
M 2291 1594 
Q 2122 1538 1756 1459 
Q 1391 1381 1278 1306 
Q 1106 1184 1106 997 
Q 1106 813 1243 678 
Q 1381 544 1594 544 
Q 1831 544 2047 700 
Q 2206 819 2256 991 
Q 2291 1103 2291 1419 
L 2291 1594 
z
" transform="scale(0.015625)"/>
       <path id="Arial-BoldMT-72" d="M 1300 0 
L 422 0 
L 422 3319 
L 1238 3319 
L 1238 2847 
Q 1447 3181 1614 3287 
Q 1781 3394 1994 3394 
Q 2294 3394 2572 3228 
L 2300 2463 
Q 2078 2606 1888 2606 
Q 1703 2606 1575 2504 
Q 1447 2403 1373 2137 
Q 1300 1872 1300 1025 
L 1300 0 
z
" transform="scale(0.015625)"/>
      </defs>
      <use xlink:href="#Arial-BoldMT-59"/>
      <use xlink:href="#Arial-BoldMT-65" transform="translate(61.199219 0)"/>
      <use xlink:href="#Arial-BoldMT-61" transform="translate(116.814453 0)"/>
      <use xlink:href="#Arial-BoldMT-72" transform="translate(172.429688 0)"/>
     </g>
    </g>
   </g>
   <g id="matplotlib.axis_2">
    <g id="ytick_1">
     <g id="line2d_6">
      <path d="M 47.508594 507.696343 
L 991.588594 507.696343 
" clip-path="url(#p8ef287f89b)" style="fill: none; stroke: #cccccc; stroke-opacity: 0.3; stroke-width: 0.8; stroke-linecap: round"/>
     </g>
     <g id="text_7">
      <!-- 40 -->
      <g style="fill: #262626" transform="translate(28.274531 511.63314) scale(0.11 -0.11)">
       <defs>
        <path id="ArialMT-34" d="M 2069 0 
L 2069 1097 
L 81 1097 
L 81 1613 
L 2172 4581 
L 2631 4581 
L 2631 1613 
L 3250 1613 
L 3250 1097 
L 2631 1097 
L 2631 0 
L 2069 0 
z
M 2069 1613 
L 2069 3678 
L 634 1613 
L 2069 1613 
z
" transform="scale(0.015625)"/>
       </defs>
       <use xlink:href="#ArialMT-34"/>
       <use xlink:href="#ArialMT-30" transform="translate(55.615234 0)"/>
      </g>
     </g>
    </g>
    <g id="ytick_2">
     <g id="line2d_7">
      <path d="M 47.508594 431.36207 
L 991.588594 431.36207 
" clip-path="url(#p8ef287f89b)" style="fill: none; stroke: #cccccc; stroke-opacity: 0.3; stroke-width: 0.8; stroke-linecap: round"/>
     </g>
     <g id="text_8">
      <!-- 50 -->
      <g style="fill: #262626" transform="translate(28.274531 435.298866) scale(0.11 -0.11)">
       <defs>
        <path id="ArialMT-35" d="M 266 1200 
L 856 1250 
Q 922 819 1161 601 
Q 1400 384 1738 384 
Q 2144 384 2425 690 
Q 2706 997 2706 1503 
Q 2706 1984 2436 2262 
Q 2166 2541 1728 2541 
Q 1456 2541 1237 2417 
Q 1019 2294 894 2097 
L 366 2166 
L 809 4519 
L 3088 4519 
L 3088 3981 
L 1259 3981 
L 1013 2750 
Q 1425 3038 1878 3038 
Q 2478 3038 2890 2622 
Q 3303 2206 3303 1553 
Q 3303 931 2941 478 
Q 2500 -78 1738 -78 
Q 1113 -78 717 272 
Q 322 622 266 1200 
z
" transform="scale(0.015625)"/>
       </defs>
       <use xlink:href="#ArialMT-35"/>
       <use xlink:href="#ArialMT-30" transform="translate(55.615234 0)"/>
      </g>
     </g>
    </g>
    <g id="ytick_3">
     <g id="line2d_8">
      <path d="M 47.508594 355.027796 
L 991.588594 355.027796 
" clip-path="url(#p8ef287f89b)" style="fill: none; stroke: #cccccc; stroke-opacity: 0.3; stroke-width: 0.8; stroke-linecap: round"/>
     </g>
     <g id="text_9">
      <!-- 60 -->
      <g style="fill: #262626" transform="translate(28.274531 358.964593) scale(0.11 -0.11)">
       <defs>
        <path id="ArialMT-36" d="M 3184 3459 
L 2625 3416 
Q 2550 3747 2413 3897 
Q 2184 4138 1850 4138 
Q 1581 4138 1378 3988 
Q 1113 3794 959 3422 
Q 806 3050 800 2363 
Q 1003 2672 1297 2822 
Q 1591 2972 1913 2972 
Q 2475 2972 2870 2558 
Q 3266 2144 3266 1488 
Q 3266 1056 3080 686 
Q 2894 316 2569 119 
Q 2244 -78 1831 -78 
Q 1128 -78 684 439 
Q 241 956 241 2144 
Q 241 3472 731 4075 
Q 1159 4600 1884 4600 
Q 2425 4600 2770 4297 
Q 3116 3994 3184 3459 
z
M 888 1484 
Q 888 1194 1011 928 
Q 1134 663 1356 523 
Q 1578 384 1822 384 
Q 2178 384 2434 671 
Q 2691 959 2691 1453 
Q 2691 1928 2437 2201 
Q 2184 2475 1800 2475 
Q 1419 2475 1153 2201 
Q 888 1928 888 1484 
z
" transform="scale(0.015625)"/>
       </defs>
       <use xlink:href="#ArialMT-36"/>
       <use xlink:href="#ArialMT-30" transform="translate(55.615234 0)"/>
      </g>
     </g>
    </g>
    <g id="ytick_4">
     <g id="line2d_9">
      <path d="M 47.508594 278.693523 
L 991.588594 278.693523 
" clip-path="url(#p8ef287f89b)" style="fill: none; stroke: #cccccc; stroke-opacity: 0.3; stroke-width: 0.8; stroke-linecap: round"/>
     </g>
     <g id="text_10">
      <!-- 70 -->
      <g style="fill: #262626" transform="translate(28.274531 282.630319) scale(0.11 -0.11)">
       <defs>
        <path id="ArialMT-37" d="M 303 3981 
L 303 4522 
L 3269 4522 
L 3269 4084 
Q 2831 3619 2401 2847 
Q 1972 2075 1738 1259 
Q 1569 684 1522 0 
L 944 0 
Q 953 541 1156 1306 
Q 1359 2072 1739 2783 
Q 2119 3494 2547 3981 
L 303 3981 
z
" transform="scale(0.015625)"/>
       </defs>
       <use xlink:href="#ArialMT-37"/>
       <use xlink:href="#ArialMT-30" transform="translate(55.615234 0)"/>
      </g>
     </g>
    </g>
    <g id="ytick_5">
     <g id="line2d_10">
      <path d="M 47.508594 202.359249 
L 991.588594 202.359249 
" clip-path="url(#p8ef287f89b)" style="fill: none; stroke: #cccccc; stroke-opacity: 0.3; stroke-width: 0.8; stroke-linecap: round"/>
     </g>
     <g id="text_11">
      <!-- 80 -->
      <g style="fill: #262626" transform="translate(28.274531 206.296046) scale(0.11 -0.11)">
       <use xlink:href="#ArialMT-38"/>
       <use xlink:href="#ArialMT-30" transform="translate(55.615234 0)"/>
      </g>
     </g>
    </g>
    <g id="ytick_6">
     <g id="line2d_11">
      <path d="M 47.508594 126.024976 
L 991.588594 126.024976 
" clip-path="url(#p8ef287f89b)" style="fill: none; stroke: #cccccc; stroke-opacity: 0.3; stroke-width: 0.8; stroke-linecap: round"/>
     </g>
     <g id="text_12">
      <!-- 90 -->
      <g style="fill: #262626" transform="translate(28.274531 129.961773) scale(0.11 -0.11)">
       <use xlink:href="#ArialMT-39"/>
       <use xlink:href="#ArialMT-30" transform="translate(55.615234 0)"/>
      </g>
     </g>
    </g>
    <g id="ytick_7">
     <g id="line2d_12">
      <path d="M 47.508594 49.690702 
L 991.588594 49.690702 
" clip-path="url(#p8ef287f89b)" style="fill: none; stroke: #cccccc; stroke-opacity: 0.3; stroke-width: 0.8; stroke-linecap: round"/>
     </g>
     <g id="text_13">
      <!-- 100 -->
      <g style="fill: #262626" transform="translate(22.1575 53.627499) scale(0.11 -0.11)">
       <use xlink:href="#ArialMT-31"/>
       <use xlink:href="#ArialMT-30" transform="translate(55.615234 0)"/>
       <use xlink:href="#ArialMT-30" transform="translate(111.230469 0)"/>
      </g>
     </g>
    </g>
    <g id="text_14">
     <!-- % -->
     <g style="fill: #262626" transform="translate(15.789375 287.69625) rotate(-90) scale(0.12 -0.12)">
      <defs>
       <path id="Arial-BoldMT-25" d="M 278 3450 
Q 278 4066 548 4362 
Q 819 4659 1281 4659 
Q 1759 4659 2029 4364 
Q 2300 4069 2300 3450 
Q 2300 2834 2029 2537 
Q 1759 2241 1297 2241 
Q 819 2241 548 2536 
Q 278 2831 278 3450 
z
M 963 3456 
Q 963 3009 1066 2856 
Q 1144 2744 1281 2744 
Q 1422 2744 1500 2856 
Q 1600 3009 1600 3456 
Q 1600 3903 1500 4053 
Q 1422 4169 1281 4169 
Q 1144 4169 1066 4056 
Q 963 3903 963 3456 
z
M 1950 -175 
L 1300 -175 
L 3741 4659 
L 4372 4659 
L 1950 -175 
z
M 3369 1028 
Q 3369 1644 3639 1941 
Q 3909 2238 4378 2238 
Q 4850 2238 5120 1941 
Q 5391 1644 5391 1028 
Q 5391 409 5120 112 
Q 4850 -184 4388 -184 
Q 3909 -184 3639 112 
Q 3369 409 3369 1028 
z
M 4053 1031 
Q 4053 584 4156 434 
Q 4234 319 4372 319 
Q 4513 319 4588 431 
Q 4691 584 4691 1031 
Q 4691 1478 4591 1631 
Q 4513 1744 4372 1744 
Q 4231 1744 4156 1631 
Q 4053 1478 4053 1031 
z
" transform="scale(0.015625)"/>
      </defs>
      <use xlink:href="#Arial-BoldMT-25"/>
     </g>
    </g>
   </g>
   <g id="line2d_13">
    <path d="M 90.421321 268.795517 
L 109.927106 244.451188 
L 129.432891 239.008243 
L 148.938676 231.949873 
L 168.444462 224.227395 
L 187.950247 237.494676 
L 207.456032 216.057786 
L 226.961817 209.622387 
L 246.467602 216.634482 
L 265.973387 210.694115 
L 285.479172 210.312221 
L 304.984957 238.629193 
L 324.490743 235.310057 
L 343.996528 231.990921 
L 363.502313 228.671785 
L 383.008098 225.685975 
L 402.513883 221.625379 
L 422.019668 217.559694 
L 441.525453 213.49401 
L 461.031238 213.673114 
L 480.537024 204.16504 
L 500.042809 191.210438 
L 519.548594 187.097125 
L 539.054379 176.582779 
L 558.560164 172.520903 
L 578.065949 168.288504 
L 597.571734 163.242697 
L 617.077519 158.54713 
L 636.583304 139.130721 
L 656.08909 141.699515 
L 675.594875 136.939036 
L 695.10066 131.361521 
L 714.606445 129.590348 
L 734.11223 127.822991 
L 753.618015 127.224617 
L 773.1238 126.599892 
L 792.629585 129.152772 
L 812.135371 128.439432 
L 831.641156 125.495411 
L 851.146941 124.312181 
L 870.652726 123.358816 
L 890.158511 126.90989 
L 909.664296 125.120002 
L 929.170081 128.827361 
L 948.675866 128.827361 
" clip-path="url(#p8ef287f89b)" style="fill: none; stroke: #1f77b4; stroke-opacity: 0.85; stroke-width: 3; stroke-linecap: round"/>
    <defs>
     <path id="mf00c3c3555" d="M 0 3 
C 0.795609 3 1.55874 2.683901 2.12132 2.12132 
C 2.683901 1.55874 3 0.795609 3 0 
C 3 -0.795609 2.683901 -1.55874 2.12132 -2.12132 
C 1.55874 -2.683901 0.795609 -3 0 -3 
C -0.795609 -3 -1.55874 -2.683901 -2.12132 -2.12132 
C -2.683901 -1.55874 -3 -0.795609 -3 0 
C -3 0.795609 -2.683901 1.55874 -2.12132 2.12132 
C -1.55874 2.683901 -0.795609 3 0 3 
z
" style="stroke: #1f77b4; stroke-opacity: 0.85"/>
    </defs>
    <g clip-path="url(#p8ef287f89b)">
     <use xlink:href="#mf00c3c3555" x="90.421321" y="268.795517" style="fill: #1f77b4; fill-opacity: 0.85; stroke: #1f77b4; stroke-opacity: 0.85"/>
     <use xlink:href="#mf00c3c3555" x="109.927106" y="244.451188" style="fill: #1f77b4; fill-opacity: 0.85; stroke: #1f77b4; stroke-opacity: 0.85"/>
     <use xlink:href="#mf00c3c3555" x="129.432891" y="239.008243" style="fill: #1f77b4; fill-opacity: 0.85; stroke: #1f77b4; stroke-opacity: 0.85"/>
     <use xlink:href="#mf00c3c3555" x="148.938676" y="231.949873" style="fill: #1f77b4; fill-opacity: 0.85; stroke: #1f77b4; stroke-opacity: 0.85"/>
     <use xlink:href="#mf00c3c3555" x="168.444462" y="224.227395" style="fill: #1f77b4; fill-opacity: 0.85; stroke: #1f77b4; stroke-opacity: 0.85"/>
     <use xlink:href="#mf00c3c3555" x="187.950247" y="237.494676" style="fill: #1f77b4; fill-opacity: 0.85; stroke: #1f77b4; stroke-opacity: 0.85"/>
     <use xlink:href="#mf00c3c3555" x="207.456032" y="216.057786" style="fill: #1f77b4; fill-opacity: 0.85; stroke: #1f77b4; stroke-opacity: 0.85"/>
     <use xlink:href="#mf00c3c3555" x="226.961817" y="209.622387" style="fill: #1f77b4; fill-opacity: 0.85; stroke: #1f77b4; stroke-opacity: 0.85"/>
     <use xlink:href="#mf00c3c3555" x="246.467602" y="216.634482" style="fill: #1f77b4; fill-opacity: 0.85; stroke: #1f77b4; stroke-opacity: 0.85"/>
     <use xlink:href="#mf00c3c3555" x="265.973387" y="210.694115" style="fill: #1f77b4; fill-opacity: 0.85; stroke: #1f77b4; stroke-opacity: 0.85"/>
     <use xlink:href="#mf00c3c3555" x="285.479172" y="210.312221" style="fill: #1f77b4; fill-opacity: 0.85; stroke: #1f77b4; stroke-opacity: 0.85"/>
     <use xlink:href="#mf00c3c3555" x="304.984957" y="238.629193" style="fill: #1f77b4; fill-opacity: 0.85; stroke: #1f77b4; stroke-opacity: 0.85"/>
     <use xlink:href="#mf00c3c3555" x="324.490743" y="235.310057" style="fill: #1f77b4; fill-opacity: 0.85; stroke: #1f77b4; stroke-opacity: 0.85"/>
     <use xlink:href="#mf00c3c3555" x="343.996528" y="231.990921" style="fill: #1f77b4; fill-opacity: 0.85; stroke: #1f77b4; stroke-opacity: 0.85"/>
     <use xlink:href="#mf00c3c3555" x="363.502313" y="228.671785" style="fill: #1f77b4; fill-opacity: 0.85; stroke: #1f77b4; stroke-opacity: 0.85"/>
     <use xlink:href="#mf00c3c3555" x="383.008098" y="225.685975" style="fill: #1f77b4; fill-opacity: 0.85; stroke: #1f77b4; stroke-opacity: 0.85"/>
     <use xlink:href="#mf00c3c3555" x="402.513883" y="221.625379" style="fill: #1f77b4; fill-opacity: 0.85; stroke: #1f77b4; stroke-opacity: 0.85"/>
     <use xlink:href="#mf00c3c3555" x="422.019668" y="217.559694" style="fill: #1f77b4; fill-opacity: 0.85; stroke: #1f77b4; stroke-opacity: 0.85"/>
     <use xlink:href="#mf00c3c3555" x="441.525453" y="213.49401" style="fill: #1f77b4; fill-opacity: 0.85; stroke: #1f77b4; stroke-opacity: 0.85"/>
     <use xlink:href="#mf00c3c3555" x="461.031238" y="213.673114" style="fill: #1f77b4; fill-opacity: 0.85; stroke: #1f77b4; stroke-opacity: 0.85"/>
     <use xlink:href="#mf00c3c3555" x="480.537024" y="204.16504" style="fill: #1f77b4; fill-opacity: 0.85; stroke: #1f77b4; stroke-opacity: 0.85"/>
     <use xlink:href="#mf00c3c3555" x="500.042809" y="191.210438" style="fill: #1f77b4; fill-opacity: 0.85; stroke: #1f77b4; stroke-opacity: 0.85"/>
     <use xlink:href="#mf00c3c3555" x="519.548594" y="187.097125" style="fill: #1f77b4; fill-opacity: 0.85; stroke: #1f77b4; stroke-opacity: 0.85"/>
     <use xlink:href="#mf00c3c3555" x="539.054379" y="176.582779" style="fill: #1f77b4; fill-opacity: 0.85; stroke: #1f77b4; stroke-opacity: 0.85"/>
     <use xlink:href="#mf00c3c3555" x="558.560164" y="172.520903" style="fill: #1f77b4; fill-opacity: 0.85; stroke: #1f77b4; stroke-opacity: 0.85"/>
     <use xlink:href="#mf00c3c3555" x="578.065949" y="168.288504" style="fill: #1f77b4; fill-opacity: 0.85; stroke: #1f77b4; stroke-opacity: 0.85"/>
     <use xlink:href="#mf00c3c3555" x="597.571734" y="163.242697" style="fill: #1f77b4; fill-opacity: 0.85; stroke: #1f77b4; stroke-opacity: 0.85"/>
     <use xlink:href="#mf00c3c3555" x="617.077519" y="158.54713" style="fill: #1f77b4; fill-opacity: 0.85; stroke: #1f77b4; stroke-opacity: 0.85"/>
     <use xlink:href="#mf00c3c3555" x="636.583304" y="139.130721" style="fill: #1f77b4; fill-opacity: 0.85; stroke: #1f77b4; stroke-opacity: 0.85"/>
     <use xlink:href="#mf00c3c3555" x="656.08909" y="141.699515" style="fill: #1f77b4; fill-opacity: 0.85; stroke: #1f77b4; stroke-opacity: 0.85"/>
     <use xlink:href="#mf00c3c3555" x="675.594875" y="136.939036" style="fill: #1f77b4; fill-opacity: 0.85; stroke: #1f77b4; stroke-opacity: 0.85"/>
     <use xlink:href="#mf00c3c3555" x="695.10066" y="131.361521" style="fill: #1f77b4; fill-opacity: 0.85; stroke: #1f77b4; stroke-opacity: 0.85"/>
     <use xlink:href="#mf00c3c3555" x="714.606445" y="129.590348" style="fill: #1f77b4; fill-opacity: 0.85; stroke: #1f77b4; stroke-opacity: 0.85"/>
     <use xlink:href="#mf00c3c3555" x="734.11223" y="127.822991" style="fill: #1f77b4; fill-opacity: 0.85; stroke: #1f77b4; stroke-opacity: 0.85"/>
     <use xlink:href="#mf00c3c3555" x="753.618015" y="127.224617" style="fill: #1f77b4; fill-opacity: 0.85; stroke: #1f77b4; stroke-opacity: 0.85"/>
     <use xlink:href="#mf00c3c3555" x="773.1238" y="126.599892" style="fill: #1f77b4; fill-opacity: 0.85; stroke: #1f77b4; stroke-opacity: 0.85"/>
     <use xlink:href="#mf00c3c3555" x="792.629585" y="129.152772" style="fill: #1f77b4; fill-opacity: 0.85; stroke: #1f77b4; stroke-opacity: 0.85"/>
     <use xlink:href="#mf00c3c3555" x="812.135371" y="128.439432" style="fill: #1f77b4; fill-opacity: 0.85; stroke: #1f77b4; stroke-opacity: 0.85"/>
     <use xlink:href="#mf00c3c3555" x="831.641156" y="125.495411" style="fill: #1f77b4; fill-opacity: 0.85; stroke: #1f77b4; stroke-opacity: 0.85"/>
     <use xlink:href="#mf00c3c3555" x="851.146941" y="124.312181" style="fill: #1f77b4; fill-opacity: 0.85; stroke: #1f77b4; stroke-opacity: 0.85"/>
     <use xlink:href="#mf00c3c3555" x="870.652726" y="123.358816" style="fill: #1f77b4; fill-opacity: 0.85; stroke: #1f77b4; stroke-opacity: 0.85"/>
     <use xlink:href="#mf00c3c3555" x="890.158511" y="126.90989" style="fill: #1f77b4; fill-opacity: 0.85; stroke: #1f77b4; stroke-opacity: 0.85"/>
     <use xlink:href="#mf00c3c3555" x="909.664296" y="125.120002" style="fill: #1f77b4; fill-opacity: 0.85; stroke: #1f77b4; stroke-opacity: 0.85"/>
     <use xlink:href="#mf00c3c3555" x="929.170081" y="128.827361" style="fill: #1f77b4; fill-opacity: 0.85; stroke: #1f77b4; stroke-opacity: 0.85"/>
     <use xlink:href="#mf00c3c3555" x="948.675866" y="128.827361" style="fill: #1f77b4; fill-opacity: 0.85; stroke: #1f77b4; stroke-opacity: 0.85"/>
    </g>
   </g>
   <g id="line2d_14">
    <path d="M 90.421321 120.185403 
L 109.927106 124.474041 
L 129.432891 119.670747 
L 148.938676 117.106719 
L 168.444462 114.76185 
L 187.950247 109.975872 
L 207.456032 108.392481 
L 226.961817 106.809091 
L 246.467602 105.2257 
L 265.973387 100.178853 
L 285.479172 96.83099 
L 304.984957 91.278283 
L 324.490743 89.892192 
L 343.996528 88.604995 
L 363.502313 87.136914 
L 383.008098 85.56217 
L 402.513883 83.971637 
L 422.019668 82.381104 
L 441.525453 80.79057 
L 461.031238 79.200037 
L 480.537024 77.694494 
L 500.042809 76.033374 
L 519.548594 76.315509 
L 539.054379 75.941187 
L 558.560164 75.156901 
L 578.065949 74.157453 
L 597.571734 74.221417 
L 617.077519 73.345513 
L 636.583304 72.011974 
L 656.08909 69.839588 
L 675.594875 68.507902 
L 695.10066 67.314202 
L 714.606445 66.41668 
L 734.11223 65.84125 
L 753.618015 65.456766 
L 773.1238 65.160125 
L 792.629585 64.795635 
L 812.135371 64.422476 
L 831.641156 63.974724 
L 851.146941 63.629972 
L 870.652726 62.195743 
L 890.158511 61.620048 
L 909.664296 61.024221 
L 929.170081 61.145085 
L 948.675866 59.506392 
" clip-path="url(#p8ef287f89b)" style="fill: none; stroke: #ff7f0e; stroke-opacity: 0.85; stroke-width: 3; stroke-linecap: round"/>
    <defs>
     <path id="m12ebed302d" d="M 0 3 
C 0.795609 3 1.55874 2.683901 2.12132 2.12132 
C 2.683901 1.55874 3 0.795609 3 0 
C 3 -0.795609 2.683901 -1.55874 2.12132 -2.12132 
C 1.55874 -2.683901 0.795609 -3 0 -3 
C -0.795609 -3 -1.55874 -2.683901 -2.12132 -2.12132 
C -2.683901 -1.55874 -3 -0.795609 -3 0 
C -3 0.795609 -2.683901 1.55874 -2.12132 2.12132 
C -1.55874 2.683901 -0.795609 3 0 3 
z
" style="stroke: #ff7f0e; stroke-opacity: 0.85"/>
    </defs>
    <g clip-path="url(#p8ef287f89b)">
     <use xlink:href="#m12ebed302d" x="90.421321" y="120.185403" style="fill: #ff7f0e; fill-opacity: 0.85; stroke: #ff7f0e; stroke-opacity: 0.85"/>
     <use xlink:href="#m12ebed302d" x="109.927106" y="124.474041" style="fill: #ff7f0e; fill-opacity: 0.85; stroke: #ff7f0e; stroke-opacity: 0.85"/>
     <use xlink:href="#m12ebed302d" x="129.432891" y="119.670747" style="fill: #ff7f0e; fill-opacity: 0.85; stroke: #ff7f0e; stroke-opacity: 0.85"/>
     <use xlink:href="#m12ebed302d" x="148.938676" y="117.106719" style="fill: #ff7f0e; fill-opacity: 0.85; stroke: #ff7f0e; stroke-opacity: 0.85"/>
     <use xlink:href="#m12ebed302d" x="168.444462" y="114.76185" style="fill: #ff7f0e; fill-opacity: 0.85; stroke: #ff7f0e; stroke-opacity: 0.85"/>
     <use xlink:href="#m12ebed302d" x="187.950247" y="109.975872" style="fill: #ff7f0e; fill-opacity: 0.85; stroke: #ff7f0e; stroke-opacity: 0.85"/>
     <use xlink:href="#m12ebed302d" x="207.456032" y="108.392481" style="fill: #ff7f0e; fill-opacity: 0.85; stroke: #ff7f0e; stroke-opacity: 0.85"/>
     <use xlink:href="#m12ebed302d" x="226.961817" y="106.809091" style="fill: #ff7f0e; fill-opacity: 0.85; stroke: #ff7f0e; stroke-opacity: 0.85"/>
     <use xlink:href="#m12ebed302d" x="246.467602" y="105.2257" style="fill: #ff7f0e; fill-opacity: 0.85; stroke: #ff7f0e; stroke-opacity: 0.85"/>
     <use xlink:href="#m12ebed302d" x="265.973387" y="100.178853" style="fill: #ff7f0e; fill-opacity: 0.85; stroke: #ff7f0e; stroke-opacity: 0.85"/>
     <use xlink:href="#m12ebed302d" x="285.479172" y="96.83099" style="fill: #ff7f0e; fill-opacity: 0.85; stroke: #ff7f0e; stroke-opacity: 0.85"/>
     <use xlink:href="#m12ebed302d" x="304.984957" y="91.278283" style="fill: #ff7f0e; fill-opacity: 0.85; stroke: #ff7f0e; stroke-opacity: 0.85"/>
     <use xlink:href="#m12ebed302d" x="324.490743" y="89.892192" style="fill: #ff7f0e; fill-opacity: 0.85; stroke: #ff7f0e; stroke-opacity: 0.85"/>
     <use xlink:href="#m12ebed302d" x="343.996528" y="88.604995" style="fill: #ff7f0e; fill-opacity: 0.85; stroke: #ff7f0e; stroke-opacity: 0.85"/>
     <use xlink:href="#m12ebed302d" x="363.502313" y="87.136914" style="fill: #ff7f0e; fill-opacity: 0.85; stroke: #ff7f0e; stroke-opacity: 0.85"/>
     <use xlink:href="#m12ebed302d" x="383.008098" y="85.56217" style="fill: #ff7f0e; fill-opacity: 0.85; stroke: #ff7f0e; stroke-opacity: 0.85"/>
     <use xlink:href="#m12ebed302d" x="402.513883" y="83.971637" style="fill: #ff7f0e; fill-opacity: 0.85; stroke: #ff7f0e; stroke-opacity: 0.85"/>
     <use xlink:href="#m12ebed302d" x="422.019668" y="82.381104" style="fill: #ff7f0e; fill-opacity: 0.85; stroke: #ff7f0e; stroke-opacity: 0.85"/>
     <use xlink:href="#m12ebed302d" x="441.525453" y="80.79057" style="fill: #ff7f0e; fill-opacity: 0.85; stroke: #ff7f0e; stroke-opacity: 0.85"/>
     <use xlink:href="#m12ebed302d" x="461.031238" y="79.200037" style="fill: #ff7f0e; fill-opacity: 0.85; stroke: #ff7f0e; stroke-opacity: 0.85"/>
     <use xlink:href="#m12ebed302d" x="480.537024" y="77.694494" style="fill: #ff7f0e; fill-opacity: 0.85; stroke: #ff7f0e; stroke-opacity: 0.85"/>
     <use xlink:href="#m12ebed302d" x="500.042809" y="76.033374" style="fill: #ff7f0e; fill-opacity: 0.85; stroke: #ff7f0e; stroke-opacity: 0.85"/>
     <use xlink:href="#m12ebed302d" x="519.548594" y="76.315509" style="fill: #ff7f0e; fill-opacity: 0.85; stroke: #ff7f0e; stroke-opacity: 0.85"/>
     <use xlink:href="#m12ebed302d" x="539.054379" y="75.941187" style="fill: #ff7f0e; fill-opacity: 0.85; stroke: #ff7f0e; stroke-opacity: 0.85"/>
     <use xlink:href="#m12ebed302d" x="558.560164" y="75.156901" style="fill: #ff7f0e; fill-opacity: 0.85; stroke: #ff7f0e; stroke-opacity: 0.85"/>
     <use xlink:href="#m12ebed302d" x="578.065949" y="74.157453" style="fill: #ff7f0e; fill-opacity: 0.85; stroke: #ff7f0e; stroke-opacity: 0.85"/>
     <use xlink:href="#m12ebed302d" x="597.571734" y="74.221417" style="fill: #ff7f0e; fill-opacity: 0.85; stroke: #ff7f0e; stroke-opacity: 0.85"/>
     <use xlink:href="#m12ebed302d" x="617.077519" y="73.345513" style="fill: #ff7f0e; fill-opacity: 0.85; stroke: #ff7f0e; stroke-opacity: 0.85"/>
     <use xlink:href="#m12ebed302d" x="636.583304" y="72.011974" style="fill: #ff7f0e; fill-opacity: 0.85; stroke: #ff7f0e; stroke-opacity: 0.85"/>
     <use xlink:href="#m12ebed302d" x="656.08909" y="69.839588" style="fill: #ff7f0e; fill-opacity: 0.85; stroke: #ff7f0e; stroke-opacity: 0.85"/>
     <use xlink:href="#m12ebed302d" x="675.594875" y="68.507902" style="fill: #ff7f0e; fill-opacity: 0.85; stroke: #ff7f0e; stroke-opacity: 0.85"/>
     <use xlink:href="#m12ebed302d" x="695.10066" y="67.314202" style="fill: #ff7f0e; fill-opacity: 0.85; stroke: #ff7f0e; stroke-opacity: 0.85"/>
     <use xlink:href="#m12ebed302d" x="714.606445" y="66.41668" style="fill: #ff7f0e; fill-opacity: 0.85; stroke: #ff7f0e; stroke-opacity: 0.85"/>
     <use xlink:href="#m12ebed302d" x="734.11223" y="65.84125" style="fill: #ff7f0e; fill-opacity: 0.85; stroke: #ff7f0e; stroke-opacity: 0.85"/>
     <use xlink:href="#m12ebed302d" x="753.618015" y="65.456766" style="fill: #ff7f0e; fill-opacity: 0.85; stroke: #ff7f0e; stroke-opacity: 0.85"/>
     <use xlink:href="#m12ebed302d" x="773.1238" y="65.160125" style="fill: #ff7f0e; fill-opacity: 0.85; stroke: #ff7f0e; stroke-opacity: 0.85"/>
     <use xlink:href="#m12ebed302d" x="792.629585" y="64.795635" style="fill: #ff7f0e; fill-opacity: 0.85; stroke: #ff7f0e; stroke-opacity: 0.85"/>
     <use xlink:href="#m12ebed302d" x="812.135371" y="64.422476" style="fill: #ff7f0e; fill-opacity: 0.85; stroke: #ff7f0e; stroke-opacity: 0.85"/>
     <use xlink:href="#m12ebed302d" x="831.641156" y="63.974724" style="fill: #ff7f0e; fill-opacity: 0.85; stroke: #ff7f0e; stroke-opacity: 0.85"/>
     <use xlink:href="#m12ebed302d" x="851.146941" y="63.629972" style="fill: #ff7f0e; fill-opacity: 0.85; stroke: #ff7f0e; stroke-opacity: 0.85"/>
     <use xlink:href="#m12ebed302d" x="870.652726" y="62.195743" style="fill: #ff7f0e; fill-opacity: 0.85; stroke: #ff7f0e; stroke-opacity: 0.85"/>
     <use xlink:href="#m12ebed302d" x="890.158511" y="61.620048" style="fill: #ff7f0e; fill-opacity: 0.85; stroke: #ff7f0e; stroke-opacity: 0.85"/>
     <use xlink:href="#m12ebed302d" x="909.664296" y="61.024221" style="fill: #ff7f0e; fill-opacity: 0.85; stroke: #ff7f0e; stroke-opacity: 0.85"/>
     <use xlink:href="#m12ebed302d" x="929.170081" y="61.145085" style="fill: #ff7f0e; fill-opacity: 0.85; stroke: #ff7f0e; stroke-opacity: 0.85"/>
     <use xlink:href="#m12ebed302d" x="948.675866" y="59.506392" style="fill: #ff7f0e; fill-opacity: 0.85; stroke: #ff7f0e; stroke-opacity: 0.85"/>
    </g>
   </g>
   <g id="line2d_15">
    <path d="M 90.421321 199.485805 
L 109.927106 203.764697 
L 129.432891 209.327998 
L 148.938676 201.229664 
L 168.444462 207.587358 
L 187.950247 204.69887 
L 207.456032 201.759615 
L 226.961817 198.82036 
L 246.467602 195.881105 
L 265.973387 191.172308 
L 285.479172 182.840808 
L 304.984957 183.449511 
L 324.490743 175.675702 
L 343.996528 173.245553 
L 363.502313 170.049814 
L 383.008098 167.657042 
L 402.513883 165.26427 
L 422.019668 162.848199 
L 441.525453 160.432128 
L 461.031238 158.016057 
L 480.537024 155.534405 
L 500.042809 155.8714 
L 519.548594 153.153481 
L 539.054379 150.425227 
L 558.560164 147.541718 
L 578.065949 143.990714 
L 597.571734 140.540692 
L 617.077519 136.661627 
L 636.583304 132.843109 
L 656.08909 129.806169 
L 675.594875 126.740411 
L 695.10066 123.933898 
L 714.606445 119.937852 
L 734.11223 118.509742 
L 753.618015 115.425071 
L 773.1238 115.112724 
L 792.629585 114.36184 
L 812.135371 115.297647 
L 831.641156 114.883598 
L 851.146941 116.012822 
L 870.652726 113.848856 
L 890.158511 113.401751 
L 909.664296 112.650641 
L 929.170081 111.953751 
L 948.675866 111.748163 
" clip-path="url(#p8ef287f89b)" style="fill: none; stroke: #2ca02c; stroke-opacity: 0.85; stroke-width: 3; stroke-linecap: round"/>
    <defs>
     <path id="mc82fe9ce9f" d="M 0 3 
C 0.795609 3 1.55874 2.683901 2.12132 2.12132 
C 2.683901 1.55874 3 0.795609 3 0 
C 3 -0.795609 2.683901 -1.55874 2.12132 -2.12132 
C 1.55874 -2.683901 0.795609 -3 0 -3 
C -0.795609 -3 -1.55874 -2.683901 -2.12132 -2.12132 
C -2.683901 -1.55874 -3 -0.795609 -3 0 
C -3 0.795609 -2.683901 1.55874 -2.12132 2.12132 
C -1.55874 2.683901 -0.795609 3 0 3 
z
" style="stroke: #2ca02c; stroke-opacity: 0.85"/>
    </defs>
    <g clip-path="url(#p8ef287f89b)">
     <use xlink:href="#mc82fe9ce9f" x="90.421321" y="199.485805" style="fill: #2ca02c; fill-opacity: 0.85; stroke: #2ca02c; stroke-opacity: 0.85"/>
     <use xlink:href="#mc82fe9ce9f" x="109.927106" y="203.764697" style="fill: #2ca02c; fill-opacity: 0.85; stroke: #2ca02c; stroke-opacity: 0.85"/>
     <use xlink:href="#mc82fe9ce9f" x="129.432891" y="209.327998" style="fill: #2ca02c; fill-opacity: 0.85; stroke: #2ca02c; stroke-opacity: 0.85"/>
     <use xlink:href="#mc82fe9ce9f" x="148.938676" y="201.229664" style="fill: #2ca02c; fill-opacity: 0.85; stroke: #2ca02c; stroke-opacity: 0.85"/>
     <use xlink:href="#mc82fe9ce9f" x="168.444462" y="207.587358" style="fill: #2ca02c; fill-opacity: 0.85; stroke: #2ca02c; stroke-opacity: 0.85"/>
     <use xlink:href="#mc82fe9ce9f" x="187.950247" y="204.69887" style="fill: #2ca02c; fill-opacity: 0.85; stroke: #2ca02c; stroke-opacity: 0.85"/>
     <use xlink:href="#mc82fe9ce9f" x="207.456032" y="201.759615" style="fill: #2ca02c; fill-opacity: 0.85; stroke: #2ca02c; stroke-opacity: 0.85"/>
     <use xlink:href="#mc82fe9ce9f" x="226.961817" y="198.82036" style="fill: #2ca02c; fill-opacity: 0.85; stroke: #2ca02c; stroke-opacity: 0.85"/>
     <use xlink:href="#mc82fe9ce9f" x="246.467602" y="195.881105" style="fill: #2ca02c; fill-opacity: 0.85; stroke: #2ca02c; stroke-opacity: 0.85"/>
     <use xlink:href="#mc82fe9ce9f" x="265.973387" y="191.172308" style="fill: #2ca02c; fill-opacity: 0.85; stroke: #2ca02c; stroke-opacity: 0.85"/>
     <use xlink:href="#mc82fe9ce9f" x="285.479172" y="182.840808" style="fill: #2ca02c; fill-opacity: 0.85; stroke: #2ca02c; stroke-opacity: 0.85"/>
     <use xlink:href="#mc82fe9ce9f" x="304.984957" y="183.449511" style="fill: #2ca02c; fill-opacity: 0.85; stroke: #2ca02c; stroke-opacity: 0.85"/>
     <use xlink:href="#mc82fe9ce9f" x="324.490743" y="175.675702" style="fill: #2ca02c; fill-opacity: 0.85; stroke: #2ca02c; stroke-opacity: 0.85"/>
     <use xlink:href="#mc82fe9ce9f" x="343.996528" y="173.245553" style="fill: #2ca02c; fill-opacity: 0.85; stroke: #2ca02c; stroke-opacity: 0.85"/>
     <use xlink:href="#mc82fe9ce9f" x="363.502313" y="170.049814" style="fill: #2ca02c; fill-opacity: 0.85; stroke: #2ca02c; stroke-opacity: 0.85"/>
     <use xlink:href="#mc82fe9ce9f" x="383.008098" y="167.657042" style="fill: #2ca02c; fill-opacity: 0.85; stroke: #2ca02c; stroke-opacity: 0.85"/>
     <use xlink:href="#mc82fe9ce9f" x="402.513883" y="165.26427" style="fill: #2ca02c; fill-opacity: 0.85; stroke: #2ca02c; stroke-opacity: 0.85"/>
     <use xlink:href="#mc82fe9ce9f" x="422.019668" y="162.848199" style="fill: #2ca02c; fill-opacity: 0.85; stroke: #2ca02c; stroke-opacity: 0.85"/>
     <use xlink:href="#mc82fe9ce9f" x="441.525453" y="160.432128" style="fill: #2ca02c; fill-opacity: 0.85; stroke: #2ca02c; stroke-opacity: 0.85"/>
     <use xlink:href="#mc82fe9ce9f" x="461.031238" y="158.016057" style="fill: #2ca02c; fill-opacity: 0.85; stroke: #2ca02c; stroke-opacity: 0.85"/>
     <use xlink:href="#mc82fe9ce9f" x="480.537024" y="155.534405" style="fill: #2ca02c; fill-opacity: 0.85; stroke: #2ca02c; stroke-opacity: 0.85"/>
     <use xlink:href="#mc82fe9ce9f" x="500.042809" y="155.8714" style="fill: #2ca02c; fill-opacity: 0.85; stroke: #2ca02c; stroke-opacity: 0.85"/>
     <use xlink:href="#mc82fe9ce9f" x="519.548594" y="153.153481" style="fill: #2ca02c; fill-opacity: 0.85; stroke: #2ca02c; stroke-opacity: 0.85"/>
     <use xlink:href="#mc82fe9ce9f" x="539.054379" y="150.425227" style="fill: #2ca02c; fill-opacity: 0.85; stroke: #2ca02c; stroke-opacity: 0.85"/>
     <use xlink:href="#mc82fe9ce9f" x="558.560164" y="147.541718" style="fill: #2ca02c; fill-opacity: 0.85; stroke: #2ca02c; stroke-opacity: 0.85"/>
     <use xlink:href="#mc82fe9ce9f" x="578.065949" y="143.990714" style="fill: #2ca02c; fill-opacity: 0.85; stroke: #2ca02c; stroke-opacity: 0.85"/>
     <use xlink:href="#mc82fe9ce9f" x="597.571734" y="140.540692" style="fill: #2ca02c; fill-opacity: 0.85; stroke: #2ca02c; stroke-opacity: 0.85"/>
     <use xlink:href="#mc82fe9ce9f" x="617.077519" y="136.661627" style="fill: #2ca02c; fill-opacity: 0.85; stroke: #2ca02c; stroke-opacity: 0.85"/>
     <use xlink:href="#mc82fe9ce9f" x="636.583304" y="132.843109" style="fill: #2ca02c; fill-opacity: 0.85; stroke: #2ca02c; stroke-opacity: 0.85"/>
     <use xlink:href="#mc82fe9ce9f" x="656.08909" y="129.806169" style="fill: #2ca02c; fill-opacity: 0.85; stroke: #2ca02c; stroke-opacity: 0.85"/>
     <use xlink:href="#mc82fe9ce9f" x="675.594875" y="126.740411" style="fill: #2ca02c; fill-opacity: 0.85; stroke: #2ca02c; stroke-opacity: 0.85"/>
     <use xlink:href="#mc82fe9ce9f" x="695.10066" y="123.933898" style="fill: #2ca02c; fill-opacity: 0.85; stroke: #2ca02c; stroke-opacity: 0.85"/>
     <use xlink:href="#mc82fe9ce9f" x="714.606445" y="119.937852" style="fill: #2ca02c; fill-opacity: 0.85; stroke: #2ca02c; stroke-opacity: 0.85"/>
     <use xlink:href="#mc82fe9ce9f" x="734.11223" y="118.509742" style="fill: #2ca02c; fill-opacity: 0.85; stroke: #2ca02c; stroke-opacity: 0.85"/>
     <use xlink:href="#mc82fe9ce9f" x="753.618015" y="115.425071" style="fill: #2ca02c; fill-opacity: 0.85; stroke: #2ca02c; stroke-opacity: 0.85"/>
     <use xlink:href="#mc82fe9ce9f" x="773.1238" y="115.112724" style="fill: #2ca02c; fill-opacity: 0.85; stroke: #2ca02c; stroke-opacity: 0.85"/>
     <use xlink:href="#mc82fe9ce9f" x="792.629585" y="114.36184" style="fill: #2ca02c; fill-opacity: 0.85; stroke: #2ca02c; stroke-opacity: 0.85"/>
     <use xlink:href="#mc82fe9ce9f" x="812.135371" y="115.297647" style="fill: #2ca02c; fill-opacity: 0.85; stroke: #2ca02c; stroke-opacity: 0.85"/>
     <use xlink:href="#mc82fe9ce9f" x="831.641156" y="114.883598" style="fill: #2ca02c; fill-opacity: 0.85; stroke: #2ca02c; stroke-opacity: 0.85"/>
     <use xlink:href="#mc82fe9ce9f" x="851.146941" y="116.012822" style="fill: #2ca02c; fill-opacity: 0.85; stroke: #2ca02c; stroke-opacity: 0.85"/>
     <use xlink:href="#mc82fe9ce9f" x="870.652726" y="113.848856" style="fill: #2ca02c; fill-opacity: 0.85; stroke: #2ca02c; stroke-opacity: 0.85"/>
     <use xlink:href="#mc82fe9ce9f" x="890.158511" y="113.401751" style="fill: #2ca02c; fill-opacity: 0.85; stroke: #2ca02c; stroke-opacity: 0.85"/>
     <use xlink:href="#mc82fe9ce9f" x="909.664296" y="112.650641" style="fill: #2ca02c; fill-opacity: 0.85; stroke: #2ca02c; stroke-opacity: 0.85"/>
     <use xlink:href="#mc82fe9ce9f" x="929.170081" y="111.953751" style="fill: #2ca02c; fill-opacity: 0.85; stroke: #2ca02c; stroke-opacity: 0.85"/>
     <use xlink:href="#mc82fe9ce9f" x="948.675866" y="111.748163" style="fill: #2ca02c; fill-opacity: 0.85; stroke: #2ca02c; stroke-opacity: 0.85"/>
    </g>
   </g>
   <g id="line2d_16">
    <path d="M 90.421321 463.8652 
L 109.927106 462.378209 
L 129.432891 450.653491 
L 148.938676 446.15152 
L 168.444462 463.924257 
L 187.950247 456.678392 
L 207.456032 451.787289 
L 226.961817 425.282795 
L 246.467602 416.875256 
L 265.973387 408.467717 
L 285.479172 394.569909 
L 304.984957 386.762909 
L 324.490743 380.163626 
L 343.996528 351.714645 
L 363.502313 345.224042 
L 383.008098 338.050115 
L 402.513883 330.323243 
L 422.019668 313.332455 
L 441.525453 305.820588 
L 461.031238 298.308721 
L 480.537024 290.796854 
L 500.042809 282.986947 
L 519.548594 275.206398 
L 539.054379 268.018477 
L 558.560164 259.762773 
L 578.065949 231.628763 
L 597.571734 225.856823 
L 617.077519 219.43962 
L 636.583304 212.595423 
L 656.08909 206.909205 
L 675.594875 198.101607 
L 695.10066 187.880177 
L 714.606445 181.337919 
L 734.11223 197.914244 
L 753.618015 194.928844 
L 773.1238 191.466085 
L 792.629585 187.203689 
L 812.135371 181.869937 
L 831.641156 179.290879 
L 851.146941 174.379568 
L 870.652726 169.741911 
L 890.158511 165.834279 
L 909.664296 165.005475 
L 929.170081 163.541844 
L 948.675866 163.008844 
" clip-path="url(#p8ef287f89b)" style="fill: none; stroke: #d62728; stroke-opacity: 0.85; stroke-width: 3; stroke-linecap: round"/>
    <defs>
     <path id="m106d5f3649" d="M 0 3 
C 0.795609 3 1.55874 2.683901 2.12132 2.12132 
C 2.683901 1.55874 3 0.795609 3 0 
C 3 -0.795609 2.683901 -1.55874 2.12132 -2.12132 
C 1.55874 -2.683901 0.795609 -3 0 -3 
C -0.795609 -3 -1.55874 -2.683901 -2.12132 -2.12132 
C -2.683901 -1.55874 -3 -0.795609 -3 0 
C -3 0.795609 -2.683901 1.55874 -2.12132 2.12132 
C -1.55874 2.683901 -0.795609 3 0 3 
z
" style="stroke: #d62728; stroke-opacity: 0.85"/>
    </defs>
    <g clip-path="url(#p8ef287f89b)">
     <use xlink:href="#m106d5f3649" x="90.421321" y="463.8652" style="fill: #d62728; fill-opacity: 0.85; stroke: #d62728; stroke-opacity: 0.85"/>
     <use xlink:href="#m106d5f3649" x="109.927106" y="462.378209" style="fill: #d62728; fill-opacity: 0.85; stroke: #d62728; stroke-opacity: 0.85"/>
     <use xlink:href="#m106d5f3649" x="129.432891" y="450.653491" style="fill: #d62728; fill-opacity: 0.85; stroke: #d62728; stroke-opacity: 0.85"/>
     <use xlink:href="#m106d5f3649" x="148.938676" y="446.15152" style="fill: #d62728; fill-opacity: 0.85; stroke: #d62728; stroke-opacity: 0.85"/>
     <use xlink:href="#m106d5f3649" x="168.444462" y="463.924257" style="fill: #d62728; fill-opacity: 0.85; stroke: #d62728; stroke-opacity: 0.85"/>
     <use xlink:href="#m106d5f3649" x="187.950247" y="456.678392" style="fill: #d62728; fill-opacity: 0.85; stroke: #d62728; stroke-opacity: 0.85"/>
     <use xlink:href="#m106d5f3649" x="207.456032" y="451.787289" style="fill: #d62728; fill-opacity: 0.85; stroke: #d62728; stroke-opacity: 0.85"/>
     <use xlink:href="#m106d5f3649" x="226.961817" y="425.282795" style="fill: #d62728; fill-opacity: 0.85; stroke: #d62728; stroke-opacity: 0.85"/>
     <use xlink:href="#m106d5f3649" x="246.467602" y="416.875256" style="fill: #d62728; fill-opacity: 0.85; stroke: #d62728; stroke-opacity: 0.85"/>
     <use xlink:href="#m106d5f3649" x="265.973387" y="408.467717" style="fill: #d62728; fill-opacity: 0.85; stroke: #d62728; stroke-opacity: 0.85"/>
     <use xlink:href="#m106d5f3649" x="285.479172" y="394.569909" style="fill: #d62728; fill-opacity: 0.85; stroke: #d62728; stroke-opacity: 0.85"/>
     <use xlink:href="#m106d5f3649" x="304.984957" y="386.762909" style="fill: #d62728; fill-opacity: 0.85; stroke: #d62728; stroke-opacity: 0.85"/>
     <use xlink:href="#m106d5f3649" x="324.490743" y="380.163626" style="fill: #d62728; fill-opacity: 0.85; stroke: #d62728; stroke-opacity: 0.85"/>
     <use xlink:href="#m106d5f3649" x="343.996528" y="351.714645" style="fill: #d62728; fill-opacity: 0.85; stroke: #d62728; stroke-opacity: 0.85"/>
     <use xlink:href="#m106d5f3649" x="363.502313" y="345.224042" style="fill: #d62728; fill-opacity: 0.85; stroke: #d62728; stroke-opacity: 0.85"/>
     <use xlink:href="#m106d5f3649" x="383.008098" y="338.050115" style="fill: #d62728; fill-opacity: 0.85; stroke: #d62728; stroke-opacity: 0.85"/>
     <use xlink:href="#m106d5f3649" x="402.513883" y="330.323243" style="fill: #d62728; fill-opacity: 0.85; stroke: #d62728; stroke-opacity: 0.85"/>
     <use xlink:href="#m106d5f3649" x="422.019668" y="313.332455" style="fill: #d62728; fill-opacity: 0.85; stroke: #d62728; stroke-opacity: 0.85"/>
     <use xlink:href="#m106d5f3649" x="441.525453" y="305.820588" style="fill: #d62728; fill-opacity: 0.85; stroke: #d62728; stroke-opacity: 0.85"/>
     <use xlink:href="#m106d5f3649" x="461.031238" y="298.308721" style="fill: #d62728; fill-opacity: 0.85; stroke: #d62728; stroke-opacity: 0.85"/>
     <use xlink:href="#m106d5f3649" x="480.537024" y="290.796854" style="fill: #d62728; fill-opacity: 0.85; stroke: #d62728; stroke-opacity: 0.85"/>
     <use xlink:href="#m106d5f3649" x="500.042809" y="282.986947" style="fill: #d62728; fill-opacity: 0.85; stroke: #d62728; stroke-opacity: 0.85"/>
     <use xlink:href="#m106d5f3649" x="519.548594" y="275.206398" style="fill: #d62728; fill-opacity: 0.85; stroke: #d62728; stroke-opacity: 0.85"/>
     <use xlink:href="#m106d5f3649" x="539.054379" y="268.018477" style="fill: #d62728; fill-opacity: 0.85; stroke: #d62728; stroke-opacity: 0.85"/>
     <use xlink:href="#m106d5f3649" x="558.560164" y="259.762773" style="fill: #d62728; fill-opacity: 0.85; stroke: #d62728; stroke-opacity: 0.85"/>
     <use xlink:href="#m106d5f3649" x="578.065949" y="231.628763" style="fill: #d62728; fill-opacity: 0.85; stroke: #d62728; stroke-opacity: 0.85"/>
     <use xlink:href="#m106d5f3649" x="597.571734" y="225.856823" style="fill: #d62728; fill-opacity: 0.85; stroke: #d62728; stroke-opacity: 0.85"/>
     <use xlink:href="#m106d5f3649" x="617.077519" y="219.43962" style="fill: #d62728; fill-opacity: 0.85; stroke: #d62728; stroke-opacity: 0.85"/>
     <use xlink:href="#m106d5f3649" x="636.583304" y="212.595423" style="fill: #d62728; fill-opacity: 0.85; stroke: #d62728; stroke-opacity: 0.85"/>
     <use xlink:href="#m106d5f3649" x="656.08909" y="206.909205" style="fill: #d62728; fill-opacity: 0.85; stroke: #d62728; stroke-opacity: 0.85"/>
     <use xlink:href="#m106d5f3649" x="675.594875" y="198.101607" style="fill: #d62728; fill-opacity: 0.85; stroke: #d62728; stroke-opacity: 0.85"/>
     <use xlink:href="#m106d5f3649" x="695.10066" y="187.880177" style="fill: #d62728; fill-opacity: 0.85; stroke: #d62728; stroke-opacity: 0.85"/>
     <use xlink:href="#m106d5f3649" x="714.606445" y="181.337919" style="fill: #d62728; fill-opacity: 0.85; stroke: #d62728; stroke-opacity: 0.85"/>
     <use xlink:href="#m106d5f3649" x="734.11223" y="197.914244" style="fill: #d62728; fill-opacity: 0.85; stroke: #d62728; stroke-opacity: 0.85"/>
     <use xlink:href="#m106d5f3649" x="753.618015" y="194.928844" style="fill: #d62728; fill-opacity: 0.85; stroke: #d62728; stroke-opacity: 0.85"/>
     <use xlink:href="#m106d5f3649" x="773.1238" y="191.466085" style="fill: #d62728; fill-opacity: 0.85; stroke: #d62728; stroke-opacity: 0.85"/>
     <use xlink:href="#m106d5f3649" x="792.629585" y="187.203689" style="fill: #d62728; fill-opacity: 0.85; stroke: #d62728; stroke-opacity: 0.85"/>
     <use xlink:href="#m106d5f3649" x="812.135371" y="181.869937" style="fill: #d62728; fill-opacity: 0.85; stroke: #d62728; stroke-opacity: 0.85"/>
     <use xlink:href="#m106d5f3649" x="831.641156" y="179.290879" style="fill: #d62728; fill-opacity: 0.85; stroke: #d62728; stroke-opacity: 0.85"/>
     <use xlink:href="#m106d5f3649" x="851.146941" y="174.379568" style="fill: #d62728; fill-opacity: 0.85; stroke: #d62728; stroke-opacity: 0.85"/>
     <use xlink:href="#m106d5f3649" x="870.652726" y="169.741911" style="fill: #d62728; fill-opacity: 0.85; stroke: #d62728; stroke-opacity: 0.85"/>
     <use xlink:href="#m106d5f3649" x="890.158511" y="165.834279" style="fill: #d62728; fill-opacity: 0.85; stroke: #d62728; stroke-opacity: 0.85"/>
     <use xlink:href="#m106d5f3649" x="909.664296" y="165.005475" style="fill: #d62728; fill-opacity: 0.85; stroke: #d62728; stroke-opacity: 0.85"/>
     <use xlink:href="#m106d5f3649" x="929.170081" y="163.541844" style="fill: #d62728; fill-opacity: 0.85; stroke: #d62728; stroke-opacity: 0.85"/>
     <use xlink:href="#m106d5f3649" x="948.675866" y="163.008844" style="fill: #d62728; fill-opacity: 0.85; stroke: #d62728; stroke-opacity: 0.85"/>
    </g>
   </g>
   <g id="line2d_17">
    <path clip-path="url(#p8ef287f89b)" style="fill: none; stroke: #9467bd; stroke-opacity: 0.85; stroke-width: 3; stroke-linecap: round"/>
    <defs>
     <path id="m269a0953f9" d="M 0 3 
C 0.795609 3 1.55874 2.683901 2.12132 2.12132 
C 2.683901 1.55874 3 0.795609 3 0 
C 3 -0.795609 2.683901 -1.55874 2.12132 -2.12132 
C 1.55874 -2.683901 0.795609 -3 0 -3 
C -0.795609 -3 -1.55874 -2.683901 -2.12132 -2.12132 
C -2.683901 -1.55874 -3 -0.795609 -3 0 
C -3 0.795609 -2.683901 1.55874 -2.12132 2.12132 
C -1.55874 2.683901 -0.795609 3 0 3 
z
" style="stroke: #9467bd; stroke-opacity: 0.85"/>
    </defs>
    <g clip-path="url(#p8ef287f89b)"/>
   </g>
   <g id="line2d_18">
    <path d="M 90.421321 505.215483 
L 109.927106 505.215483 
L 129.432891 500.62218 
L 148.938676 496.028877 
L 168.444462 491.435575 
L 187.950247 486.842272 
L 207.456032 481.284612 
L 226.961817 475.726953 
L 246.467602 470.169294 
L 265.973387 464.611634 
L 285.479172 459.053975 
L 304.984957 454.386882 
L 324.490743 446.863615 
L 343.996528 439.340348 
L 363.502313 431.817081 
L 383.008098 437.647907 
L 402.513883 431.262641 
L 422.019668 424.877375 
L 441.525453 418.492109 
L 461.031238 412.036099 
L 480.537024 405.580089 
L 500.042809 434.306163 
L 519.548594 430.053043 
L 539.054379 425.799924 
L 558.560164 421.546805 
L 578.065949 417.293685 
L 597.571734 408.968948 
L 617.077519 405.00841 
L 636.583304 398.404794 
L 656.08909 392.090336 
L 675.594875 385.317872 
L 695.10066 378.403515 
L 714.606445 374.891371 
L 734.11223 367.659248 
L 753.618015 360.493922 
L 773.1238 351.407048 
L 792.629585 338.64236 
L 812.135371 336.006435 
L 831.641156 331.765396 
L 851.146941 324.015726 
L 870.652726 321.555272 
L 890.158511 317.525904 
L 909.664296 310.000112 
L 929.170081 304.303666 
L 948.675866 304.303666 
" clip-path="url(#p8ef287f89b)" style="fill: none; stroke: #8c564b; stroke-opacity: 0.85; stroke-width: 3; stroke-linecap: round"/>
    <defs>
     <path id="me9af6d9d03" d="M 0 3 
C 0.795609 3 1.55874 2.683901 2.12132 2.12132 
C 2.683901 1.55874 3 0.795609 3 0 
C 3 -0.795609 2.683901 -1.55874 2.12132 -2.12132 
C 1.55874 -2.683901 0.795609 -3 0 -3 
C -0.795609 -3 -1.55874 -2.683901 -2.12132 -2.12132 
C -2.683901 -1.55874 -3 -0.795609 -3 0 
C -3 0.795609 -2.683901 1.55874 -2.12132 2.12132 
C -1.55874 2.683901 -0.795609 3 0 3 
z
" style="stroke: #8c564b; stroke-opacity: 0.85"/>
    </defs>
    <g clip-path="url(#p8ef287f89b)">
     <use xlink:href="#me9af6d9d03" x="90.421321" y="505.215483" style="fill: #8c564b; fill-opacity: 0.85; stroke: #8c564b; stroke-opacity: 0.85"/>
     <use xlink:href="#me9af6d9d03" x="109.927106" y="505.215483" style="fill: #8c564b; fill-opacity: 0.85; stroke: #8c564b; stroke-opacity: 0.85"/>
     <use xlink:href="#me9af6d9d03" x="129.432891" y="500.62218" style="fill: #8c564b; fill-opacity: 0.85; stroke: #8c564b; stroke-opacity: 0.85"/>
     <use xlink:href="#me9af6d9d03" x="148.938676" y="496.028877" style="fill: #8c564b; fill-opacity: 0.85; stroke: #8c564b; stroke-opacity: 0.85"/>
     <use xlink:href="#me9af6d9d03" x="168.444462" y="491.435575" style="fill: #8c564b; fill-opacity: 0.85; stroke: #8c564b; stroke-opacity: 0.85"/>
     <use xlink:href="#me9af6d9d03" x="187.950247" y="486.842272" style="fill: #8c564b; fill-opacity: 0.85; stroke: #8c564b; stroke-opacity: 0.85"/>
     <use xlink:href="#me9af6d9d03" x="207.456032" y="481.284612" style="fill: #8c564b; fill-opacity: 0.85; stroke: #8c564b; stroke-opacity: 0.85"/>
     <use xlink:href="#me9af6d9d03" x="226.961817" y="475.726953" style="fill: #8c564b; fill-opacity: 0.85; stroke: #8c564b; stroke-opacity: 0.85"/>
     <use xlink:href="#me9af6d9d03" x="246.467602" y="470.169294" style="fill: #8c564b; fill-opacity: 0.85; stroke: #8c564b; stroke-opacity: 0.85"/>
     <use xlink:href="#me9af6d9d03" x="265.973387" y="464.611634" style="fill: #8c564b; fill-opacity: 0.85; stroke: #8c564b; stroke-opacity: 0.85"/>
     <use xlink:href="#me9af6d9d03" x="285.479172" y="459.053975" style="fill: #8c564b; fill-opacity: 0.85; stroke: #8c564b; stroke-opacity: 0.85"/>
     <use xlink:href="#me9af6d9d03" x="304.984957" y="454.386882" style="fill: #8c564b; fill-opacity: 0.85; stroke: #8c564b; stroke-opacity: 0.85"/>
     <use xlink:href="#me9af6d9d03" x="324.490743" y="446.863615" style="fill: #8c564b; fill-opacity: 0.85; stroke: #8c564b; stroke-opacity: 0.85"/>
     <use xlink:href="#me9af6d9d03" x="343.996528" y="439.340348" style="fill: #8c564b; fill-opacity: 0.85; stroke: #8c564b; stroke-opacity: 0.85"/>
     <use xlink:href="#me9af6d9d03" x="363.502313" y="431.817081" style="fill: #8c564b; fill-opacity: 0.85; stroke: #8c564b; stroke-opacity: 0.85"/>
     <use xlink:href="#me9af6d9d03" x="383.008098" y="437.647907" style="fill: #8c564b; fill-opacity: 0.85; stroke: #8c564b; stroke-opacity: 0.85"/>
     <use xlink:href="#me9af6d9d03" x="402.513883" y="431.262641" style="fill: #8c564b; fill-opacity: 0.85; stroke: #8c564b; stroke-opacity: 0.85"/>
     <use xlink:href="#me9af6d9d03" x="422.019668" y="424.877375" style="fill: #8c564b; fill-opacity: 0.85; stroke: #8c564b; stroke-opacity: 0.85"/>
     <use xlink:href="#me9af6d9d03" x="441.525453" y="418.492109" style="fill: #8c564b; fill-opacity: 0.85; stroke: #8c564b; stroke-opacity: 0.85"/>
     <use xlink:href="#me9af6d9d03" x="461.031238" y="412.036099" style="fill: #8c564b; fill-opacity: 0.85; stroke: #8c564b; stroke-opacity: 0.85"/>
     <use xlink:href="#me9af6d9d03" x="480.537024" y="405.580089" style="fill: #8c564b; fill-opacity: 0.85; stroke: #8c564b; stroke-opacity: 0.85"/>
     <use xlink:href="#me9af6d9d03" x="500.042809" y="434.306163" style="fill: #8c564b; fill-opacity: 0.85; stroke: #8c564b; stroke-opacity: 0.85"/>
     <use xlink:href="#me9af6d9d03" x="519.548594" y="430.053043" style="fill: #8c564b; fill-opacity: 0.85; stroke: #8c564b; stroke-opacity: 0.85"/>
     <use xlink:href="#me9af6d9d03" x="539.054379" y="425.799924" style="fill: #8c564b; fill-opacity: 0.85; stroke: #8c564b; stroke-opacity: 0.85"/>
     <use xlink:href="#me9af6d9d03" x="558.560164" y="421.546805" style="fill: #8c564b; fill-opacity: 0.85; stroke: #8c564b; stroke-opacity: 0.85"/>
     <use xlink:href="#me9af6d9d03" x="578.065949" y="417.293685" style="fill: #8c564b; fill-opacity: 0.85; stroke: #8c564b; stroke-opacity: 0.85"/>
     <use xlink:href="#me9af6d9d03" x="597.571734" y="408.968948" style="fill: #8c564b; fill-opacity: 0.85; stroke: #8c564b; stroke-opacity: 0.85"/>
     <use xlink:href="#me9af6d9d03" x="617.077519" y="405.00841" style="fill: #8c564b; fill-opacity: 0.85; stroke: #8c564b; stroke-opacity: 0.85"/>
     <use xlink:href="#me9af6d9d03" x="636.583304" y="398.404794" style="fill: #8c564b; fill-opacity: 0.85; stroke: #8c564b; stroke-opacity: 0.85"/>
     <use xlink:href="#me9af6d9d03" x="656.08909" y="392.090336" style="fill: #8c564b; fill-opacity: 0.85; stroke: #8c564b; stroke-opacity: 0.85"/>
     <use xlink:href="#me9af6d9d03" x="675.594875" y="385.317872" style="fill: #8c564b; fill-opacity: 0.85; stroke: #8c564b; stroke-opacity: 0.85"/>
     <use xlink:href="#me9af6d9d03" x="695.10066" y="378.403515" style="fill: #8c564b; fill-opacity: 0.85; stroke: #8c564b; stroke-opacity: 0.85"/>
     <use xlink:href="#me9af6d9d03" x="714.606445" y="374.891371" style="fill: #8c564b; fill-opacity: 0.85; stroke: #8c564b; stroke-opacity: 0.85"/>
     <use xlink:href="#me9af6d9d03" x="734.11223" y="367.659248" style="fill: #8c564b; fill-opacity: 0.85; stroke: #8c564b; stroke-opacity: 0.85"/>
     <use xlink:href="#me9af6d9d03" x="753.618015" y="360.493922" style="fill: #8c564b; fill-opacity: 0.85; stroke: #8c564b; stroke-opacity: 0.85"/>
     <use xlink:href="#me9af6d9d03" x="773.1238" y="351.407048" style="fill: #8c564b; fill-opacity: 0.85; stroke: #8c564b; stroke-opacity: 0.85"/>
     <use xlink:href="#me9af6d9d03" x="792.629585" y="338.64236" style="fill: #8c564b; fill-opacity: 0.85; stroke: #8c564b; stroke-opacity: 0.85"/>
     <use xlink:href="#me9af6d9d03" x="812.135371" y="336.006435" style="fill: #8c564b; fill-opacity: 0.85; stroke: #8c564b; stroke-opacity: 0.85"/>
     <use xlink:href="#me9af6d9d03" x="831.641156" y="331.765396" style="fill: #8c564b; fill-opacity: 0.85; stroke: #8c564b; stroke-opacity: 0.85"/>
     <use xlink:href="#me9af6d9d03" x="851.146941" y="324.015726" style="fill: #8c564b; fill-opacity: 0.85; stroke: #8c564b; stroke-opacity: 0.85"/>
     <use xlink:href="#me9af6d9d03" x="870.652726" y="321.555272" style="fill: #8c564b; fill-opacity: 0.85; stroke: #8c564b; stroke-opacity: 0.85"/>
     <use xlink:href="#me9af6d9d03" x="890.158511" y="317.525904" style="fill: #8c564b; fill-opacity: 0.85; stroke: #8c564b; stroke-opacity: 0.85"/>
     <use xlink:href="#me9af6d9d03" x="909.664296" y="310.000112" style="fill: #8c564b; fill-opacity: 0.85; stroke: #8c564b; stroke-opacity: 0.85"/>
     <use xlink:href="#me9af6d9d03" x="929.170081" y="304.303666" style="fill: #8c564b; fill-opacity: 0.85; stroke: #8c564b; stroke-opacity: 0.85"/>
     <use xlink:href="#me9af6d9d03" x="948.675866" y="304.303666" style="fill: #8c564b; fill-opacity: 0.85; stroke: #8c564b; stroke-opacity: 0.85"/>
    </g>
   </g>
   <g id="line2d_19">
    <path d="M 90.421321 470.31949 
L 109.927106 463.416922 
L 129.432891 471.707075 
L 148.938676 476.162069 
L 168.444462 482.24007 
L 187.950247 480.21591 
L 207.456032 487.839606 
L 226.961817 485.58528 
L 246.467602 491.236256 
L 265.973387 487.460841 
L 285.479172 467.473424 
L 304.984957 467.656499 
L 324.490743 464.959543 
L 343.996528 461.248258 
L 363.502313 461.169371 
L 383.008098 454.343058 
L 402.513883 450.395733 
L 422.019668 446.004977 
L 441.525453 441.50241 
L 461.031238 436.250575 
L 480.537024 423.093306 
L 500.042809 429.408095 
L 519.548594 425.413691 
L 539.054379 426.593557 
L 558.560164 425.404769 
L 578.065949 419.83798 
L 597.571734 414.695286 
L 617.077519 409.527769 
L 636.583304 411.018056 
L 656.08909 393.671896 
L 675.594875 388.689296 
L 695.10066 386.492035 
L 714.606445 379.459289 
L 734.11223 378.558442 
L 753.618015 381.2892 
L 773.1238 378.946142 
L 792.629585 378.615102 
L 812.135371 375.400617 
L 831.641156 367.234195 
L 851.146941 360.965914 
L 870.652726 358.640064 
L 890.158511 361.049796 
L 909.664296 355.457254 
L 929.170081 353.507531 
L 948.675866 352.822178 
" clip-path="url(#p8ef287f89b)" style="fill: none; stroke: #e377c2; stroke-opacity: 0.85; stroke-width: 3; stroke-linecap: round"/>
    <defs>
     <path id="ma83c5db043" d="M 0 3 
C 0.795609 3 1.55874 2.683901 2.12132 2.12132 
C 2.683901 1.55874 3 0.795609 3 0 
C 3 -0.795609 2.683901 -1.55874 2.12132 -2.12132 
C 1.55874 -2.683901 0.795609 -3 0 -3 
C -0.795609 -3 -1.55874 -2.683901 -2.12132 -2.12132 
C -2.683901 -1.55874 -3 -0.795609 -3 0 
C -3 0.795609 -2.683901 1.55874 -2.12132 2.12132 
C -1.55874 2.683901 -0.795609 3 0 3 
z
" style="stroke: #e377c2; stroke-opacity: 0.85"/>
    </defs>
    <g clip-path="url(#p8ef287f89b)">
     <use xlink:href="#ma83c5db043" x="90.421321" y="470.31949" style="fill: #e377c2; fill-opacity: 0.85; stroke: #e377c2; stroke-opacity: 0.85"/>
     <use xlink:href="#ma83c5db043" x="109.927106" y="463.416922" style="fill: #e377c2; fill-opacity: 0.85; stroke: #e377c2; stroke-opacity: 0.85"/>
     <use xlink:href="#ma83c5db043" x="129.432891" y="471.707075" style="fill: #e377c2; fill-opacity: 0.85; stroke: #e377c2; stroke-opacity: 0.85"/>
     <use xlink:href="#ma83c5db043" x="148.938676" y="476.162069" style="fill: #e377c2; fill-opacity: 0.85; stroke: #e377c2; stroke-opacity: 0.85"/>
     <use xlink:href="#ma83c5db043" x="168.444462" y="482.24007" style="fill: #e377c2; fill-opacity: 0.85; stroke: #e377c2; stroke-opacity: 0.85"/>
     <use xlink:href="#ma83c5db043" x="187.950247" y="480.21591" style="fill: #e377c2; fill-opacity: 0.85; stroke: #e377c2; stroke-opacity: 0.85"/>
     <use xlink:href="#ma83c5db043" x="207.456032" y="487.839606" style="fill: #e377c2; fill-opacity: 0.85; stroke: #e377c2; stroke-opacity: 0.85"/>
     <use xlink:href="#ma83c5db043" x="226.961817" y="485.58528" style="fill: #e377c2; fill-opacity: 0.85; stroke: #e377c2; stroke-opacity: 0.85"/>
     <use xlink:href="#ma83c5db043" x="246.467602" y="491.236256" style="fill: #e377c2; fill-opacity: 0.85; stroke: #e377c2; stroke-opacity: 0.85"/>
     <use xlink:href="#ma83c5db043" x="265.973387" y="487.460841" style="fill: #e377c2; fill-opacity: 0.85; stroke: #e377c2; stroke-opacity: 0.85"/>
     <use xlink:href="#ma83c5db043" x="285.479172" y="467.473424" style="fill: #e377c2; fill-opacity: 0.85; stroke: #e377c2; stroke-opacity: 0.85"/>
     <use xlink:href="#ma83c5db043" x="304.984957" y="467.656499" style="fill: #e377c2; fill-opacity: 0.85; stroke: #e377c2; stroke-opacity: 0.85"/>
     <use xlink:href="#ma83c5db043" x="324.490743" y="464.959543" style="fill: #e377c2; fill-opacity: 0.85; stroke: #e377c2; stroke-opacity: 0.85"/>
     <use xlink:href="#ma83c5db043" x="343.996528" y="461.248258" style="fill: #e377c2; fill-opacity: 0.85; stroke: #e377c2; stroke-opacity: 0.85"/>
     <use xlink:href="#ma83c5db043" x="363.502313" y="461.169371" style="fill: #e377c2; fill-opacity: 0.85; stroke: #e377c2; stroke-opacity: 0.85"/>
     <use xlink:href="#ma83c5db043" x="383.008098" y="454.343058" style="fill: #e377c2; fill-opacity: 0.85; stroke: #e377c2; stroke-opacity: 0.85"/>
     <use xlink:href="#ma83c5db043" x="402.513883" y="450.395733" style="fill: #e377c2; fill-opacity: 0.85; stroke: #e377c2; stroke-opacity: 0.85"/>
     <use xlink:href="#ma83c5db043" x="422.019668" y="446.004977" style="fill: #e377c2; fill-opacity: 0.85; stroke: #e377c2; stroke-opacity: 0.85"/>
     <use xlink:href="#ma83c5db043" x="441.525453" y="441.50241" style="fill: #e377c2; fill-opacity: 0.85; stroke: #e377c2; stroke-opacity: 0.85"/>
     <use xlink:href="#ma83c5db043" x="461.031238" y="436.250575" style="fill: #e377c2; fill-opacity: 0.85; stroke: #e377c2; stroke-opacity: 0.85"/>
     <use xlink:href="#ma83c5db043" x="480.537024" y="423.093306" style="fill: #e377c2; fill-opacity: 0.85; stroke: #e377c2; stroke-opacity: 0.85"/>
     <use xlink:href="#ma83c5db043" x="500.042809" y="429.408095" style="fill: #e377c2; fill-opacity: 0.85; stroke: #e377c2; stroke-opacity: 0.85"/>
     <use xlink:href="#ma83c5db043" x="519.548594" y="425.413691" style="fill: #e377c2; fill-opacity: 0.85; stroke: #e377c2; stroke-opacity: 0.85"/>
     <use xlink:href="#ma83c5db043" x="539.054379" y="426.593557" style="fill: #e377c2; fill-opacity: 0.85; stroke: #e377c2; stroke-opacity: 0.85"/>
     <use xlink:href="#ma83c5db043" x="558.560164" y="425.404769" style="fill: #e377c2; fill-opacity: 0.85; stroke: #e377c2; stroke-opacity: 0.85"/>
     <use xlink:href="#ma83c5db043" x="578.065949" y="419.83798" style="fill: #e377c2; fill-opacity: 0.85; stroke: #e377c2; stroke-opacity: 0.85"/>
     <use xlink:href="#ma83c5db043" x="597.571734" y="414.695286" style="fill: #e377c2; fill-opacity: 0.85; stroke: #e377c2; stroke-opacity: 0.85"/>
     <use xlink:href="#ma83c5db043" x="617.077519" y="409.527769" style="fill: #e377c2; fill-opacity: 0.85; stroke: #e377c2; stroke-opacity: 0.85"/>
     <use xlink:href="#ma83c5db043" x="636.583304" y="411.018056" style="fill: #e377c2; fill-opacity: 0.85; stroke: #e377c2; stroke-opacity: 0.85"/>
     <use xlink:href="#ma83c5db043" x="656.08909" y="393.671896" style="fill: #e377c2; fill-opacity: 0.85; stroke: #e377c2; stroke-opacity: 0.85"/>
     <use xlink:href="#ma83c5db043" x="675.594875" y="388.689296" style="fill: #e377c2; fill-opacity: 0.85; stroke: #e377c2; stroke-opacity: 0.85"/>
     <use xlink:href="#ma83c5db043" x="695.10066" y="386.492035" style="fill: #e377c2; fill-opacity: 0.85; stroke: #e377c2; stroke-opacity: 0.85"/>
     <use xlink:href="#ma83c5db043" x="714.606445" y="379.459289" style="fill: #e377c2; fill-opacity: 0.85; stroke: #e377c2; stroke-opacity: 0.85"/>
     <use xlink:href="#ma83c5db043" x="734.11223" y="378.558442" style="fill: #e377c2; fill-opacity: 0.85; stroke: #e377c2; stroke-opacity: 0.85"/>
     <use xlink:href="#ma83c5db043" x="753.618015" y="381.2892" style="fill: #e377c2; fill-opacity: 0.85; stroke: #e377c2; stroke-opacity: 0.85"/>
     <use xlink:href="#ma83c5db043" x="773.1238" y="378.946142" style="fill: #e377c2; fill-opacity: 0.85; stroke: #e377c2; stroke-opacity: 0.85"/>
     <use xlink:href="#ma83c5db043" x="792.629585" y="378.615102" style="fill: #e377c2; fill-opacity: 0.85; stroke: #e377c2; stroke-opacity: 0.85"/>
     <use xlink:href="#ma83c5db043" x="812.135371" y="375.400617" style="fill: #e377c2; fill-opacity: 0.85; stroke: #e377c2; stroke-opacity: 0.85"/>
     <use xlink:href="#ma83c5db043" x="831.641156" y="367.234195" style="fill: #e377c2; fill-opacity: 0.85; stroke: #e377c2; stroke-opacity: 0.85"/>
     <use xlink:href="#ma83c5db043" x="851.146941" y="360.965914" style="fill: #e377c2; fill-opacity: 0.85; stroke: #e377c2; stroke-opacity: 0.85"/>
     <use xlink:href="#ma83c5db043" x="870.652726" y="358.640064" style="fill: #e377c2; fill-opacity: 0.85; stroke: #e377c2; stroke-opacity: 0.85"/>
     <use xlink:href="#ma83c5db043" x="890.158511" y="361.049796" style="fill: #e377c2; fill-opacity: 0.85; stroke: #e377c2; stroke-opacity: 0.85"/>
     <use xlink:href="#ma83c5db043" x="909.664296" y="355.457254" style="fill: #e377c2; fill-opacity: 0.85; stroke: #e377c2; stroke-opacity: 0.85"/>
     <use xlink:href="#ma83c5db043" x="929.170081" y="353.507531" style="fill: #e377c2; fill-opacity: 0.85; stroke: #e377c2; stroke-opacity: 0.85"/>
     <use xlink:href="#ma83c5db043" x="948.675866" y="352.822178" style="fill: #e377c2; fill-opacity: 0.85; stroke: #e377c2; stroke-opacity: 0.85"/>
    </g>
   </g>
   <g id="patch_3">
    <path d="M 47.508594 527.500937 
L 47.508594 37.220937 
" style="fill: none; stroke: #cccccc; stroke-width: 0.8; stroke-linejoin: miter; stroke-linecap: square"/>
   </g>
   <g id="patch_4">
    <path d="M 991.588594 527.500937 
L 991.588594 37.220937 
" style="fill: none; stroke: #cccccc; stroke-width: 0.8; stroke-linejoin: miter; stroke-linecap: square"/>
   </g>
   <g id="patch_5">
    <path d="M 47.508594 527.500937 
L 991.588594 527.500937 
" style="fill: none; stroke: #cccccc; stroke-width: 0.8; stroke-linejoin: miter; stroke-linecap: square"/>
   </g>
   <g id="patch_6">
    <path d="M 47.508594 37.220937 
L 991.588594 37.220937 
" style="fill: none; stroke: #cccccc; stroke-width: 0.8; stroke-linejoin: miter; stroke-linecap: square"/>
   </g>
   <g id="text_15">
    <!-- Female Literacy Rate -->
    <g style="fill: #262626" transform="translate(449.519063 17.220937) scale(0.14 -0.14)">
     <defs>
      <path id="Arial-BoldMT-46" d="M 472 0 
L 472 4581 
L 3613 4581 
L 3613 3806 
L 1397 3806 
L 1397 2722 
L 3309 2722 
L 3309 1947 
L 1397 1947 
L 1397 0 
L 472 0 
z
" transform="scale(0.015625)"/>
      <path id="Arial-BoldMT-6d" d="M 394 3319 
L 1203 3319 
L 1203 2866 
Q 1638 3394 2238 3394 
Q 2556 3394 2790 3262 
Q 3025 3131 3175 2866 
Q 3394 3131 3647 3262 
Q 3900 3394 4188 3394 
Q 4553 3394 4806 3245 
Q 5059 3097 5184 2809 
Q 5275 2597 5275 2122 
L 5275 0 
L 4397 0 
L 4397 1897 
Q 4397 2391 4306 2534 
Q 4184 2722 3931 2722 
Q 3747 2722 3584 2609 
Q 3422 2497 3350 2280 
Q 3278 2063 3278 1594 
L 3278 0 
L 2400 0 
L 2400 1819 
Q 2400 2303 2353 2443 
Q 2306 2584 2207 2653 
Q 2109 2722 1941 2722 
Q 1738 2722 1575 2612 
Q 1413 2503 1342 2297 
Q 1272 2091 1272 1613 
L 1272 0 
L 394 0 
L 394 3319 
z
" transform="scale(0.015625)"/>
      <path id="Arial-BoldMT-6c" d="M 459 0 
L 459 4581 
L 1338 4581 
L 1338 0 
L 459 0 
z
" transform="scale(0.015625)"/>
      <path id="Arial-BoldMT-20" transform="scale(0.015625)"/>
      <path id="Arial-BoldMT-4c" d="M 491 0 
L 491 4544 
L 1416 4544 
L 1416 772 
L 3716 772 
L 3716 0 
L 491 0 
z
" transform="scale(0.015625)"/>
      <path id="Arial-BoldMT-69" d="M 459 3769 
L 459 4581 
L 1338 4581 
L 1338 3769 
L 459 3769 
z
M 459 0 
L 459 3319 
L 1338 3319 
L 1338 0 
L 459 0 
z
" transform="scale(0.015625)"/>
      <path id="Arial-BoldMT-74" d="M 1981 3319 
L 1981 2619 
L 1381 2619 
L 1381 1281 
Q 1381 875 1398 808 
Q 1416 741 1477 697 
Q 1538 653 1625 653 
Q 1747 653 1978 738 
L 2053 56 
Q 1747 -75 1359 -75 
Q 1122 -75 931 4 
Q 741 84 652 211 
Q 563 338 528 553 
Q 500 706 500 1172 
L 500 2619 
L 97 2619 
L 97 3319 
L 500 3319 
L 500 3978 
L 1381 4491 
L 1381 3319 
L 1981 3319 
z
" transform="scale(0.015625)"/>
      <path id="Arial-BoldMT-63" d="M 3353 2338 
L 2488 2181 
Q 2444 2441 2289 2572 
Q 2134 2703 1888 2703 
Q 1559 2703 1364 2476 
Q 1169 2250 1169 1719 
Q 1169 1128 1367 884 
Q 1566 641 1900 641 
Q 2150 641 2309 783 
Q 2469 925 2534 1272 
L 3397 1125 
Q 3263 531 2881 228 
Q 2500 -75 1859 -75 
Q 1131 -75 698 384 
Q 266 844 266 1656 
Q 266 2478 700 2936 
Q 1134 3394 1875 3394 
Q 2481 3394 2839 3133 
Q 3197 2872 3353 2338 
z
" transform="scale(0.015625)"/>
      <path id="Arial-BoldMT-79" d="M 44 3319 
L 978 3319 
L 1772 963 
L 2547 3319 
L 3456 3319 
L 2284 125 
L 2075 -453 
Q 1959 -744 1854 -897 
Q 1750 -1050 1614 -1145 
Q 1478 -1241 1279 -1294 
Q 1081 -1347 831 -1347 
Q 578 -1347 334 -1294 
L 256 -606 
Q 463 -647 628 -647 
Q 934 -647 1081 -467 
Q 1228 -288 1306 -9 
L 44 3319 
z
" transform="scale(0.015625)"/>
      <path id="Arial-BoldMT-52" d="M 469 0 
L 469 4581 
L 2416 4581 
Q 3150 4581 3483 4457 
Q 3816 4334 4016 4018 
Q 4216 3703 4216 3297 
Q 4216 2781 3912 2445 
Q 3609 2109 3006 2022 
Q 3306 1847 3501 1637 
Q 3697 1428 4028 894 
L 4588 0 
L 3481 0 
L 2813 997 
Q 2456 1531 2325 1670 
Q 2194 1809 2047 1861 
Q 1900 1913 1581 1913 
L 1394 1913 
L 1394 0 
L 469 0 
z
M 1394 2644 
L 2078 2644 
Q 2744 2644 2909 2700 
Q 3075 2756 3169 2893 
Q 3263 3031 3263 3238 
Q 3263 3469 3139 3611 
Q 3016 3753 2791 3791 
Q 2678 3806 2116 3806 
L 1394 3806 
L 1394 2644 
z
" transform="scale(0.015625)"/>
     </defs>
     <use xlink:href="#Arial-BoldMT-46"/>
     <use xlink:href="#Arial-BoldMT-65" transform="translate(61.083984 0)"/>
     <use xlink:href="#Arial-BoldMT-6d" transform="translate(116.699219 0)"/>
     <use xlink:href="#Arial-BoldMT-61" transform="translate(205.615234 0)"/>
     <use xlink:href="#Arial-BoldMT-6c" transform="translate(261.230469 0)"/>
     <use xlink:href="#Arial-BoldMT-65" transform="translate(289.013672 0)"/>
     <use xlink:href="#Arial-BoldMT-20" transform="translate(344.628906 0)"/>
     <use xlink:href="#Arial-BoldMT-4c" transform="translate(372.412109 0)"/>
     <use xlink:href="#Arial-BoldMT-69" transform="translate(433.496094 0)"/>
     <use xlink:href="#Arial-BoldMT-74" transform="translate(461.279297 0)"/>
     <use xlink:href="#Arial-BoldMT-65" transform="translate(494.580078 0)"/>
     <use xlink:href="#Arial-BoldMT-72" transform="translate(550.195312 0)"/>
     <use xlink:href="#Arial-BoldMT-61" transform="translate(589.111328 0)"/>
     <use xlink:href="#Arial-BoldMT-63" transform="translate(644.726562 0)"/>
     <use xlink:href="#Arial-BoldMT-79" transform="translate(700.341797 0)"/>
     <use xlink:href="#Arial-BoldMT-20" transform="translate(755.957031 0)"/>
     <use xlink:href="#Arial-BoldMT-52" transform="translate(783.740234 0)"/>
     <use xlink:href="#Arial-BoldMT-61" transform="translate(855.957031 0)"/>
     <use xlink:href="#Arial-BoldMT-74" transform="translate(911.572266 0)"/>
     <use xlink:href="#Arial-BoldMT-65" transform="translate(944.873047 0)"/>
    </g>
   </g>
   <g id="legend_1">
    <g id="patch_7">
     <path d="M 833.638594 522.500937 
L 984.588594 522.500937 
Q 986.588594 522.500937 986.588594 520.500937 
L 986.588594 422.361875 
Q 986.588594 420.361875 984.588594 420.361875 
L 833.638594 420.361875 
Q 831.638594 420.361875 831.638594 422.361875 
L 831.638594 520.500937 
Q 831.638594 522.500937 833.638594 522.500937 
z
" style="fill: #ffffff; opacity: 0.9; stroke: #cccccc; stroke-linejoin: miter"/>
    </g>
    <g id="line2d_20">
     <path d="M 835.638594 428.019687 
L 845.638594 428.019687 
L 855.638594 428.019687 
" style="fill: none; stroke: #1f77b4; stroke-opacity: 0.85; stroke-width: 3; stroke-linecap: round"/>
     <g>
      <use xlink:href="#mf00c3c3555" x="845.638594" y="428.019687" style="fill: #1f77b4; fill-opacity: 0.85; stroke: #1f77b4; stroke-opacity: 0.85"/>
     </g>
    </g>
    <g id="text_16">
     <!-- East Asia &amp; Pacific -->
     <g style="fill: #262626" transform="translate(863.638594 431.519687) scale(0.1 -0.1)">
      <defs>
       <path id="ArialMT-45" d="M 506 0 
L 506 4581 
L 3819 4581 
L 3819 4041 
L 1113 4041 
L 1113 2638 
L 3647 2638 
L 3647 2100 
L 1113 2100 
L 1113 541 
L 3925 541 
L 3925 0 
L 506 0 
z
" transform="scale(0.015625)"/>
       <path id="ArialMT-61" d="M 2588 409 
Q 2275 144 1986 34 
Q 1697 -75 1366 -75 
Q 819 -75 525 192 
Q 231 459 231 875 
Q 231 1119 342 1320 
Q 453 1522 633 1644 
Q 813 1766 1038 1828 
Q 1203 1872 1538 1913 
Q 2219 1994 2541 2106 
Q 2544 2222 2544 2253 
Q 2544 2597 2384 2738 
Q 2169 2928 1744 2928 
Q 1347 2928 1158 2789 
Q 969 2650 878 2297 
L 328 2372 
Q 403 2725 575 2942 
Q 747 3159 1072 3276 
Q 1397 3394 1825 3394 
Q 2250 3394 2515 3294 
Q 2781 3194 2906 3042 
Q 3031 2891 3081 2659 
Q 3109 2516 3109 2141 
L 3109 1391 
Q 3109 606 3145 398 
Q 3181 191 3288 0 
L 2700 0 
Q 2613 175 2588 409 
z
M 2541 1666 
Q 2234 1541 1622 1453 
Q 1275 1403 1131 1340 
Q 988 1278 909 1158 
Q 831 1038 831 891 
Q 831 666 1001 516 
Q 1172 366 1500 366 
Q 1825 366 2078 508 
Q 2331 650 2450 897 
Q 2541 1088 2541 1459 
L 2541 1666 
z
" transform="scale(0.015625)"/>
       <path id="ArialMT-73" d="M 197 991 
L 753 1078 
Q 800 744 1014 566 
Q 1228 388 1613 388 
Q 2000 388 2187 545 
Q 2375 703 2375 916 
Q 2375 1106 2209 1216 
Q 2094 1291 1634 1406 
Q 1016 1563 777 1677 
Q 538 1791 414 1992 
Q 291 2194 291 2438 
Q 291 2659 392 2848 
Q 494 3038 669 3163 
Q 800 3259 1026 3326 
Q 1253 3394 1513 3394 
Q 1903 3394 2198 3281 
Q 2494 3169 2634 2976 
Q 2775 2784 2828 2463 
L 2278 2388 
Q 2241 2644 2061 2787 
Q 1881 2931 1553 2931 
Q 1166 2931 1000 2803 
Q 834 2675 834 2503 
Q 834 2394 903 2306 
Q 972 2216 1119 2156 
Q 1203 2125 1616 2013 
Q 2213 1853 2448 1751 
Q 2684 1650 2818 1456 
Q 2953 1263 2953 975 
Q 2953 694 2789 445 
Q 2625 197 2315 61 
Q 2006 -75 1616 -75 
Q 969 -75 630 194 
Q 291 463 197 991 
z
" transform="scale(0.015625)"/>
       <path id="ArialMT-74" d="M 1650 503 
L 1731 6 
Q 1494 -44 1306 -44 
Q 1000 -44 831 53 
Q 663 150 594 308 
Q 525 466 525 972 
L 525 2881 
L 113 2881 
L 113 3319 
L 525 3319 
L 525 4141 
L 1084 4478 
L 1084 3319 
L 1650 3319 
L 1650 2881 
L 1084 2881 
L 1084 941 
Q 1084 700 1114 631 
Q 1144 563 1211 522 
Q 1278 481 1403 481 
Q 1497 481 1650 503 
z
" transform="scale(0.015625)"/>
       <path id="ArialMT-20" transform="scale(0.015625)"/>
       <path id="ArialMT-41" d="M -9 0 
L 1750 4581 
L 2403 4581 
L 4278 0 
L 3588 0 
L 3053 1388 
L 1138 1388 
L 634 0 
L -9 0 
z
M 1313 1881 
L 2866 1881 
L 2388 3150 
Q 2169 3728 2063 4100 
Q 1975 3659 1816 3225 
L 1313 1881 
z
" transform="scale(0.015625)"/>
       <path id="ArialMT-69" d="M 425 3934 
L 425 4581 
L 988 4581 
L 988 3934 
L 425 3934 
z
M 425 0 
L 425 3319 
L 988 3319 
L 988 0 
L 425 0 
z
" transform="scale(0.015625)"/>
       <path id="ArialMT-26" d="M 3041 541 
Q 2763 231 2434 76 
Q 2106 -78 1725 -78 
Q 1022 -78 609 397 
Q 275 784 275 1263 
Q 275 1688 548 2030 
Q 822 2372 1366 2631 
Q 1056 2988 953 3209 
Q 850 3431 850 3638 
Q 850 4050 1173 4354 
Q 1497 4659 1988 4659 
Q 2456 4659 2754 4371 
Q 3053 4084 3053 3681 
Q 3053 3028 2188 2566 
L 3009 1519 
Q 3150 1794 3228 2156 
L 3813 2031 
Q 3663 1431 3406 1044 
Q 3722 625 4122 341 
L 3744 -106 
Q 3403 113 3041 541 
z
M 1897 2928 
Q 2263 3144 2370 3306 
Q 2478 3469 2478 3666 
Q 2478 3900 2329 4048 
Q 2181 4197 1959 4197 
Q 1731 4197 1579 4050 
Q 1428 3903 1428 3691 
Q 1428 3584 1483 3467 
Q 1538 3350 1647 3219 
L 1897 2928 
z
M 2688 984 
L 1656 2263 
Q 1200 1991 1040 1758 
Q 881 1525 881 1297 
Q 881 1019 1103 719 
Q 1325 419 1731 419 
Q 1984 419 2254 576 
Q 2525 734 2688 984 
z
" transform="scale(0.015625)"/>
       <path id="ArialMT-50" d="M 494 0 
L 494 4581 
L 2222 4581 
Q 2678 4581 2919 4538 
Q 3256 4481 3484 4323 
Q 3713 4166 3852 3881 
Q 3991 3597 3991 3256 
Q 3991 2672 3619 2267 
Q 3247 1863 2275 1863 
L 1100 1863 
L 1100 0 
L 494 0 
z
M 1100 2403 
L 2284 2403 
Q 2872 2403 3119 2622 
Q 3366 2841 3366 3238 
Q 3366 3525 3220 3729 
Q 3075 3934 2838 4000 
Q 2684 4041 2272 4041 
L 1100 4041 
L 1100 2403 
z
" transform="scale(0.015625)"/>
       <path id="ArialMT-63" d="M 2588 1216 
L 3141 1144 
Q 3050 572 2676 248 
Q 2303 -75 1759 -75 
Q 1078 -75 664 370 
Q 250 816 250 1647 
Q 250 2184 428 2587 
Q 606 2991 970 3192 
Q 1334 3394 1763 3394 
Q 2303 3394 2647 3120 
Q 2991 2847 3088 2344 
L 2541 2259 
Q 2463 2594 2264 2762 
Q 2066 2931 1784 2931 
Q 1359 2931 1093 2626 
Q 828 2322 828 1663 
Q 828 994 1084 691 
Q 1341 388 1753 388 
Q 2084 388 2306 591 
Q 2528 794 2588 1216 
z
" transform="scale(0.015625)"/>
       <path id="ArialMT-66" d="M 556 0 
L 556 2881 
L 59 2881 
L 59 3319 
L 556 3319 
L 556 3672 
Q 556 4006 616 4169 
Q 697 4388 901 4523 
Q 1106 4659 1475 4659 
Q 1713 4659 2000 4603 
L 1916 4113 
Q 1741 4144 1584 4144 
Q 1328 4144 1222 4034 
Q 1116 3925 1116 3625 
L 1116 3319 
L 1763 3319 
L 1763 2881 
L 1116 2881 
L 1116 0 
L 556 0 
z
" transform="scale(0.015625)"/>
      </defs>
      <use xlink:href="#ArialMT-45"/>
      <use xlink:href="#ArialMT-61" transform="translate(66.699219 0)"/>
      <use xlink:href="#ArialMT-73" transform="translate(122.314453 0)"/>
      <use xlink:href="#ArialMT-74" transform="translate(172.314453 0)"/>
      <use xlink:href="#ArialMT-20" transform="translate(200.097656 0)"/>
      <use xlink:href="#ArialMT-41" transform="translate(222.380859 0)"/>
      <use xlink:href="#ArialMT-73" transform="translate(289.080078 0)"/>
      <use xlink:href="#ArialMT-69" transform="translate(339.080078 0)"/>
      <use xlink:href="#ArialMT-61" transform="translate(361.296875 0)"/>
      <use xlink:href="#ArialMT-20" transform="translate(416.912109 0)"/>
      <use xlink:href="#ArialMT-26" transform="translate(444.695312 0)"/>
      <use xlink:href="#ArialMT-20" transform="translate(511.394531 0)"/>
      <use xlink:href="#ArialMT-50" transform="translate(539.177734 0)"/>
      <use xlink:href="#ArialMT-61" transform="translate(605.876953 0)"/>
      <use xlink:href="#ArialMT-63" transform="translate(661.492188 0)"/>
      <use xlink:href="#ArialMT-69" transform="translate(711.492188 0)"/>
      <use xlink:href="#ArialMT-66" transform="translate(733.708984 0)"/>
      <use xlink:href="#ArialMT-69" transform="translate(761.492188 0)"/>
      <use xlink:href="#ArialMT-63" transform="translate(783.708984 0)"/>
     </g>
    </g>
    <g id="line2d_21">
     <path d="M 835.638594 442.286875 
L 845.638594 442.286875 
L 855.638594 442.286875 
" style="fill: none; stroke: #ff7f0e; stroke-opacity: 0.85; stroke-width: 3; stroke-linecap: round"/>
     <g>
      <use xlink:href="#m12ebed302d" x="845.638594" y="442.286875" style="fill: #ff7f0e; fill-opacity: 0.85; stroke: #ff7f0e; stroke-opacity: 0.85"/>
     </g>
    </g>
    <g id="text_17">
     <!-- Europe &amp; Central Asia -->
     <g style="fill: #262626" transform="translate(863.638594 445.786875) scale(0.1 -0.1)">
      <defs>
       <path id="ArialMT-75" d="M 2597 0 
L 2597 488 
Q 2209 -75 1544 -75 
Q 1250 -75 995 37 
Q 741 150 617 320 
Q 494 491 444 738 
Q 409 903 409 1263 
L 409 3319 
L 972 3319 
L 972 1478 
Q 972 1038 1006 884 
Q 1059 663 1231 536 
Q 1403 409 1656 409 
Q 1909 409 2131 539 
Q 2353 669 2445 892 
Q 2538 1116 2538 1541 
L 2538 3319 
L 3100 3319 
L 3100 0 
L 2597 0 
z
" transform="scale(0.015625)"/>
       <path id="ArialMT-72" d="M 416 0 
L 416 3319 
L 922 3319 
L 922 2816 
Q 1116 3169 1280 3281 
Q 1444 3394 1641 3394 
Q 1925 3394 2219 3213 
L 2025 2691 
Q 1819 2813 1613 2813 
Q 1428 2813 1281 2702 
Q 1134 2591 1072 2394 
Q 978 2094 978 1738 
L 978 0 
L 416 0 
z
" transform="scale(0.015625)"/>
       <path id="ArialMT-6f" d="M 213 1659 
Q 213 2581 725 3025 
Q 1153 3394 1769 3394 
Q 2453 3394 2887 2945 
Q 3322 2497 3322 1706 
Q 3322 1066 3130 698 
Q 2938 331 2570 128 
Q 2203 -75 1769 -75 
Q 1072 -75 642 372 
Q 213 819 213 1659 
z
M 791 1659 
Q 791 1022 1069 705 
Q 1347 388 1769 388 
Q 2188 388 2466 706 
Q 2744 1025 2744 1678 
Q 2744 2294 2464 2611 
Q 2184 2928 1769 2928 
Q 1347 2928 1069 2612 
Q 791 2297 791 1659 
z
" transform="scale(0.015625)"/>
       <path id="ArialMT-70" d="M 422 -1272 
L 422 3319 
L 934 3319 
L 934 2888 
Q 1116 3141 1344 3267 
Q 1572 3394 1897 3394 
Q 2322 3394 2647 3175 
Q 2972 2956 3137 2557 
Q 3303 2159 3303 1684 
Q 3303 1175 3120 767 
Q 2938 359 2589 142 
Q 2241 -75 1856 -75 
Q 1575 -75 1351 44 
Q 1128 163 984 344 
L 984 -1272 
L 422 -1272 
z
M 931 1641 
Q 931 1000 1190 694 
Q 1450 388 1819 388 
Q 2194 388 2461 705 
Q 2728 1022 2728 1688 
Q 2728 2322 2467 2637 
Q 2206 2953 1844 2953 
Q 1484 2953 1207 2617 
Q 931 2281 931 1641 
z
" transform="scale(0.015625)"/>
       <path id="ArialMT-65" d="M 2694 1069 
L 3275 997 
Q 3138 488 2766 206 
Q 2394 -75 1816 -75 
Q 1088 -75 661 373 
Q 234 822 234 1631 
Q 234 2469 665 2931 
Q 1097 3394 1784 3394 
Q 2450 3394 2872 2941 
Q 3294 2488 3294 1666 
Q 3294 1616 3291 1516 
L 816 1516 
Q 847 969 1125 678 
Q 1403 388 1819 388 
Q 2128 388 2347 550 
Q 2566 713 2694 1069 
z
M 847 1978 
L 2700 1978 
Q 2663 2397 2488 2606 
Q 2219 2931 1791 2931 
Q 1403 2931 1139 2672 
Q 875 2413 847 1978 
z
" transform="scale(0.015625)"/>
       <path id="ArialMT-43" d="M 3763 1606 
L 4369 1453 
Q 4178 706 3683 314 
Q 3188 -78 2472 -78 
Q 1731 -78 1267 223 
Q 803 525 561 1097 
Q 319 1669 319 2325 
Q 319 3041 592 3573 
Q 866 4106 1370 4382 
Q 1875 4659 2481 4659 
Q 3169 4659 3637 4309 
Q 4106 3959 4291 3325 
L 3694 3184 
Q 3534 3684 3231 3912 
Q 2928 4141 2469 4141 
Q 1941 4141 1586 3887 
Q 1231 3634 1087 3207 
Q 944 2781 944 2328 
Q 944 1744 1114 1308 
Q 1284 872 1643 656 
Q 2003 441 2422 441 
Q 2931 441 3284 734 
Q 3638 1028 3763 1606 
z
" transform="scale(0.015625)"/>
       <path id="ArialMT-6e" d="M 422 0 
L 422 3319 
L 928 3319 
L 928 2847 
Q 1294 3394 1984 3394 
Q 2284 3394 2536 3286 
Q 2788 3178 2913 3003 
Q 3038 2828 3088 2588 
Q 3119 2431 3119 2041 
L 3119 0 
L 2556 0 
L 2556 2019 
Q 2556 2363 2490 2533 
Q 2425 2703 2258 2804 
Q 2091 2906 1866 2906 
Q 1506 2906 1245 2678 
Q 984 2450 984 1813 
L 984 0 
L 422 0 
z
" transform="scale(0.015625)"/>
       <path id="ArialMT-6c" d="M 409 0 
L 409 4581 
L 972 4581 
L 972 0 
L 409 0 
z
" transform="scale(0.015625)"/>
      </defs>
      <use xlink:href="#ArialMT-45"/>
      <use xlink:href="#ArialMT-75" transform="translate(66.699219 0)"/>
      <use xlink:href="#ArialMT-72" transform="translate(122.314453 0)"/>
      <use xlink:href="#ArialMT-6f" transform="translate(155.615234 0)"/>
      <use xlink:href="#ArialMT-70" transform="translate(211.230469 0)"/>
      <use xlink:href="#ArialMT-65" transform="translate(266.845703 0)"/>
      <use xlink:href="#ArialMT-20" transform="translate(322.460938 0)"/>
      <use xlink:href="#ArialMT-26" transform="translate(350.244141 0)"/>
      <use xlink:href="#ArialMT-20" transform="translate(416.943359 0)"/>
      <use xlink:href="#ArialMT-43" transform="translate(444.726562 0)"/>
      <use xlink:href="#ArialMT-65" transform="translate(516.943359 0)"/>
      <use xlink:href="#ArialMT-6e" transform="translate(572.558594 0)"/>
      <use xlink:href="#ArialMT-74" transform="translate(628.173828 0)"/>
      <use xlink:href="#ArialMT-72" transform="translate(655.957031 0)"/>
      <use xlink:href="#ArialMT-61" transform="translate(689.257812 0)"/>
      <use xlink:href="#ArialMT-6c" transform="translate(744.873047 0)"/>
      <use xlink:href="#ArialMT-20" transform="translate(767.089844 0)"/>
      <use xlink:href="#ArialMT-41" transform="translate(789.373047 0)"/>
      <use xlink:href="#ArialMT-73" transform="translate(856.072266 0)"/>
      <use xlink:href="#ArialMT-69" transform="translate(906.072266 0)"/>
      <use xlink:href="#ArialMT-61" transform="translate(928.289062 0)"/>
     </g>
    </g>
    <g id="line2d_22">
     <path d="M 835.638594 456.432187 
L 845.638594 456.432187 
L 855.638594 456.432187 
" style="fill: none; stroke: #2ca02c; stroke-opacity: 0.85; stroke-width: 3; stroke-linecap: round"/>
     <g>
      <use xlink:href="#mc82fe9ce9f" x="845.638594" y="456.432187" style="fill: #2ca02c; fill-opacity: 0.85; stroke: #2ca02c; stroke-opacity: 0.85"/>
     </g>
    </g>
    <g id="text_18">
     <!-- Latin America &amp; Caribbean -->
     <g style="fill: #262626" transform="translate(863.638594 459.932187) scale(0.1 -0.1)">
      <defs>
       <path id="ArialMT-4c" d="M 469 0 
L 469 4581 
L 1075 4581 
L 1075 541 
L 3331 541 
L 3331 0 
L 469 0 
z
" transform="scale(0.015625)"/>
       <path id="ArialMT-6d" d="M 422 0 
L 422 3319 
L 925 3319 
L 925 2853 
Q 1081 3097 1340 3245 
Q 1600 3394 1931 3394 
Q 2300 3394 2536 3241 
Q 2772 3088 2869 2813 
Q 3263 3394 3894 3394 
Q 4388 3394 4653 3120 
Q 4919 2847 4919 2278 
L 4919 0 
L 4359 0 
L 4359 2091 
Q 4359 2428 4304 2576 
Q 4250 2725 4106 2815 
Q 3963 2906 3769 2906 
Q 3419 2906 3187 2673 
Q 2956 2441 2956 1928 
L 2956 0 
L 2394 0 
L 2394 2156 
Q 2394 2531 2256 2718 
Q 2119 2906 1806 2906 
Q 1569 2906 1367 2781 
Q 1166 2656 1075 2415 
Q 984 2175 984 1722 
L 984 0 
L 422 0 
z
" transform="scale(0.015625)"/>
       <path id="ArialMT-62" d="M 941 0 
L 419 0 
L 419 4581 
L 981 4581 
L 981 2947 
Q 1338 3394 1891 3394 
Q 2197 3394 2470 3270 
Q 2744 3147 2920 2923 
Q 3097 2700 3197 2384 
Q 3297 2069 3297 1709 
Q 3297 856 2875 390 
Q 2453 -75 1863 -75 
Q 1275 -75 941 416 
L 941 0 
z
M 934 1684 
Q 934 1088 1097 822 
Q 1363 388 1816 388 
Q 2184 388 2453 708 
Q 2722 1028 2722 1663 
Q 2722 2313 2464 2622 
Q 2206 2931 1841 2931 
Q 1472 2931 1203 2611 
Q 934 2291 934 1684 
z
" transform="scale(0.015625)"/>
      </defs>
      <use xlink:href="#ArialMT-4c"/>
      <use xlink:href="#ArialMT-61" transform="translate(55.615234 0)"/>
      <use xlink:href="#ArialMT-74" transform="translate(111.230469 0)"/>
      <use xlink:href="#ArialMT-69" transform="translate(139.013672 0)"/>
      <use xlink:href="#ArialMT-6e" transform="translate(161.230469 0)"/>
      <use xlink:href="#ArialMT-20" transform="translate(216.845703 0)"/>
      <use xlink:href="#ArialMT-41" transform="translate(239.128906 0)"/>
      <use xlink:href="#ArialMT-6d" transform="translate(305.828125 0)"/>
      <use xlink:href="#ArialMT-65" transform="translate(389.128906 0)"/>
      <use xlink:href="#ArialMT-72" transform="translate(444.744141 0)"/>
      <use xlink:href="#ArialMT-69" transform="translate(478.044922 0)"/>
      <use xlink:href="#ArialMT-63" transform="translate(500.261719 0)"/>
      <use xlink:href="#ArialMT-61" transform="translate(550.261719 0)"/>
      <use xlink:href="#ArialMT-20" transform="translate(605.876953 0)"/>
      <use xlink:href="#ArialMT-26" transform="translate(633.660156 0)"/>
      <use xlink:href="#ArialMT-20" transform="translate(700.359375 0)"/>
      <use xlink:href="#ArialMT-43" transform="translate(728.142578 0)"/>
      <use xlink:href="#ArialMT-61" transform="translate(800.359375 0)"/>
      <use xlink:href="#ArialMT-72" transform="translate(855.974609 0)"/>
      <use xlink:href="#ArialMT-69" transform="translate(889.275391 0)"/>
      <use xlink:href="#ArialMT-62" transform="translate(911.492188 0)"/>
      <use xlink:href="#ArialMT-62" transform="translate(967.107422 0)"/>
      <use xlink:href="#ArialMT-65" transform="translate(1022.722656 0)"/>
      <use xlink:href="#ArialMT-61" transform="translate(1078.337891 0)"/>
      <use xlink:href="#ArialMT-6e" transform="translate(1133.953125 0)"/>
     </g>
    </g>
    <g id="line2d_23">
     <path d="M 835.638594 470.5775 
L 845.638594 470.5775 
L 855.638594 470.5775 
" style="fill: none; stroke: #d62728; stroke-opacity: 0.85; stroke-width: 3; stroke-linecap: round"/>
     <g>
      <use xlink:href="#m106d5f3649" x="845.638594" y="470.5775" style="fill: #d62728; fill-opacity: 0.85; stroke: #d62728; stroke-opacity: 0.85"/>
     </g>
    </g>
    <g id="text_19">
     <!-- Middle East &amp; North Africa -->
     <g style="fill: #262626" transform="translate(863.638594 474.0775) scale(0.1 -0.1)">
      <defs>
       <path id="ArialMT-4d" d="M 475 0 
L 475 4581 
L 1388 4581 
L 2472 1338 
Q 2622 884 2691 659 
Q 2769 909 2934 1394 
L 4031 4581 
L 4847 4581 
L 4847 0 
L 4263 0 
L 4263 3834 
L 2931 0 
L 2384 0 
L 1059 3900 
L 1059 0 
L 475 0 
z
" transform="scale(0.015625)"/>
       <path id="ArialMT-64" d="M 2575 0 
L 2575 419 
Q 2259 -75 1647 -75 
Q 1250 -75 917 144 
Q 584 363 401 755 
Q 219 1147 219 1656 
Q 219 2153 384 2558 
Q 550 2963 881 3178 
Q 1213 3394 1622 3394 
Q 1922 3394 2156 3267 
Q 2391 3141 2538 2938 
L 2538 4581 
L 3097 4581 
L 3097 0 
L 2575 0 
z
M 797 1656 
Q 797 1019 1065 703 
Q 1334 388 1700 388 
Q 2069 388 2326 689 
Q 2584 991 2584 1609 
Q 2584 2291 2321 2609 
Q 2059 2928 1675 2928 
Q 1300 2928 1048 2622 
Q 797 2316 797 1656 
z
" transform="scale(0.015625)"/>
       <path id="ArialMT-4e" d="M 488 0 
L 488 4581 
L 1109 4581 
L 3516 984 
L 3516 4581 
L 4097 4581 
L 4097 0 
L 3475 0 
L 1069 3600 
L 1069 0 
L 488 0 
z
" transform="scale(0.015625)"/>
       <path id="ArialMT-68" d="M 422 0 
L 422 4581 
L 984 4581 
L 984 2938 
Q 1378 3394 1978 3394 
Q 2347 3394 2619 3248 
Q 2891 3103 3008 2847 
Q 3125 2591 3125 2103 
L 3125 0 
L 2563 0 
L 2563 2103 
Q 2563 2525 2380 2717 
Q 2197 2909 1863 2909 
Q 1613 2909 1392 2779 
Q 1172 2650 1078 2428 
Q 984 2206 984 1816 
L 984 0 
L 422 0 
z
" transform="scale(0.015625)"/>
      </defs>
      <use xlink:href="#ArialMT-4d"/>
      <use xlink:href="#ArialMT-69" transform="translate(83.300781 0)"/>
      <use xlink:href="#ArialMT-64" transform="translate(105.517578 0)"/>
      <use xlink:href="#ArialMT-64" transform="translate(161.132812 0)"/>
      <use xlink:href="#ArialMT-6c" transform="translate(216.748047 0)"/>
      <use xlink:href="#ArialMT-65" transform="translate(238.964844 0)"/>
      <use xlink:href="#ArialMT-20" transform="translate(294.580078 0)"/>
      <use xlink:href="#ArialMT-45" transform="translate(322.363281 0)"/>
      <use xlink:href="#ArialMT-61" transform="translate(389.0625 0)"/>
      <use xlink:href="#ArialMT-73" transform="translate(444.677734 0)"/>
      <use xlink:href="#ArialMT-74" transform="translate(494.677734 0)"/>
      <use xlink:href="#ArialMT-20" transform="translate(522.460938 0)"/>
      <use xlink:href="#ArialMT-26" transform="translate(550.244141 0)"/>
      <use xlink:href="#ArialMT-20" transform="translate(616.943359 0)"/>
      <use xlink:href="#ArialMT-4e" transform="translate(644.726562 0)"/>
      <use xlink:href="#ArialMT-6f" transform="translate(716.943359 0)"/>
      <use xlink:href="#ArialMT-72" transform="translate(772.558594 0)"/>
      <use xlink:href="#ArialMT-74" transform="translate(805.859375 0)"/>
      <use xlink:href="#ArialMT-68" transform="translate(833.642578 0)"/>
      <use xlink:href="#ArialMT-20" transform="translate(889.257812 0)"/>
      <use xlink:href="#ArialMT-41" transform="translate(911.541016 0)"/>
      <use xlink:href="#ArialMT-66" transform="translate(978.240234 0)"/>
      <use xlink:href="#ArialMT-72" transform="translate(1006.023438 0)"/>
      <use xlink:href="#ArialMT-69" transform="translate(1039.324219 0)"/>
      <use xlink:href="#ArialMT-63" transform="translate(1061.541016 0)"/>
      <use xlink:href="#ArialMT-61" transform="translate(1111.541016 0)"/>
     </g>
    </g>
    <g id="line2d_24">
     <path d="M 835.638594 484.722812 
L 845.638594 484.722812 
L 855.638594 484.722812 
" style="fill: none; stroke: #9467bd; stroke-opacity: 0.85; stroke-width: 3; stroke-linecap: round"/>
     <g>
      <use xlink:href="#m269a0953f9" x="845.638594" y="484.722812" style="fill: #9467bd; fill-opacity: 0.85; stroke: #9467bd; stroke-opacity: 0.85"/>
     </g>
    </g>
    <g id="text_20">
     <!-- North America -->
     <g style="fill: #262626" transform="translate(863.638594 488.222812) scale(0.1 -0.1)">
      <use xlink:href="#ArialMT-4e"/>
      <use xlink:href="#ArialMT-6f" transform="translate(72.216797 0)"/>
      <use xlink:href="#ArialMT-72" transform="translate(127.832031 0)"/>
      <use xlink:href="#ArialMT-74" transform="translate(161.132812 0)"/>
      <use xlink:href="#ArialMT-68" transform="translate(188.916016 0)"/>
      <use xlink:href="#ArialMT-20" transform="translate(244.53125 0)"/>
      <use xlink:href="#ArialMT-41" transform="translate(266.814453 0)"/>
      <use xlink:href="#ArialMT-6d" transform="translate(333.513672 0)"/>
      <use xlink:href="#ArialMT-65" transform="translate(416.814453 0)"/>
      <use xlink:href="#ArialMT-72" transform="translate(472.429688 0)"/>
      <use xlink:href="#ArialMT-69" transform="translate(505.730469 0)"/>
      <use xlink:href="#ArialMT-63" transform="translate(527.947266 0)"/>
      <use xlink:href="#ArialMT-61" transform="translate(577.947266 0)"/>
     </g>
    </g>
    <g id="line2d_25">
     <path d="M 835.638594 498.868125 
L 845.638594 498.868125 
L 855.638594 498.868125 
" style="fill: none; stroke: #8c564b; stroke-opacity: 0.85; stroke-width: 3; stroke-linecap: round"/>
     <g>
      <use xlink:href="#me9af6d9d03" x="845.638594" y="498.868125" style="fill: #8c564b; fill-opacity: 0.85; stroke: #8c564b; stroke-opacity: 0.85"/>
     </g>
    </g>
    <g id="text_21">
     <!-- South Asia -->
     <g style="fill: #262626" transform="translate(863.638594 502.368125) scale(0.1 -0.1)">
      <defs>
       <path id="ArialMT-53" d="M 288 1472 
L 859 1522 
Q 900 1178 1048 958 
Q 1197 738 1509 602 
Q 1822 466 2213 466 
Q 2559 466 2825 569 
Q 3091 672 3220 851 
Q 3350 1031 3350 1244 
Q 3350 1459 3225 1620 
Q 3100 1781 2813 1891 
Q 2628 1963 1997 2114 
Q 1366 2266 1113 2400 
Q 784 2572 623 2826 
Q 463 3081 463 3397 
Q 463 3744 659 4045 
Q 856 4347 1234 4503 
Q 1613 4659 2075 4659 
Q 2584 4659 2973 4495 
Q 3363 4331 3572 4012 
Q 3781 3694 3797 3291 
L 3216 3247 
Q 3169 3681 2898 3903 
Q 2628 4125 2100 4125 
Q 1550 4125 1298 3923 
Q 1047 3722 1047 3438 
Q 1047 3191 1225 3031 
Q 1400 2872 2139 2705 
Q 2878 2538 3153 2413 
Q 3553 2228 3743 1945 
Q 3934 1663 3934 1294 
Q 3934 928 3725 604 
Q 3516 281 3123 101 
Q 2731 -78 2241 -78 
Q 1619 -78 1198 103 
Q 778 284 539 648 
Q 300 1013 288 1472 
z
" transform="scale(0.015625)"/>
      </defs>
      <use xlink:href="#ArialMT-53"/>
      <use xlink:href="#ArialMT-6f" transform="translate(66.699219 0)"/>
      <use xlink:href="#ArialMT-75" transform="translate(122.314453 0)"/>
      <use xlink:href="#ArialMT-74" transform="translate(177.929688 0)"/>
      <use xlink:href="#ArialMT-68" transform="translate(205.712891 0)"/>
      <use xlink:href="#ArialMT-20" transform="translate(261.328125 0)"/>
      <use xlink:href="#ArialMT-41" transform="translate(283.611328 0)"/>
      <use xlink:href="#ArialMT-73" transform="translate(350.310547 0)"/>
      <use xlink:href="#ArialMT-69" transform="translate(400.310547 0)"/>
      <use xlink:href="#ArialMT-61" transform="translate(422.527344 0)"/>
     </g>
    </g>
    <g id="line2d_26">
     <path d="M 835.638594 513.013437 
L 845.638594 513.013437 
L 855.638594 513.013437 
" style="fill: none; stroke: #e377c2; stroke-opacity: 0.85; stroke-width: 3; stroke-linecap: round"/>
     <g>
      <use xlink:href="#ma83c5db043" x="845.638594" y="513.013437" style="fill: #e377c2; fill-opacity: 0.85; stroke: #e377c2; stroke-opacity: 0.85"/>
     </g>
    </g>
    <g id="text_22">
     <!-- Sub-Saharan Africa -->
     <g style="fill: #262626" transform="translate(863.638594 516.513437) scale(0.1 -0.1)">
      <defs>
       <path id="ArialMT-2d" d="M 203 1375 
L 203 1941 
L 1931 1941 
L 1931 1375 
L 203 1375 
z
" transform="scale(0.015625)"/>
      </defs>
      <use xlink:href="#ArialMT-53"/>
      <use xlink:href="#ArialMT-75" transform="translate(66.699219 0)"/>
      <use xlink:href="#ArialMT-62" transform="translate(122.314453 0)"/>
      <use xlink:href="#ArialMT-2d" transform="translate(177.929688 0)"/>
      <use xlink:href="#ArialMT-53" transform="translate(211.230469 0)"/>
      <use xlink:href="#ArialMT-61" transform="translate(277.929688 0)"/>
      <use xlink:href="#ArialMT-68" transform="translate(333.544922 0)"/>
      <use xlink:href="#ArialMT-61" transform="translate(389.160156 0)"/>
      <use xlink:href="#ArialMT-72" transform="translate(444.775391 0)"/>
      <use xlink:href="#ArialMT-61" transform="translate(478.076172 0)"/>
      <use xlink:href="#ArialMT-6e" transform="translate(533.691406 0)"/>
      <use xlink:href="#ArialMT-20" transform="translate(589.306641 0)"/>
      <use xlink:href="#ArialMT-41" transform="translate(611.589844 0)"/>
      <use xlink:href="#ArialMT-66" transform="translate(678.289062 0)"/>
      <use xlink:href="#ArialMT-72" transform="translate(706.072266 0)"/>
      <use xlink:href="#ArialMT-69" transform="translate(739.373047 0)"/>
      <use xlink:href="#ArialMT-63" transform="translate(761.589844 0)"/>
      <use xlink:href="#ArialMT-61" transform="translate(811.589844 0)"/>
     </g>
    </g>
   </g>
  </g>
 </g>
 <defs>
  <clipPath id="p8ef287f89b">
   <rect x="47.508594" y="37.220937" width="944.08" height="490.28"/>
  </clipPath>
 </defs>
</svg>
