<?xml version="1.0" encoding="utf-8" standalone="no"?>
<!DOCTYPE svg PUBLIC "-//W3C//DTD SVG 1.1//EN"
  "http://www.w3.org/Graphics/SVG/1.1/DTD/svg11.dtd">
<svg xmlns:xlink="http://www.w3.org/1999/xlink" width="998.916562pt" height="566.888906pt" viewBox="0 0 998.916562 566.888906" xmlns="http://www.w3.org/2000/svg" version="1.1">
 <metadata>
  <rdf:RDF xmlns:dc="http://purl.org/dc/elements/1.1/" xmlns:cc="http://creativecommons.org/ns#" xmlns:rdf="http://www.w3.org/1999/02/22-rdf-syntax-ns#">
   <cc:Work>
    <dc:type rdf:resource="http://purl.org/dc/dcmitype/StillImage"/>
    <dc:date>2025-12-09T22:27:22.389971</dc:date>
    <dc:format>image/svg+xml</dc:format>
    <dc:creator>
     <cc:Agent>
      <dc:title>Matplotlib v3.10.3, https://matplotlib.org/</dc:title>
     </cc:Agent>
    </dc:creator>
   </cc:Work>
  </rdf:RDF>
 </metadata>
 <defs>
  <style type="text/css">*{stroke-linejoin: round; stroke-linecap: butt}</style>
 </defs>
 <g id="figure_1">
  <g id="patch_1">
   <path d="M 0 566.888906 
L 998.916562 566.888906 
L 998.916562 0 
L 0 0 
z
" style="fill: #ffffff"/>
  </g>
  <g id="axes_1">
   <g id="patch_2">
    <path d="M 56.985313 527.671562 
L 991.716563 527.671562 
L 991.716563 37.391563 
L 56.985313 37.391563 
z
" style="fill: #ffffff"/>
   </g>
   <g id="matplotlib.axis_1">
    <g id="xtick_1">
     <g id="line2d_1">
      <path d="M 99.473097 527.671562 
L 99.473097 37.391563 
" clip-path="url(#p226154686d)" style="fill: none; stroke: #cccccc; stroke-opacity: 0.3; stroke-width: 0.8; stroke-linecap: round"/>
     </g>
     <g id="text_1">
      <!-- 1980 -->
      <g style="fill: #262626" transform="translate(87.239034 542.545156) scale(0.11 -0.11)">
       <defs>
        <path id="ArialMT-31" d="M 2384 0 
L 1822 0 
L 1822 3584 
Q 1619 3391 1289 3197 
Q 959 3003 697 2906 
L 697 3450 
Q 1169 3672 1522 3987 
Q 1875 4303 2022 4600 
L 2384 4600 
L 2384 0 
z
" transform="scale(0.015625)"/>
        <path id="ArialMT-39" d="M 350 1059 
L 891 1109 
Q 959 728 1153 556 
Q 1347 384 1650 384 
Q 1909 384 2104 503 
Q 2300 622 2425 820 
Q 2550 1019 2634 1356 
Q 2719 1694 2719 2044 
Q 2719 2081 2716 2156 
Q 2547 1888 2255 1720 
Q 1963 1553 1622 1553 
Q 1053 1553 659 1965 
Q 266 2378 266 3053 
Q 266 3750 677 4175 
Q 1088 4600 1706 4600 
Q 2153 4600 2523 4359 
Q 2894 4119 3086 3673 
Q 3278 3228 3278 2384 
Q 3278 1506 3087 986 
Q 2897 466 2520 194 
Q 2144 -78 1638 -78 
Q 1100 -78 759 220 
Q 419 519 350 1059 
z
M 2653 3081 
Q 2653 3566 2395 3850 
Q 2138 4134 1775 4134 
Q 1400 4134 1122 3828 
Q 844 3522 844 3034 
Q 844 2597 1108 2323 
Q 1372 2050 1759 2050 
Q 2150 2050 2401 2323 
Q 2653 2597 2653 3081 
z
" transform="scale(0.015625)"/>
        <path id="ArialMT-38" d="M 1131 2484 
Q 781 2613 612 2850 
Q 444 3088 444 3419 
Q 444 3919 803 4259 
Q 1163 4600 1759 4600 
Q 2359 4600 2725 4251 
Q 3091 3903 3091 3403 
Q 3091 3084 2923 2848 
Q 2756 2613 2416 2484 
Q 2838 2347 3058 2040 
Q 3278 1734 3278 1309 
Q 3278 722 2862 322 
Q 2447 -78 1769 -78 
Q 1091 -78 675 323 
Q 259 725 259 1325 
Q 259 1772 486 2073 
Q 713 2375 1131 2484 
z
M 1019 3438 
Q 1019 3113 1228 2906 
Q 1438 2700 1772 2700 
Q 2097 2700 2305 2904 
Q 2513 3109 2513 3406 
Q 2513 3716 2298 3927 
Q 2084 4138 1766 4138 
Q 1444 4138 1231 3931 
Q 1019 3725 1019 3438 
z
M 838 1322 
Q 838 1081 952 856 
Q 1066 631 1291 507 
Q 1516 384 1775 384 
Q 2178 384 2440 643 
Q 2703 903 2703 1303 
Q 2703 1709 2433 1975 
Q 2163 2241 1756 2241 
Q 1359 2241 1098 1978 
Q 838 1716 838 1322 
z
" transform="scale(0.015625)"/>
        <path id="ArialMT-30" d="M 266 2259 
Q 266 3072 433 3567 
Q 600 4063 929 4331 
Q 1259 4600 1759 4600 
Q 2128 4600 2406 4451 
Q 2684 4303 2865 4023 
Q 3047 3744 3150 3342 
Q 3253 2941 3253 2259 
Q 3253 1453 3087 958 
Q 2922 463 2592 192 
Q 2263 -78 1759 -78 
Q 1097 -78 719 397 
Q 266 969 266 2259 
z
M 844 2259 
Q 844 1131 1108 757 
Q 1372 384 1759 384 
Q 2147 384 2411 759 
Q 2675 1134 2675 2259 
Q 2675 3391 2411 3762 
Q 2147 4134 1753 4134 
Q 1366 4134 1134 3806 
Q 844 3388 844 2259 
z
" transform="scale(0.015625)"/>
       </defs>
       <use xlink:href="#ArialMT-31"/>
       <use xlink:href="#ArialMT-39" transform="translate(55.615234 0)"/>
       <use xlink:href="#ArialMT-38" transform="translate(111.230469 0)"/>
       <use xlink:href="#ArialMT-30" transform="translate(166.845703 0)"/>
      </g>
     </g>
    </g>
    <g id="xtick_2">
     <g id="line2d_2">
      <path d="M 292.599388 527.671562 
L 292.599388 37.391563 
" clip-path="url(#p226154686d)" style="fill: none; stroke: #cccccc; stroke-opacity: 0.3; stroke-width: 0.8; stroke-linecap: round"/>
     </g>
     <g id="text_2">
      <!-- 1990 -->
      <g style="fill: #262626" transform="translate(280.365325 542.545156) scale(0.11 -0.11)">
       <use xlink:href="#ArialMT-31"/>
       <use xlink:href="#ArialMT-39" transform="translate(55.615234 0)"/>
       <use xlink:href="#ArialMT-39" transform="translate(111.230469 0)"/>
       <use xlink:href="#ArialMT-30" transform="translate(166.845703 0)"/>
      </g>
     </g>
    </g>
    <g id="xtick_3">
     <g id="line2d_3">
      <path d="M 485.725679 527.671562 
L 485.725679 37.391563 
" clip-path="url(#p226154686d)" style="fill: none; stroke: #cccccc; stroke-opacity: 0.3; stroke-width: 0.8; stroke-linecap: round"/>
     </g>
     <g id="text_3">
      <!-- 2000 -->
      <g style="fill: #262626" transform="translate(473.491617 542.545156) scale(0.11 -0.11)">
       <defs>
        <path id="ArialMT-32" d="M 3222 541 
L 3222 0 
L 194 0 
Q 188 203 259 391 
Q 375 700 629 1000 
Q 884 1300 1366 1694 
Q 2113 2306 2375 2664 
Q 2638 3022 2638 3341 
Q 2638 3675 2398 3904 
Q 2159 4134 1775 4134 
Q 1369 4134 1125 3890 
Q 881 3647 878 3216 
L 300 3275 
Q 359 3922 746 4261 
Q 1134 4600 1788 4600 
Q 2447 4600 2831 4234 
Q 3216 3869 3216 3328 
Q 3216 3053 3103 2787 
Q 2991 2522 2730 2228 
Q 2469 1934 1863 1422 
Q 1356 997 1212 845 
Q 1069 694 975 541 
L 3222 541 
z
" transform="scale(0.015625)"/>
       </defs>
       <use xlink:href="#ArialMT-32"/>
       <use xlink:href="#ArialMT-30" transform="translate(55.615234 0)"/>
       <use xlink:href="#ArialMT-30" transform="translate(111.230469 0)"/>
       <use xlink:href="#ArialMT-30" transform="translate(166.845703 0)"/>
      </g>
     </g>
    </g>
    <g id="xtick_4">
     <g id="line2d_4">
      <path d="M 678.851971 527.671562 
L 678.851971 37.391563 
" clip-path="url(#p226154686d)" style="fill: none; stroke: #cccccc; stroke-opacity: 0.3; stroke-width: 0.8; stroke-linecap: round"/>
     </g>
     <g id="text_4">
      <!-- 2010 -->
      <g style="fill: #262626" transform="translate(666.617908 542.545156) scale(0.11 -0.11)">
       <use xlink:href="#ArialMT-32"/>
       <use xlink:href="#ArialMT-30" transform="translate(55.615234 0)"/>
       <use xlink:href="#ArialMT-31" transform="translate(111.230469 0)"/>
       <use xlink:href="#ArialMT-30" transform="translate(166.845703 0)"/>
      </g>
     </g>
    </g>
    <g id="xtick_5">
     <g id="line2d_5">
      <path d="M 871.978262 527.671562 
L 871.978262 37.391563 
" clip-path="url(#p226154686d)" style="fill: none; stroke: #cccccc; stroke-opacity: 0.3; stroke-width: 0.8; stroke-linecap: round"/>
     </g>
     <g id="text_5">
      <!-- 2020 -->
      <g style="fill: #262626" transform="translate(859.744199 542.545156) scale(0.11 -0.11)">
       <use xlink:href="#ArialMT-32"/>
       <use xlink:href="#ArialMT-30" transform="translate(55.615234 0)"/>
       <use xlink:href="#ArialMT-32" transform="translate(111.230469 0)"/>
       <use xlink:href="#ArialMT-30" transform="translate(166.845703 0)"/>
      </g>
     </g>
    </g>
    <g id="text_6">
     <!-- Year -->
     <g style="fill: #262626" transform="translate(511.670312 557.320781) scale(0.12 -0.12)">
      <defs>
       <path id="Arial-BoldMT-59" d="M 1669 0 
L 1669 1928 
L -9 4581 
L 1075 4581 
L 2153 2769 
L 3209 4581 
L 4275 4581 
L 2591 1922 
L 2591 0 
L 1669 0 
z
" transform="scale(0.015625)"/>
       <path id="Arial-BoldMT-65" d="M 2381 1056 
L 3256 909 
Q 3088 428 2723 176 
Q 2359 -75 1813 -75 
Q 947 -75 531 491 
Q 203 944 203 1634 
Q 203 2459 634 2926 
Q 1066 3394 1725 3394 
Q 2466 3394 2894 2905 
Q 3322 2416 3303 1406 
L 1103 1406 
Q 1113 1016 1316 798 
Q 1519 581 1822 581 
Q 2028 581 2168 693 
Q 2309 806 2381 1056 
z
M 2431 1944 
Q 2422 2325 2234 2523 
Q 2047 2722 1778 2722 
Q 1491 2722 1303 2513 
Q 1116 2303 1119 1944 
L 2431 1944 
z
" transform="scale(0.015625)"/>
       <path id="Arial-BoldMT-61" d="M 1116 2306 
L 319 2450 
Q 453 2931 781 3162 
Q 1109 3394 1756 3394 
Q 2344 3394 2631 3255 
Q 2919 3116 3036 2902 
Q 3153 2688 3153 2116 
L 3144 1091 
Q 3144 653 3186 445 
Q 3228 238 3344 0 
L 2475 0 
Q 2441 88 2391 259 
Q 2369 338 2359 363 
Q 2134 144 1878 34 
Q 1622 -75 1331 -75 
Q 819 -75 523 203 
Q 228 481 228 906 
Q 228 1188 362 1408 
Q 497 1628 739 1745 
Q 981 1863 1438 1950 
Q 2053 2066 2291 2166 
L 2291 2253 
Q 2291 2506 2166 2614 
Q 2041 2722 1694 2722 
Q 1459 2722 1328 2630 
Q 1197 2538 1116 2306 
z
M 2291 1594 
Q 2122 1538 1756 1459 
Q 1391 1381 1278 1306 
Q 1106 1184 1106 997 
Q 1106 813 1243 678 
Q 1381 544 1594 544 
Q 1831 544 2047 700 
Q 2206 819 2256 991 
Q 2291 1103 2291 1419 
L 2291 1594 
z
" transform="scale(0.015625)"/>
       <path id="Arial-BoldMT-72" d="M 1300 0 
L 422 0 
L 422 3319 
L 1238 3319 
L 1238 2847 
Q 1447 3181 1614 3287 
Q 1781 3394 1994 3394 
Q 2294 3394 2572 3228 
L 2300 2463 
Q 2078 2606 1888 2606 
Q 1703 2606 1575 2504 
Q 1447 2403 1373 2137 
Q 1300 1872 1300 1025 
L 1300 0 
z
" transform="scale(0.015625)"/>
      </defs>
      <use xlink:href="#Arial-BoldMT-59"/>
      <use xlink:href="#Arial-BoldMT-65" transform="translate(61.199219 0)"/>
      <use xlink:href="#Arial-BoldMT-61" transform="translate(116.814453 0)"/>
      <use xlink:href="#Arial-BoldMT-72" transform="translate(172.429688 0)"/>
     </g>
    </g>
   </g>
   <g id="matplotlib.axis_2">
    <g id="ytick_1">
     <g id="line2d_6">
      <path d="M 56.985313 509.588909 
L 991.716563 509.588909 
" clip-path="url(#p226154686d)" style="fill: none; stroke: #cccccc; stroke-opacity: 0.3; stroke-width: 0.8; stroke-linecap: round"/>
     </g>
     <g id="text_7">
      <!-- 0.825 -->
      <g style="fill: #262626" transform="translate(22.46125 513.525706) scale(0.11 -0.11)">
       <defs>
        <path id="ArialMT-2e" d="M 581 0 
L 581 641 
L 1222 641 
L 1222 0 
L 581 0 
z
" transform="scale(0.015625)"/>
        <path id="ArialMT-35" d="M 266 1200 
L 856 1250 
Q 922 819 1161 601 
Q 1400 384 1738 384 
Q 2144 384 2425 690 
Q 2706 997 2706 1503 
Q 2706 1984 2436 2262 
Q 2166 2541 1728 2541 
Q 1456 2541 1237 2417 
Q 1019 2294 894 2097 
L 366 2166 
L 809 4519 
L 3088 4519 
L 3088 3981 
L 1259 3981 
L 1013 2750 
Q 1425 3038 1878 3038 
Q 2478 3038 2890 2622 
Q 3303 2206 3303 1553 
Q 3303 931 2941 478 
Q 2500 -78 1738 -78 
Q 1113 -78 717 272 
Q 322 622 266 1200 
z
" transform="scale(0.015625)"/>
       </defs>
       <use xlink:href="#ArialMT-30"/>
       <use xlink:href="#ArialMT-2e" transform="translate(55.615234 0)"/>
       <use xlink:href="#ArialMT-38" transform="translate(83.398438 0)"/>
       <use xlink:href="#ArialMT-32" transform="translate(139.013672 0)"/>
       <use xlink:href="#ArialMT-35" transform="translate(194.628906 0)"/>
      </g>
     </g>
    </g>
    <g id="ytick_2">
     <g id="line2d_7">
      <path d="M 56.985313 445.315782 
L 991.716563 445.315782 
" clip-path="url(#p226154686d)" style="fill: none; stroke: #cccccc; stroke-opacity: 0.3; stroke-width: 0.8; stroke-linecap: round"/>
     </g>
     <g id="text_8">
      <!-- 0.850 -->
      <g style="fill: #262626" transform="translate(22.46125 449.252579) scale(0.11 -0.11)">
       <use xlink:href="#ArialMT-30"/>
       <use xlink:href="#ArialMT-2e" transform="translate(55.615234 0)"/>
       <use xlink:href="#ArialMT-38" transform="translate(83.398438 0)"/>
       <use xlink:href="#ArialMT-35" transform="translate(139.013672 0)"/>
       <use xlink:href="#ArialMT-30" transform="translate(194.628906 0)"/>
      </g>
     </g>
    </g>
    <g id="ytick_3">
     <g id="line2d_8">
      <path d="M 56.985313 381.042654 
L 991.716563 381.042654 
" clip-path="url(#p226154686d)" style="fill: none; stroke: #cccccc; stroke-opacity: 0.3; stroke-width: 0.8; stroke-linecap: round"/>
     </g>
     <g id="text_9">
      <!-- 0.875 -->
      <g style="fill: #262626" transform="translate(22.46125 384.979451) scale(0.11 -0.11)">
       <defs>
        <path id="ArialMT-37" d="M 303 3981 
L 303 4522 
L 3269 4522 
L 3269 4084 
Q 2831 3619 2401 2847 
Q 1972 2075 1738 1259 
Q 1569 684 1522 0 
L 944 0 
Q 953 541 1156 1306 
Q 1359 2072 1739 2783 
Q 2119 3494 2547 3981 
L 303 3981 
z
" transform="scale(0.015625)"/>
       </defs>
       <use xlink:href="#ArialMT-30"/>
       <use xlink:href="#ArialMT-2e" transform="translate(55.615234 0)"/>
       <use xlink:href="#ArialMT-38" transform="translate(83.398438 0)"/>
       <use xlink:href="#ArialMT-37" transform="translate(139.013672 0)"/>
       <use xlink:href="#ArialMT-35" transform="translate(194.628906 0)"/>
      </g>
     </g>
    </g>
    <g id="ytick_4">
     <g id="line2d_9">
      <path d="M 56.985313 316.769527 
L 991.716563 316.769527 
" clip-path="url(#p226154686d)" style="fill: none; stroke: #cccccc; stroke-opacity: 0.3; stroke-width: 0.8; stroke-linecap: round"/>
     </g>
     <g id="text_10">
      <!-- 0.900 -->
      <g style="fill: #262626" transform="translate(22.46125 320.706324) scale(0.11 -0.11)">
       <use xlink:href="#ArialMT-30"/>
       <use xlink:href="#ArialMT-2e" transform="translate(55.615234 0)"/>
       <use xlink:href="#ArialMT-39" transform="translate(83.398438 0)"/>
       <use xlink:href="#ArialMT-30" transform="translate(139.013672 0)"/>
       <use xlink:href="#ArialMT-30" transform="translate(194.628906 0)"/>
      </g>
     </g>
    </g>
    <g id="ytick_5">
     <g id="line2d_10">
      <path d="M 56.985313 252.4964 
L 991.716563 252.4964 
" clip-path="url(#p226154686d)" style="fill: none; stroke: #cccccc; stroke-opacity: 0.3; stroke-width: 0.8; stroke-linecap: round"/>
     </g>
     <g id="text_11">
      <!-- 0.925 -->
      <g style="fill: #262626" transform="translate(22.46125 256.433196) scale(0.11 -0.11)">
       <use xlink:href="#ArialMT-30"/>
       <use xlink:href="#ArialMT-2e" transform="translate(55.615234 0)"/>
       <use xlink:href="#ArialMT-39" transform="translate(83.398438 0)"/>
       <use xlink:href="#ArialMT-32" transform="translate(139.013672 0)"/>
       <use xlink:href="#ArialMT-35" transform="translate(194.628906 0)"/>
      </g>
     </g>
    </g>
    <g id="ytick_6">
     <g id="line2d_11">
      <path d="M 56.985313 188.223272 
L 991.716563 188.223272 
" clip-path="url(#p226154686d)" style="fill: none; stroke: #cccccc; stroke-opacity: 0.3; stroke-width: 0.8; stroke-linecap: round"/>
     </g>
     <g id="text_12">
      <!-- 0.950 -->
      <g style="fill: #262626" transform="translate(22.46125 192.160069) scale(0.11 -0.11)">
       <use xlink:href="#ArialMT-30"/>
       <use xlink:href="#ArialMT-2e" transform="translate(55.615234 0)"/>
       <use xlink:href="#ArialMT-39" transform="translate(83.398438 0)"/>
       <use xlink:href="#ArialMT-35" transform="translate(139.013672 0)"/>
       <use xlink:href="#ArialMT-30" transform="translate(194.628906 0)"/>
      </g>
     </g>
    </g>
    <g id="ytick_7">
     <g id="line2d_12">
      <path d="M 56.985313 123.950145 
L 991.716563 123.950145 
" clip-path="url(#p226154686d)" style="fill: none; stroke: #cccccc; stroke-opacity: 0.3; stroke-width: 0.8; stroke-linecap: round"/>
     </g>
     <g id="text_13">
      <!-- 0.975 -->
      <g style="fill: #262626" transform="translate(22.46125 127.886941) scale(0.11 -0.11)">
       <use xlink:href="#ArialMT-30"/>
       <use xlink:href="#ArialMT-2e" transform="translate(55.615234 0)"/>
       <use xlink:href="#ArialMT-39" transform="translate(83.398438 0)"/>
       <use xlink:href="#ArialMT-37" transform="translate(139.013672 0)"/>
       <use xlink:href="#ArialMT-35" transform="translate(194.628906 0)"/>
      </g>
     </g>
    </g>
    <g id="ytick_8">
     <g id="line2d_13">
      <path d="M 56.985313 59.677017 
L 991.716563 59.677017 
" clip-path="url(#p226154686d)" style="fill: none; stroke: #cccccc; stroke-opacity: 0.3; stroke-width: 0.8; stroke-linecap: round"/>
     </g>
     <g id="text_14">
      <!-- 1.000 -->
      <g style="fill: #262626" transform="translate(22.46125 63.613814) scale(0.11 -0.11)">
       <use xlink:href="#ArialMT-31"/>
       <use xlink:href="#ArialMT-2e" transform="translate(55.615234 0)"/>
       <use xlink:href="#ArialMT-30" transform="translate(83.398438 0)"/>
       <use xlink:href="#ArialMT-30" transform="translate(139.013672 0)"/>
       <use xlink:href="#ArialMT-30" transform="translate(194.628906 0)"/>
      </g>
     </g>
    </g>
    <g id="text_15">
     <!-- Gender Parity Index -->
     <g style="fill: #262626" transform="translate(15.935625 339.214688) rotate(-90) scale(0.12 -0.12)">
      <defs>
       <path id="Arial-BoldMT-47" d="M 2597 1684 
L 2597 2456 
L 4591 2456 
L 4591 631 
Q 4300 350 3748 136 
Q 3197 -78 2631 -78 
Q 1913 -78 1378 223 
Q 844 525 575 1086 
Q 306 1647 306 2306 
Q 306 3022 606 3578 
Q 906 4134 1484 4431 
Q 1925 4659 2581 4659 
Q 3434 4659 3914 4301 
Q 4394 3944 4531 3313 
L 3613 3141 
Q 3516 3478 3248 3673 
Q 2981 3869 2581 3869 
Q 1975 3869 1617 3484 
Q 1259 3100 1259 2344 
Q 1259 1528 1621 1120 
Q 1984 713 2572 713 
Q 2863 713 3155 827 
Q 3447 941 3656 1103 
L 3656 1684 
L 2597 1684 
z
" transform="scale(0.015625)"/>
       <path id="Arial-BoldMT-6e" d="M 3478 0 
L 2600 0 
L 2600 1694 
Q 2600 2231 2544 2389 
Q 2488 2547 2361 2634 
Q 2234 2722 2056 2722 
Q 1828 2722 1647 2597 
Q 1466 2472 1398 2265 
Q 1331 2059 1331 1503 
L 1331 0 
L 453 0 
L 453 3319 
L 1269 3319 
L 1269 2831 
Q 1703 3394 2363 3394 
Q 2653 3394 2893 3289 
Q 3134 3184 3257 3021 
Q 3381 2859 3429 2653 
Q 3478 2447 3478 2063 
L 3478 0 
z
" transform="scale(0.015625)"/>
       <path id="Arial-BoldMT-64" d="M 3503 0 
L 2688 0 
L 2688 488 
Q 2484 203 2207 64 
Q 1931 -75 1650 -75 
Q 1078 -75 670 386 
Q 263 847 263 1672 
Q 263 2516 659 2955 
Q 1056 3394 1663 3394 
Q 2219 3394 2625 2931 
L 2625 4581 
L 3503 4581 
L 3503 0 
z
M 1159 1731 
Q 1159 1200 1306 963 
Q 1519 619 1900 619 
Q 2203 619 2415 876 
Q 2628 1134 2628 1647 
Q 2628 2219 2422 2470 
Q 2216 2722 1894 2722 
Q 1581 2722 1370 2473 
Q 1159 2225 1159 1731 
z
" transform="scale(0.015625)"/>
       <path id="Arial-BoldMT-20" transform="scale(0.015625)"/>
       <path id="Arial-BoldMT-50" d="M 466 0 
L 466 4581 
L 1950 4581 
Q 2794 4581 3050 4513 
Q 3444 4409 3709 4064 
Q 3975 3719 3975 3172 
Q 3975 2750 3822 2462 
Q 3669 2175 3433 2011 
Q 3197 1847 2953 1794 
Q 2622 1728 1994 1728 
L 1391 1728 
L 1391 0 
L 466 0 
z
M 1391 3806 
L 1391 2506 
L 1897 2506 
Q 2444 2506 2628 2578 
Q 2813 2650 2917 2803 
Q 3022 2956 3022 3159 
Q 3022 3409 2875 3571 
Q 2728 3734 2503 3775 
Q 2338 3806 1838 3806 
L 1391 3806 
z
" transform="scale(0.015625)"/>
       <path id="Arial-BoldMT-69" d="M 459 3769 
L 459 4581 
L 1338 4581 
L 1338 3769 
L 459 3769 
z
M 459 0 
L 459 3319 
L 1338 3319 
L 1338 0 
L 459 0 
z
" transform="scale(0.015625)"/>
       <path id="Arial-BoldMT-74" d="M 1981 3319 
L 1981 2619 
L 1381 2619 
L 1381 1281 
Q 1381 875 1398 808 
Q 1416 741 1477 697 
Q 1538 653 1625 653 
Q 1747 653 1978 738 
L 2053 56 
Q 1747 -75 1359 -75 
Q 1122 -75 931 4 
Q 741 84 652 211 
Q 563 338 528 553 
Q 500 706 500 1172 
L 500 2619 
L 97 2619 
L 97 3319 
L 500 3319 
L 500 3978 
L 1381 4491 
L 1381 3319 
L 1981 3319 
z
" transform="scale(0.015625)"/>
       <path id="Arial-BoldMT-79" d="M 44 3319 
L 978 3319 
L 1772 963 
L 2547 3319 
L 3456 3319 
L 2284 125 
L 2075 -453 
Q 1959 -744 1854 -897 
Q 1750 -1050 1614 -1145 
Q 1478 -1241 1279 -1294 
Q 1081 -1347 831 -1347 
Q 578 -1347 334 -1294 
L 256 -606 
Q 463 -647 628 -647 
Q 934 -647 1081 -467 
Q 1228 -288 1306 -9 
L 44 3319 
z
" transform="scale(0.015625)"/>
       <path id="Arial-BoldMT-49" d="M 438 0 
L 438 4581 
L 1363 4581 
L 1363 0 
L 438 0 
z
" transform="scale(0.015625)"/>
       <path id="Arial-BoldMT-78" d="M 38 0 
L 1234 1709 
L 88 3319 
L 1159 3319 
L 1747 2406 
L 2366 3319 
L 3397 3319 
L 2272 1747 
L 3500 0 
L 2422 0 
L 1747 1028 
L 1066 0 
L 38 0 
z
" transform="scale(0.015625)"/>
      </defs>
      <use xlink:href="#Arial-BoldMT-47"/>
      <use xlink:href="#Arial-BoldMT-65" transform="translate(77.783203 0)"/>
      <use xlink:href="#Arial-BoldMT-6e" transform="translate(133.398438 0)"/>
      <use xlink:href="#Arial-BoldMT-64" transform="translate(194.482422 0)"/>
      <use xlink:href="#Arial-BoldMT-65" transform="translate(255.566406 0)"/>
      <use xlink:href="#Arial-BoldMT-72" transform="translate(311.181641 0)"/>
      <use xlink:href="#Arial-BoldMT-20" transform="translate(350.097656 0)"/>
      <use xlink:href="#Arial-BoldMT-50" transform="translate(377.880859 0)"/>
      <use xlink:href="#Arial-BoldMT-61" transform="translate(444.580078 0)"/>
      <use xlink:href="#Arial-BoldMT-72" transform="translate(500.195312 0)"/>
      <use xlink:href="#Arial-BoldMT-69" transform="translate(539.111328 0)"/>
      <use xlink:href="#Arial-BoldMT-74" transform="translate(566.894531 0)"/>
      <use xlink:href="#Arial-BoldMT-79" transform="translate(600.195312 0)"/>
      <use xlink:href="#Arial-BoldMT-20" transform="translate(655.810547 0)"/>
      <use xlink:href="#Arial-BoldMT-49" transform="translate(683.59375 0)"/>
      <use xlink:href="#Arial-BoldMT-6e" transform="translate(711.376953 0)"/>
      <use xlink:href="#Arial-BoldMT-64" transform="translate(772.460938 0)"/>
      <use xlink:href="#Arial-BoldMT-65" transform="translate(833.544922 0)"/>
      <use xlink:href="#Arial-BoldMT-78" transform="translate(889.160156 0)"/>
     </g>
    </g>
   </g>
   <g id="FillBetweenPolyCollection_1">
    <defs>
     <path id="m1da6f52220" d="M 99.473097 -507.211889 
L 99.473097 -378.665634 
L 118.785726 -378.665634 
L 138.098355 -378.665634 
L 157.410984 -378.665634 
L 176.723613 -378.665634 
L 196.036242 -378.665634 
L 215.348871 -378.665634 
L 234.661501 -378.665634 
L 253.97413 -378.665634 
L 273.286759 -378.665634 
L 292.599388 -378.665634 
L 311.912017 -378.665634 
L 331.224646 -378.665634 
L 350.537275 -378.665634 
L 369.849904 -378.665634 
L 389.162534 -378.665634 
L 408.475163 -378.665634 
L 427.787792 -378.665634 
L 447.100421 -378.665634 
L 466.41305 -378.665634 
L 485.725679 -378.665634 
L 505.038308 -378.665634 
L 524.350937 -378.665634 
L 543.663567 -378.665634 
L 562.976196 -378.665634 
L 582.288825 -378.665634 
L 601.601454 -378.665634 
L 620.914083 -378.665634 
L 640.226712 -378.665634 
L 659.539341 -378.665634 
L 678.851971 -378.665634 
L 698.1646 -378.665634 
L 717.477229 -378.665634 
L 736.789858 -378.665634 
L 756.102487 -378.665634 
L 775.415116 -378.665634 
L 794.727745 -378.665634 
L 814.040374 -378.665634 
L 833.353004 -378.665634 
L 852.665633 -378.665634 
L 871.978262 -378.665634 
L 891.290891 -378.665634 
L 910.60352 -378.665634 
L 929.916149 -378.665634 
L 949.228778 -378.665634 
L 949.228778 -507.211889 
L 949.228778 -507.211889 
L 929.916149 -507.211889 
L 910.60352 -507.211889 
L 891.290891 -507.211889 
L 871.978262 -507.211889 
L 852.665633 -507.211889 
L 833.353004 -507.211889 
L 814.040374 -507.211889 
L 794.727745 -507.211889 
L 775.415116 -507.211889 
L 756.102487 -507.211889 
L 736.789858 -507.211889 
L 717.477229 -507.211889 
L 698.1646 -507.211889 
L 678.851971 -507.211889 
L 659.539341 -507.211889 
L 640.226712 -507.211889 
L 620.914083 -507.211889 
L 601.601454 -507.211889 
L 582.288825 -507.211889 
L 562.976196 -507.211889 
L 543.663567 -507.211889 
L 524.350937 -507.211889 
L 505.038308 -507.211889 
L 485.725679 -507.211889 
L 466.41305 -507.211889 
L 447.100421 -507.211889 
L 427.787792 -507.211889 
L 408.475163 -507.211889 
L 389.162534 -507.211889 
L 369.849904 -507.211889 
L 350.537275 -507.211889 
L 331.224646 -507.211889 
L 311.912017 -507.211889 
L 292.599388 -507.211889 
L 273.286759 -507.211889 
L 253.97413 -507.211889 
L 234.661501 -507.211889 
L 215.348871 -507.211889 
L 196.036242 -507.211889 
L 176.723613 -507.211889 
L 157.410984 -507.211889 
L 138.098355 -507.211889 
L 118.785726 -507.211889 
L 99.473097 -507.211889 
z
" style="stroke: #ffa500; stroke-opacity: 0.2"/>
    </defs>
    <g clip-path="url(#p226154686d)">
     <use xlink:href="#m1da6f52220" x="0" y="566.888906" style="fill: #ffa500; fill-opacity: 0.2; stroke: #ffa500; stroke-opacity: 0.2"/>
    </g>
   </g>
   <g id="line2d_14">
    <path d="M 99.473097 505.386108 
L 118.785726 491.411304 
L 138.098355 495.173515 
L 157.410984 490.094431 
L 176.723613 504.072215 
L 196.036242 499.457872 
L 215.348871 495.796472 
L 234.661501 484.828095 
L 253.97413 486.133208 
L 273.286759 474.718722 
L 292.599388 460.799052 
L 311.912017 462.101317 
L 331.224646 456.211281 
L 350.537275 438.272521 
L 369.849904 432.748529 
L 389.162534 426.772914 
L 408.475163 419.56648 
L 427.787792 409.965078 
L 447.100421 402.702051 
L 466.41305 394.37029 
L 485.725679 387.894309 
L 505.038308 384.44479 
L 524.350937 380.683619 
L 543.663567 374.669971 
L 562.976196 369.643274 
L 582.288825 354.472132 
L 601.601454 345.136015 
L 620.914083 338.422795 
L 640.226712 332.398017 
L 659.539341 322.631972 
L 678.851971 314.240034 
L 698.1646 306.495442 
L 717.477229 301.640688 
L 736.789858 308.121507 
L 756.102487 309.914536 
L 775.415116 309.352984 
L 794.727745 307.91474 
L 814.040374 304.06717 
L 833.353004 293.340235 
L 852.665633 292.170667 
L 871.978262 285.716924 
L 891.290891 285.295502 
L 910.60352 282.36569 
L 929.916149 280.589976 
L 949.228778 278.231789 
" clip-path="url(#p226154686d)" style="fill: none; stroke: #800080; stroke-width: 3; stroke-linecap: round"/>
    <defs>
     <path id="mf65fd6f949" d="M 0 3 
C 0.795609 3 1.55874 2.683901 2.12132 2.12132 
C 2.683901 1.55874 3 0.795609 3 0 
C 3 -0.795609 2.683901 -1.55874 2.12132 -2.12132 
C 1.55874 -2.683901 0.795609 -3 0 -3 
C -0.795609 -3 -1.55874 -2.683901 -2.12132 -2.12132 
C -2.683901 -1.55874 -3 -0.795609 -3 0 
C -3 0.795609 -2.683901 1.55874 -2.12132 2.12132 
C -1.55874 2.683901 -0.795609 3 0 3 
z
" style="stroke: #800080"/>
    </defs>
    <g clip-path="url(#p226154686d)">
     <use xlink:href="#mf65fd6f949" x="99.473097" y="505.386108" style="fill: #800080; stroke: #800080"/>
     <use xlink:href="#mf65fd6f949" x="118.785726" y="491.411304" style="fill: #800080; stroke: #800080"/>
     <use xlink:href="#mf65fd6f949" x="138.098355" y="495.173515" style="fill: #800080; stroke: #800080"/>
     <use xlink:href="#mf65fd6f949" x="157.410984" y="490.094431" style="fill: #800080; stroke: #800080"/>
     <use xlink:href="#mf65fd6f949" x="176.723613" y="504.072215" style="fill: #800080; stroke: #800080"/>
     <use xlink:href="#mf65fd6f949" x="196.036242" y="499.457872" style="fill: #800080; stroke: #800080"/>
     <use xlink:href="#mf65fd6f949" x="215.348871" y="495.796472" style="fill: #800080; stroke: #800080"/>
     <use xlink:href="#mf65fd6f949" x="234.661501" y="484.828095" style="fill: #800080; stroke: #800080"/>
     <use xlink:href="#mf65fd6f949" x="253.97413" y="486.133208" style="fill: #800080; stroke: #800080"/>
     <use xlink:href="#mf65fd6f949" x="273.286759" y="474.718722" style="fill: #800080; stroke: #800080"/>
     <use xlink:href="#mf65fd6f949" x="292.599388" y="460.799052" style="fill: #800080; stroke: #800080"/>
     <use xlink:href="#mf65fd6f949" x="311.912017" y="462.101317" style="fill: #800080; stroke: #800080"/>
     <use xlink:href="#mf65fd6f949" x="331.224646" y="456.211281" style="fill: #800080; stroke: #800080"/>
     <use xlink:href="#mf65fd6f949" x="350.537275" y="438.272521" style="fill: #800080; stroke: #800080"/>
     <use xlink:href="#mf65fd6f949" x="369.849904" y="432.748529" style="fill: #800080; stroke: #800080"/>
     <use xlink:href="#mf65fd6f949" x="389.162534" y="426.772914" style="fill: #800080; stroke: #800080"/>
     <use xlink:href="#mf65fd6f949" x="408.475163" y="419.56648" style="fill: #800080; stroke: #800080"/>
     <use xlink:href="#mf65fd6f949" x="427.787792" y="409.965078" style="fill: #800080; stroke: #800080"/>
     <use xlink:href="#mf65fd6f949" x="447.100421" y="402.702051" style="fill: #800080; stroke: #800080"/>
     <use xlink:href="#mf65fd6f949" x="466.41305" y="394.37029" style="fill: #800080; stroke: #800080"/>
     <use xlink:href="#mf65fd6f949" x="485.725679" y="387.894309" style="fill: #800080; stroke: #800080"/>
     <use xlink:href="#mf65fd6f949" x="505.038308" y="384.44479" style="fill: #800080; stroke: #800080"/>
     <use xlink:href="#mf65fd6f949" x="524.350937" y="380.683619" style="fill: #800080; stroke: #800080"/>
     <use xlink:href="#mf65fd6f949" x="543.663567" y="374.669971" style="fill: #800080; stroke: #800080"/>
     <use xlink:href="#mf65fd6f949" x="562.976196" y="369.643274" style="fill: #800080; stroke: #800080"/>
     <use xlink:href="#mf65fd6f949" x="582.288825" y="354.472132" style="fill: #800080; stroke: #800080"/>
     <use xlink:href="#mf65fd6f949" x="601.601454" y="345.136015" style="fill: #800080; stroke: #800080"/>
     <use xlink:href="#mf65fd6f949" x="620.914083" y="338.422795" style="fill: #800080; stroke: #800080"/>
     <use xlink:href="#mf65fd6f949" x="640.226712" y="332.398017" style="fill: #800080; stroke: #800080"/>
     <use xlink:href="#mf65fd6f949" x="659.539341" y="322.631972" style="fill: #800080; stroke: #800080"/>
     <use xlink:href="#mf65fd6f949" x="678.851971" y="314.240034" style="fill: #800080; stroke: #800080"/>
     <use xlink:href="#mf65fd6f949" x="698.1646" y="306.495442" style="fill: #800080; stroke: #800080"/>
     <use xlink:href="#mf65fd6f949" x="717.477229" y="301.640688" style="fill: #800080; stroke: #800080"/>
     <use xlink:href="#mf65fd6f949" x="736.789858" y="308.121507" style="fill: #800080; stroke: #800080"/>
     <use xlink:href="#mf65fd6f949" x="756.102487" y="309.914536" style="fill: #800080; stroke: #800080"/>
     <use xlink:href="#mf65fd6f949" x="775.415116" y="309.352984" style="fill: #800080; stroke: #800080"/>
     <use xlink:href="#mf65fd6f949" x="794.727745" y="307.91474" style="fill: #800080; stroke: #800080"/>
     <use xlink:href="#mf65fd6f949" x="814.040374" y="304.06717" style="fill: #800080; stroke: #800080"/>
     <use xlink:href="#mf65fd6f949" x="833.353004" y="293.340235" style="fill: #800080; stroke: #800080"/>
     <use xlink:href="#mf65fd6f949" x="852.665633" y="292.170667" style="fill: #800080; stroke: #800080"/>
     <use xlink:href="#mf65fd6f949" x="871.978262" y="285.716924" style="fill: #800080; stroke: #800080"/>
     <use xlink:href="#mf65fd6f949" x="891.290891" y="285.295502" style="fill: #800080; stroke: #800080"/>
     <use xlink:href="#mf65fd6f949" x="910.60352" y="282.36569" style="fill: #800080; stroke: #800080"/>
     <use xlink:href="#mf65fd6f949" x="929.916149" y="280.589976" style="fill: #800080; stroke: #800080"/>
     <use xlink:href="#mf65fd6f949" x="949.228778" y="278.231789" style="fill: #800080; stroke: #800080"/>
    </g>
   </g>
   <g id="line2d_15">
    <path d="M 56.985313 59.677017 
L 991.716563 59.677017 
" clip-path="url(#p226154686d)" style="fill: none; stroke-dasharray: 7.4,3.2; stroke-dashoffset: 0; stroke: #0000ff; stroke-width: 2"/>
   </g>
   <g id="patch_3">
    <path d="M 56.985313 527.671562 
L 56.985313 37.391562 
" style="fill: none; stroke: #cccccc; stroke-width: 0.8; stroke-linejoin: miter; stroke-linecap: square"/>
   </g>
   <g id="patch_4">
    <path d="M 991.716563 527.671562 
L 991.716563 37.391562 
" style="fill: none; stroke: #cccccc; stroke-width: 0.8; stroke-linejoin: miter; stroke-linecap: square"/>
   </g>
   <g id="patch_5">
    <path d="M 56.985313 527.671562 
L 991.716562 527.671562 
" style="fill: none; stroke: #cccccc; stroke-width: 0.8; stroke-linejoin: miter; stroke-linecap: square"/>
   </g>
   <g id="patch_6">
    <path d="M 56.985313 37.391563 
L 991.716562 37.391563 
" style="fill: none; stroke: #cccccc; stroke-width: 0.8; stroke-linejoin: miter; stroke-linecap: square"/>
   </g>
   <g id="text_16">
    <!-- Global Literacy Gender Parity Trend (1980-2024) -->
    <g style="fill: #262626" transform="translate(364.851562 17.391563) scale(0.14 -0.14)">
     <defs>
      <path id="Arial-BoldMT-6c" d="M 459 0 
L 459 4581 
L 1338 4581 
L 1338 0 
L 459 0 
z
" transform="scale(0.015625)"/>
      <path id="Arial-BoldMT-6f" d="M 256 1706 
Q 256 2144 472 2553 
Q 688 2963 1083 3178 
Q 1478 3394 1966 3394 
Q 2719 3394 3200 2905 
Q 3681 2416 3681 1669 
Q 3681 916 3195 420 
Q 2709 -75 1972 -75 
Q 1516 -75 1102 131 
Q 688 338 472 736 
Q 256 1134 256 1706 
z
M 1156 1659 
Q 1156 1166 1390 903 
Q 1625 641 1969 641 
Q 2313 641 2545 903 
Q 2778 1166 2778 1666 
Q 2778 2153 2545 2415 
Q 2313 2678 1969 2678 
Q 1625 2678 1390 2415 
Q 1156 2153 1156 1659 
z
" transform="scale(0.015625)"/>
      <path id="Arial-BoldMT-62" d="M 422 0 
L 422 4581 
L 1300 4581 
L 1300 2931 
Q 1706 3394 2263 3394 
Q 2869 3394 3266 2955 
Q 3663 2516 3663 1694 
Q 3663 844 3258 384 
Q 2853 -75 2275 -75 
Q 1991 -75 1714 67 
Q 1438 209 1238 488 
L 1238 0 
L 422 0 
z
M 1294 1731 
Q 1294 1216 1456 969 
Q 1684 619 2063 619 
Q 2353 619 2558 867 
Q 2763 1116 2763 1650 
Q 2763 2219 2556 2470 
Q 2350 2722 2028 2722 
Q 1713 2722 1503 2476 
Q 1294 2231 1294 1731 
z
" transform="scale(0.015625)"/>
      <path id="Arial-BoldMT-4c" d="M 491 0 
L 491 4544 
L 1416 4544 
L 1416 772 
L 3716 772 
L 3716 0 
L 491 0 
z
" transform="scale(0.015625)"/>
      <path id="Arial-BoldMT-63" d="M 3353 2338 
L 2488 2181 
Q 2444 2441 2289 2572 
Q 2134 2703 1888 2703 
Q 1559 2703 1364 2476 
Q 1169 2250 1169 1719 
Q 1169 1128 1367 884 
Q 1566 641 1900 641 
Q 2150 641 2309 783 
Q 2469 925 2534 1272 
L 3397 1125 
Q 3263 531 2881 228 
Q 2500 -75 1859 -75 
Q 1131 -75 698 384 
Q 266 844 266 1656 
Q 266 2478 700 2936 
Q 1134 3394 1875 3394 
Q 2481 3394 2839 3133 
Q 3197 2872 3353 2338 
z
" transform="scale(0.015625)"/>
      <path id="Arial-BoldMT-54" d="M 1497 0 
L 1497 3806 
L 138 3806 
L 138 4581 
L 3778 4581 
L 3778 3806 
L 2422 3806 
L 2422 0 
L 1497 0 
z
" transform="scale(0.015625)"/>
      <path id="Arial-BoldMT-28" d="M 1916 -1347 
L 1313 -1347 
Q 834 -625 584 153 
Q 334 931 334 1659 
Q 334 2563 644 3369 
Q 913 4069 1325 4659 
L 1925 4659 
Q 1497 3713 1336 3048 
Q 1175 2384 1175 1641 
Q 1175 1128 1270 590 
Q 1366 53 1531 -431 
Q 1641 -750 1916 -1347 
z
" transform="scale(0.015625)"/>
      <path id="Arial-BoldMT-31" d="M 2519 0 
L 1641 0 
L 1641 3309 
Q 1159 2859 506 2644 
L 506 3441 
Q 850 3553 1253 3867 
Q 1656 4181 1806 4600 
L 2519 4600 
L 2519 0 
z
" transform="scale(0.015625)"/>
      <path id="Arial-BoldMT-39" d="M 291 1059 
L 1141 1153 
Q 1172 894 1303 769 
Q 1434 644 1650 644 
Q 1922 644 2112 894 
Q 2303 1144 2356 1931 
Q 2025 1547 1528 1547 
Q 988 1547 595 1964 
Q 203 2381 203 3050 
Q 203 3747 617 4173 
Q 1031 4600 1672 4600 
Q 2369 4600 2816 4061 
Q 3263 3522 3263 2288 
Q 3263 1031 2797 475 
Q 2331 -81 1584 -81 
Q 1047 -81 715 205 
Q 384 491 291 1059 
z
M 2278 2978 
Q 2278 3403 2083 3637 
Q 1888 3872 1631 3872 
Q 1388 3872 1227 3680 
Q 1066 3488 1066 3050 
Q 1066 2606 1241 2398 
Q 1416 2191 1678 2191 
Q 1931 2191 2104 2391 
Q 2278 2591 2278 2978 
z
" transform="scale(0.015625)"/>
      <path id="Arial-BoldMT-38" d="M 1025 2472 
Q 684 2616 529 2867 
Q 375 3119 375 3419 
Q 375 3931 733 4265 
Q 1091 4600 1750 4600 
Q 2403 4600 2764 4265 
Q 3125 3931 3125 3419 
Q 3125 3100 2959 2851 
Q 2794 2603 2494 2472 
Q 2875 2319 3073 2025 
Q 3272 1731 3272 1347 
Q 3272 713 2867 316 
Q 2463 -81 1791 -81 
Q 1166 -81 750 247 
Q 259 634 259 1309 
Q 259 1681 443 1992 
Q 628 2303 1025 2472 
z
M 1206 3356 
Q 1206 3094 1354 2947 
Q 1503 2800 1750 2800 
Q 2000 2800 2150 2948 
Q 2300 3097 2300 3359 
Q 2300 3606 2151 3754 
Q 2003 3903 1759 3903 
Q 1506 3903 1356 3753 
Q 1206 3603 1206 3356 
z
M 1125 1394 
Q 1125 1031 1311 828 
Q 1497 625 1775 625 
Q 2047 625 2225 820 
Q 2403 1016 2403 1384 
Q 2403 1706 2222 1901 
Q 2041 2097 1763 2097 
Q 1441 2097 1283 1875 
Q 1125 1653 1125 1394 
z
" transform="scale(0.015625)"/>
      <path id="Arial-BoldMT-30" d="M 1756 4600 
Q 2422 4600 2797 4125 
Q 3244 3563 3244 2259 
Q 3244 959 2794 391 
Q 2422 -78 1756 -78 
Q 1088 -78 678 436 
Q 269 950 269 2269 
Q 269 3563 719 4131 
Q 1091 4600 1756 4600 
z
M 1756 3872 
Q 1597 3872 1472 3770 
Q 1347 3669 1278 3406 
Q 1188 3066 1188 2259 
Q 1188 1453 1269 1151 
Q 1350 850 1473 750 
Q 1597 650 1756 650 
Q 1916 650 2041 751 
Q 2166 853 2234 1116 
Q 2325 1453 2325 2259 
Q 2325 3066 2244 3367 
Q 2163 3669 2039 3770 
Q 1916 3872 1756 3872 
z
" transform="scale(0.015625)"/>
      <path id="Arial-BoldMT-2d" d="M 359 1222 
L 359 2100 
L 2084 2100 
L 2084 1222 
L 359 1222 
z
" transform="scale(0.015625)"/>
      <path id="Arial-BoldMT-32" d="M 3238 816 
L 3238 0 
L 159 0 
Q 209 463 459 877 
Q 709 1291 1447 1975 
Q 2041 2528 2175 2725 
Q 2356 2997 2356 3263 
Q 2356 3556 2198 3714 
Q 2041 3872 1763 3872 
Q 1488 3872 1325 3706 
Q 1163 3541 1138 3156 
L 263 3244 
Q 341 3969 753 4284 
Q 1166 4600 1784 4600 
Q 2463 4600 2850 4234 
Q 3238 3869 3238 3325 
Q 3238 3016 3127 2736 
Q 3016 2456 2775 2150 
Q 2616 1947 2200 1565 
Q 1784 1184 1673 1059 
Q 1563 934 1494 816 
L 3238 816 
z
" transform="scale(0.015625)"/>
      <path id="Arial-BoldMT-34" d="M 1994 0 
L 1994 922 
L 119 922 
L 119 1691 
L 2106 4600 
L 2844 4600 
L 2844 1694 
L 3413 1694 
L 3413 922 
L 2844 922 
L 2844 0 
L 1994 0 
z
M 1994 1694 
L 1994 3259 
L 941 1694 
L 1994 1694 
z
" transform="scale(0.015625)"/>
      <path id="Arial-BoldMT-29" d="M 216 -1347 
Q 475 -791 581 -494 
Q 688 -197 778 190 
Q 869 578 912 926 
Q 956 1275 956 1641 
Q 956 2384 797 3048 
Q 638 3713 209 4659 
L 806 4659 
Q 1278 3988 1539 3234 
Q 1800 2481 1800 1706 
Q 1800 1053 1594 306 
Q 1359 -531 822 -1347 
L 216 -1347 
z
" transform="scale(0.015625)"/>
     </defs>
     <use xlink:href="#Arial-BoldMT-47"/>
     <use xlink:href="#Arial-BoldMT-6c" transform="translate(77.783203 0)"/>
     <use xlink:href="#Arial-BoldMT-6f" transform="translate(105.566406 0)"/>
     <use xlink:href="#Arial-BoldMT-62" transform="translate(166.650391 0)"/>
     <use xlink:href="#Arial-BoldMT-61" transform="translate(227.734375 0)"/>
     <use xlink:href="#Arial-BoldMT-6c" transform="translate(283.349609 0)"/>
     <use xlink:href="#Arial-BoldMT-20" transform="translate(311.132812 0)"/>
     <use xlink:href="#Arial-BoldMT-4c" transform="translate(338.916016 0)"/>
     <use xlink:href="#Arial-BoldMT-69" transform="translate(400 0)"/>
     <use xlink:href="#Arial-BoldMT-74" transform="translate(427.783203 0)"/>
     <use xlink:href="#Arial-BoldMT-65" transform="translate(461.083984 0)"/>
     <use xlink:href="#Arial-BoldMT-72" transform="translate(516.699219 0)"/>
     <use xlink:href="#Arial-BoldMT-61" transform="translate(555.615234 0)"/>
     <use xlink:href="#Arial-BoldMT-63" transform="translate(611.230469 0)"/>
     <use xlink:href="#Arial-BoldMT-79" transform="translate(666.845703 0)"/>
     <use xlink:href="#Arial-BoldMT-20" transform="translate(722.460938 0)"/>
     <use xlink:href="#Arial-BoldMT-47" transform="translate(750.244141 0)"/>
     <use xlink:href="#Arial-BoldMT-65" transform="translate(828.027344 0)"/>
     <use xlink:href="#Arial-BoldMT-6e" transform="translate(883.642578 0)"/>
     <use xlink:href="#Arial-BoldMT-64" transform="translate(944.726562 0)"/>
     <use xlink:href="#Arial-BoldMT-65" transform="translate(1005.810547 0)"/>
     <use xlink:href="#Arial-BoldMT-72" transform="translate(1061.425781 0)"/>
     <use xlink:href="#Arial-BoldMT-20" transform="translate(1100.341797 0)"/>
     <use xlink:href="#Arial-BoldMT-50" transform="translate(1128.125 0)"/>
     <use xlink:href="#Arial-BoldMT-61" transform="translate(1194.824219 0)"/>
     <use xlink:href="#Arial-BoldMT-72" transform="translate(1250.439453 0)"/>
     <use xlink:href="#Arial-BoldMT-69" transform="translate(1289.355469 0)"/>
     <use xlink:href="#Arial-BoldMT-74" transform="translate(1317.138672 0)"/>
     <use xlink:href="#Arial-BoldMT-79" transform="translate(1350.439453 0)"/>
     <use xlink:href="#Arial-BoldMT-20" transform="translate(1406.054688 0)"/>
     <use xlink:href="#Arial-BoldMT-54" transform="translate(1433.837891 0)"/>
     <use xlink:href="#Arial-BoldMT-72" transform="translate(1489.421875 0)"/>
     <use xlink:href="#Arial-BoldMT-65" transform="translate(1528.337891 0)"/>
     <use xlink:href="#Arial-BoldMT-6e" transform="translate(1583.953125 0)"/>
     <use xlink:href="#Arial-BoldMT-64" transform="translate(1645.037109 0)"/>
     <use xlink:href="#Arial-BoldMT-20" transform="translate(1706.121094 0)"/>
     <use xlink:href="#Arial-BoldMT-28" transform="translate(1733.904297 0)"/>
     <use xlink:href="#Arial-BoldMT-31" transform="translate(1767.205078 0)"/>
     <use xlink:href="#Arial-BoldMT-39" transform="translate(1822.820312 0)"/>
     <use xlink:href="#Arial-BoldMT-38" transform="translate(1878.435547 0)"/>
     <use xlink:href="#Arial-BoldMT-30" transform="translate(1934.050781 0)"/>
     <use xlink:href="#Arial-BoldMT-2d" transform="translate(1989.666016 0)"/>
     <use xlink:href="#Arial-BoldMT-32" transform="translate(2022.966797 0)"/>
     <use xlink:href="#Arial-BoldMT-30" transform="translate(2078.582031 0)"/>
     <use xlink:href="#Arial-BoldMT-32" transform="translate(2134.197266 0)"/>
     <use xlink:href="#Arial-BoldMT-34" transform="translate(2189.8125 0)"/>
     <use xlink:href="#Arial-BoldMT-29" transform="translate(2245.427734 0)"/>
    </g>
   </g>
   <g id="legend_1">
    <g id="patch_7">
     <path d="M 882.797656 522.171562 
L 984.016562 522.171562 
Q 986.216563 522.171562 986.216563 519.971563 
L 986.216563 489.56 
Q 986.216563 487.36 984.016562 487.36 
L 882.797656 487.36 
Q 880.597656 487.36 880.597656 489.56 
L 880.597656 519.971563 
Q 880.597656 522.171562 882.797656 522.171562 
z
" style="fill: #ffffff; opacity: 0.8; stroke: #cccccc; stroke-linejoin: miter"/>
    </g>
    <g id="line2d_16">
     <path d="M 884.997656 495.917656 
L 895.997656 495.917656 
L 906.997656 495.917656 
" style="fill: none; stroke-dasharray: 7.4,3.2; stroke-dashoffset: 0; stroke: #0000ff; stroke-width: 2"/>
    </g>
    <g id="text_17">
     <!-- Perfect Parity -->
     <g style="fill: #262626" transform="translate(915.797656 499.767656) scale(0.11 -0.11)">
      <defs>
       <path id="ArialMT-50" d="M 494 0 
L 494 4581 
L 2222 4581 
Q 2678 4581 2919 4538 
Q 3256 4481 3484 4323 
Q 3713 4166 3852 3881 
Q 3991 3597 3991 3256 
Q 3991 2672 3619 2267 
Q 3247 1863 2275 1863 
L 1100 1863 
L 1100 0 
L 494 0 
z
M 1100 2403 
L 2284 2403 
Q 2872 2403 3119 2622 
Q 3366 2841 3366 3238 
Q 3366 3525 3220 3729 
Q 3075 3934 2838 4000 
Q 2684 4041 2272 4041 
L 1100 4041 
L 1100 2403 
z
" transform="scale(0.015625)"/>
       <path id="ArialMT-65" d="M 2694 1069 
L 3275 997 
Q 3138 488 2766 206 
Q 2394 -75 1816 -75 
Q 1088 -75 661 373 
Q 234 822 234 1631 
Q 234 2469 665 2931 
Q 1097 3394 1784 3394 
Q 2450 3394 2872 2941 
Q 3294 2488 3294 1666 
Q 3294 1616 3291 1516 
L 816 1516 
Q 847 969 1125 678 
Q 1403 388 1819 388 
Q 2128 388 2347 550 
Q 2566 713 2694 1069 
z
M 847 1978 
L 2700 1978 
Q 2663 2397 2488 2606 
Q 2219 2931 1791 2931 
Q 1403 2931 1139 2672 
Q 875 2413 847 1978 
z
" transform="scale(0.015625)"/>
       <path id="ArialMT-72" d="M 416 0 
L 416 3319 
L 922 3319 
L 922 2816 
Q 1116 3169 1280 3281 
Q 1444 3394 1641 3394 
Q 1925 3394 2219 3213 
L 2025 2691 
Q 1819 2813 1613 2813 
Q 1428 2813 1281 2702 
Q 1134 2591 1072 2394 
Q 978 2094 978 1738 
L 978 0 
L 416 0 
z
" transform="scale(0.015625)"/>
       <path id="ArialMT-66" d="M 556 0 
L 556 2881 
L 59 2881 
L 59 3319 
L 556 3319 
L 556 3672 
Q 556 4006 616 4169 
Q 697 4388 901 4523 
Q 1106 4659 1475 4659 
Q 1713 4659 2000 4603 
L 1916 4113 
Q 1741 4144 1584 4144 
Q 1328 4144 1222 4034 
Q 1116 3925 1116 3625 
L 1116 3319 
L 1763 3319 
L 1763 2881 
L 1116 2881 
L 1116 0 
L 556 0 
z
" transform="scale(0.015625)"/>
       <path id="ArialMT-63" d="M 2588 1216 
L 3141 1144 
Q 3050 572 2676 248 
Q 2303 -75 1759 -75 
Q 1078 -75 664 370 
Q 250 816 250 1647 
Q 250 2184 428 2587 
Q 606 2991 970 3192 
Q 1334 3394 1763 3394 
Q 2303 3394 2647 3120 
Q 2991 2847 3088 2344 
L 2541 2259 
Q 2463 2594 2264 2762 
Q 2066 2931 1784 2931 
Q 1359 2931 1093 2626 
Q 828 2322 828 1663 
Q 828 994 1084 691 
Q 1341 388 1753 388 
Q 2084 388 2306 591 
Q 2528 794 2588 1216 
z
" transform="scale(0.015625)"/>
       <path id="ArialMT-74" d="M 1650 503 
L 1731 6 
Q 1494 -44 1306 -44 
Q 1000 -44 831 53 
Q 663 150 594 308 
Q 525 466 525 972 
L 525 2881 
L 113 2881 
L 113 3319 
L 525 3319 
L 525 4141 
L 1084 4478 
L 1084 3319 
L 1650 3319 
L 1650 2881 
L 1084 2881 
L 1084 941 
Q 1084 700 1114 631 
Q 1144 563 1211 522 
Q 1278 481 1403 481 
Q 1497 481 1650 503 
z
" transform="scale(0.015625)"/>
       <path id="ArialMT-20" transform="scale(0.015625)"/>
       <path id="ArialMT-61" d="M 2588 409 
Q 2275 144 1986 34 
Q 1697 -75 1366 -75 
Q 819 -75 525 192 
Q 231 459 231 875 
Q 231 1119 342 1320 
Q 453 1522 633 1644 
Q 813 1766 1038 1828 
Q 1203 1872 1538 1913 
Q 2219 1994 2541 2106 
Q 2544 2222 2544 2253 
Q 2544 2597 2384 2738 
Q 2169 2928 1744 2928 
Q 1347 2928 1158 2789 
Q 969 2650 878 2297 
L 328 2372 
Q 403 2725 575 2942 
Q 747 3159 1072 3276 
Q 1397 3394 1825 3394 
Q 2250 3394 2515 3294 
Q 2781 3194 2906 3042 
Q 3031 2891 3081 2659 
Q 3109 2516 3109 2141 
L 3109 1391 
Q 3109 606 3145 398 
Q 3181 191 3288 0 
L 2700 0 
Q 2613 175 2588 409 
z
M 2541 1666 
Q 2234 1541 1622 1453 
Q 1275 1403 1131 1340 
Q 988 1278 909 1158 
Q 831 1038 831 891 
Q 831 666 1001 516 
Q 1172 366 1500 366 
Q 1825 366 2078 508 
Q 2331 650 2450 897 
Q 2541 1088 2541 1459 
L 2541 1666 
z
" transform="scale(0.015625)"/>
       <path id="ArialMT-69" d="M 425 3934 
L 425 4581 
L 988 4581 
L 988 3934 
L 425 3934 
z
M 425 0 
L 425 3319 
L 988 3319 
L 988 0 
L 425 0 
z
" transform="scale(0.015625)"/>
       <path id="ArialMT-79" d="M 397 -1278 
L 334 -750 
Q 519 -800 656 -800 
Q 844 -800 956 -737 
Q 1069 -675 1141 -563 
Q 1194 -478 1313 -144 
Q 1328 -97 1363 -6 
L 103 3319 
L 709 3319 
L 1400 1397 
Q 1534 1031 1641 628 
Q 1738 1016 1872 1384 
L 2581 3319 
L 3144 3319 
L 1881 -56 
Q 1678 -603 1566 -809 
Q 1416 -1088 1222 -1217 
Q 1028 -1347 759 -1347 
Q 597 -1347 397 -1278 
z
" transform="scale(0.015625)"/>
      </defs>
      <use xlink:href="#ArialMT-50"/>
      <use xlink:href="#ArialMT-65" transform="translate(66.699219 0)"/>
      <use xlink:href="#ArialMT-72" transform="translate(122.314453 0)"/>
      <use xlink:href="#ArialMT-66" transform="translate(155.615234 0)"/>
      <use xlink:href="#ArialMT-65" transform="translate(183.398438 0)"/>
      <use xlink:href="#ArialMT-63" transform="translate(239.013672 0)"/>
      <use xlink:href="#ArialMT-74" transform="translate(289.013672 0)"/>
      <use xlink:href="#ArialMT-20" transform="translate(316.796875 0)"/>
      <use xlink:href="#ArialMT-50" transform="translate(344.580078 0)"/>
      <use xlink:href="#ArialMT-61" transform="translate(411.279297 0)"/>
      <use xlink:href="#ArialMT-72" transform="translate(466.894531 0)"/>
      <use xlink:href="#ArialMT-69" transform="translate(500.195312 0)"/>
      <use xlink:href="#ArialMT-74" transform="translate(522.412109 0)"/>
      <use xlink:href="#ArialMT-79" transform="translate(550.195312 0)"/>
     </g>
    </g>
    <g id="patch_8">
     <path d="M 884.997656 515.456406 
L 906.997656 515.456406 
L 906.997656 507.756406 
L 884.997656 507.756406 
z
" style="fill: #ffa500; fill-opacity: 0.2; stroke: #ffa500; stroke-opacity: 0.2; stroke-linejoin: miter"/>
    </g>
    <g id="text_18">
     <!-- Near Parity -->
     <g style="fill: #262626" transform="translate(915.797656 515.456406) scale(0.11 -0.11)">
      <defs>
       <path id="ArialMT-4e" d="M 488 0 
L 488 4581 
L 1109 4581 
L 3516 984 
L 3516 4581 
L 4097 4581 
L 4097 0 
L 3475 0 
L 1069 3600 
L 1069 0 
L 488 0 
z
" transform="scale(0.015625)"/>
      </defs>
      <use xlink:href="#ArialMT-4e"/>
      <use xlink:href="#ArialMT-65" transform="translate(72.216797 0)"/>
      <use xlink:href="#ArialMT-61" transform="translate(127.832031 0)"/>
      <use xlink:href="#ArialMT-72" transform="translate(183.447266 0)"/>
      <use xlink:href="#ArialMT-20" transform="translate(216.748047 0)"/>
      <use xlink:href="#ArialMT-50" transform="translate(244.53125 0)"/>
      <use xlink:href="#ArialMT-61" transform="translate(311.230469 0)"/>
      <use xlink:href="#ArialMT-72" transform="translate(366.845703 0)"/>
      <use xlink:href="#ArialMT-69" transform="translate(400.146484 0)"/>
      <use xlink:href="#ArialMT-74" transform="translate(422.363281 0)"/>
      <use xlink:href="#ArialMT-79" transform="translate(450.146484 0)"/>
     </g>
    </g>
   </g>
  </g>
 </g>
 <defs>
  <clipPath id="p226154686d">
   <rect x="56.985313" y="37.391563" width="934.73125" height="490.28"/>
  </clipPath>
 </defs>
</svg>
