<?xml version="1.0" encoding="utf-8" standalone="no"?>
<!DOCTYPE svg PUBLIC "-//W3C//DTD SVG 1.1//EN"
  "http://www.w3.org/Graphics/SVG/1.1/DTD/svg11.dtd">
<svg xmlns:xlink="http://www.w3.org/1999/xlink" width="999.016562pt" height="566.257146pt" viewBox="0 0 999.016562 566.257146" xmlns="http://www.w3.org/2000/svg" version="1.1">
 <metadata>
  <rdf:RDF xmlns:dc="http://purl.org/dc/elements/1.1/" xmlns:cc="http://creativecommons.org/ns#" xmlns:rdf="http://www.w3.org/1999/02/22-rdf-syntax-ns#">
   <cc:Work>
    <dc:type rdf:resource="http://purl.org/dc/dcmitype/StillImage"/>
    <dc:date>2025-12-09T22:27:16.036454</dc:date>
    <dc:format>image/svg+xml</dc:format>
    <dc:creator>
     <cc:Agent>
      <dc:title>Matplotlib v3.10.3, https://matplotlib.org/</dc:title>
     </cc:Agent>
    </dc:creator>
   </cc:Work>
  </rdf:RDF>
 </metadata>
 <defs>
  <style type="text/css">*{stroke-linejoin: round; stroke-linecap: butt}</style>
 </defs>
 <g id="figure_1">
  <g id="patch_1">
   <path d="M 0 566.257146 
L 999.016562 566.257146 
L 999.016562 0 
L 0 0 
z
" style="fill: #ffffff"/>
  </g>
  <g id="axes_1">
   <g id="patch_2">
    <path d="M 41.695313 446.365082 
L 991.816563 446.365082 
L 991.816563 37.391562 
L 41.695313 37.391562 
z
" style="fill: #ffffff"/>
   </g>
   <g id="matplotlib.axis_1">
    <g id="xtick_1">
     <g id="text_1">
      <!-- South Asia -->
      <g style="fill: #262626" transform="translate(94.484826 492.234963) rotate(-45) scale(0.1 -0.1)">
       <defs>
        <path id="ArialMT-53" d="M 288 1472 
L 859 1522 
Q 900 1178 1048 958 
Q 1197 738 1509 602 
Q 1822 466 2213 466 
Q 2559 466 2825 569 
Q 3091 672 3220 851 
Q 3350 1031 3350 1244 
Q 3350 1459 3225 1620 
Q 3100 1781 2813 1891 
Q 2628 1963 1997 2114 
Q 1366 2266 1113 2400 
Q 784 2572 623 2826 
Q 463 3081 463 3397 
Q 463 3744 659 4045 
Q 856 4347 1234 4503 
Q 1613 4659 2075 4659 
Q 2584 4659 2973 4495 
Q 3363 4331 3572 4012 
Q 3781 3694 3797 3291 
L 3216 3247 
Q 3169 3681 2898 3903 
Q 2628 4125 2100 4125 
Q 1550 4125 1298 3923 
Q 1047 3722 1047 3438 
Q 1047 3191 1225 3031 
Q 1400 2872 2139 2705 
Q 2878 2538 3153 2413 
Q 3553 2228 3743 1945 
Q 3934 1663 3934 1294 
Q 3934 928 3725 604 
Q 3516 281 3123 101 
Q 2731 -78 2241 -78 
Q 1619 -78 1198 103 
Q 778 284 539 648 
Q 300 1013 288 1472 
z
" transform="scale(0.015625)"/>
        <path id="ArialMT-6f" d="M 213 1659 
Q 213 2581 725 3025 
Q 1153 3394 1769 3394 
Q 2453 3394 2887 2945 
Q 3322 2497 3322 1706 
Q 3322 1066 3130 698 
Q 2938 331 2570 128 
Q 2203 -75 1769 -75 
Q 1072 -75 642 372 
Q 213 819 213 1659 
z
M 791 1659 
Q 791 1022 1069 705 
Q 1347 388 1769 388 
Q 2188 388 2466 706 
Q 2744 1025 2744 1678 
Q 2744 2294 2464 2611 
Q 2184 2928 1769 2928 
Q 1347 2928 1069 2612 
Q 791 2297 791 1659 
z
" transform="scale(0.015625)"/>
        <path id="ArialMT-75" d="M 2597 0 
L 2597 488 
Q 2209 -75 1544 -75 
Q 1250 -75 995 37 
Q 741 150 617 320 
Q 494 491 444 738 
Q 409 903 409 1263 
L 409 3319 
L 972 3319 
L 972 1478 
Q 972 1038 1006 884 
Q 1059 663 1231 536 
Q 1403 409 1656 409 
Q 1909 409 2131 539 
Q 2353 669 2445 892 
Q 2538 1116 2538 1541 
L 2538 3319 
L 3100 3319 
L 3100 0 
L 2597 0 
z
" transform="scale(0.015625)"/>
        <path id="ArialMT-74" d="M 1650 503 
L 1731 6 
Q 1494 -44 1306 -44 
Q 1000 -44 831 53 
Q 663 150 594 308 
Q 525 466 525 972 
L 525 2881 
L 113 2881 
L 113 3319 
L 525 3319 
L 525 4141 
L 1084 4478 
L 1084 3319 
L 1650 3319 
L 1650 2881 
L 1084 2881 
L 1084 941 
Q 1084 700 1114 631 
Q 1144 563 1211 522 
Q 1278 481 1403 481 
Q 1497 481 1650 503 
z
" transform="scale(0.015625)"/>
        <path id="ArialMT-68" d="M 422 0 
L 422 4581 
L 984 4581 
L 984 2938 
Q 1378 3394 1978 3394 
Q 2347 3394 2619 3248 
Q 2891 3103 3008 2847 
Q 3125 2591 3125 2103 
L 3125 0 
L 2563 0 
L 2563 2103 
Q 2563 2525 2380 2717 
Q 2197 2909 1863 2909 
Q 1613 2909 1392 2779 
Q 1172 2650 1078 2428 
Q 984 2206 984 1816 
L 984 0 
L 422 0 
z
" transform="scale(0.015625)"/>
        <path id="ArialMT-20" transform="scale(0.015625)"/>
        <path id="ArialMT-41" d="M -9 0 
L 1750 4581 
L 2403 4581 
L 4278 0 
L 3588 0 
L 3053 1388 
L 1138 1388 
L 634 0 
L -9 0 
z
M 1313 1881 
L 2866 1881 
L 2388 3150 
Q 2169 3728 2063 4100 
Q 1975 3659 1816 3225 
L 1313 1881 
z
" transform="scale(0.015625)"/>
        <path id="ArialMT-73" d="M 197 991 
L 753 1078 
Q 800 744 1014 566 
Q 1228 388 1613 388 
Q 2000 388 2187 545 
Q 2375 703 2375 916 
Q 2375 1106 2209 1216 
Q 2094 1291 1634 1406 
Q 1016 1563 777 1677 
Q 538 1791 414 1992 
Q 291 2194 291 2438 
Q 291 2659 392 2848 
Q 494 3038 669 3163 
Q 800 3259 1026 3326 
Q 1253 3394 1513 3394 
Q 1903 3394 2198 3281 
Q 2494 3169 2634 2976 
Q 2775 2784 2828 2463 
L 2278 2388 
Q 2241 2644 2061 2787 
Q 1881 2931 1553 2931 
Q 1166 2931 1000 2803 
Q 834 2675 834 2503 
Q 834 2394 903 2306 
Q 972 2216 1119 2156 
Q 1203 2125 1616 2013 
Q 2213 1853 2448 1751 
Q 2684 1650 2818 1456 
Q 2953 1263 2953 975 
Q 2953 694 2789 445 
Q 2625 197 2315 61 
Q 2006 -75 1616 -75 
Q 969 -75 630 194 
Q 291 463 197 991 
z
" transform="scale(0.015625)"/>
        <path id="ArialMT-69" d="M 425 3934 
L 425 4581 
L 988 4581 
L 988 3934 
L 425 3934 
z
M 425 0 
L 425 3319 
L 988 3319 
L 988 0 
L 425 0 
z
" transform="scale(0.015625)"/>
        <path id="ArialMT-61" d="M 2588 409 
Q 2275 144 1986 34 
Q 1697 -75 1366 -75 
Q 819 -75 525 192 
Q 231 459 231 875 
Q 231 1119 342 1320 
Q 453 1522 633 1644 
Q 813 1766 1038 1828 
Q 1203 1872 1538 1913 
Q 2219 1994 2541 2106 
Q 2544 2222 2544 2253 
Q 2544 2597 2384 2738 
Q 2169 2928 1744 2928 
Q 1347 2928 1158 2789 
Q 969 2650 878 2297 
L 328 2372 
Q 403 2725 575 2942 
Q 747 3159 1072 3276 
Q 1397 3394 1825 3394 
Q 2250 3394 2515 3294 
Q 2781 3194 2906 3042 
Q 3031 2891 3081 2659 
Q 3109 2516 3109 2141 
L 3109 1391 
Q 3109 606 3145 398 
Q 3181 191 3288 0 
L 2700 0 
Q 2613 175 2588 409 
z
M 2541 1666 
Q 2234 1541 1622 1453 
Q 1275 1403 1131 1340 
Q 988 1278 909 1158 
Q 831 1038 831 891 
Q 831 666 1001 516 
Q 1172 366 1500 366 
Q 1825 366 2078 508 
Q 2331 650 2450 897 
Q 2541 1088 2541 1459 
L 2541 1666 
z
" transform="scale(0.015625)"/>
       </defs>
       <use xlink:href="#ArialMT-53"/>
       <use xlink:href="#ArialMT-6f" transform="translate(66.699219 0)"/>
       <use xlink:href="#ArialMT-75" transform="translate(122.314453 0)"/>
       <use xlink:href="#ArialMT-74" transform="translate(177.929688 0)"/>
       <use xlink:href="#ArialMT-68" transform="translate(205.712891 0)"/>
       <use xlink:href="#ArialMT-20" transform="translate(261.328125 0)"/>
       <use xlink:href="#ArialMT-41" transform="translate(283.611328 0)"/>
       <use xlink:href="#ArialMT-73" transform="translate(350.310547 0)"/>
       <use xlink:href="#ArialMT-69" transform="translate(400.310547 0)"/>
       <use xlink:href="#ArialMT-61" transform="translate(422.527344 0)"/>
      </g>
     </g>
    </g>
    <g id="xtick_2">
     <g id="text_2">
      <!-- Europe &amp; Central Asia -->
      <g style="fill: #262626" transform="translate(212.379112 528.081962) rotate(-45) scale(0.1 -0.1)">
       <defs>
        <path id="ArialMT-45" d="M 506 0 
L 506 4581 
L 3819 4581 
L 3819 4041 
L 1113 4041 
L 1113 2638 
L 3647 2638 
L 3647 2100 
L 1113 2100 
L 1113 541 
L 3925 541 
L 3925 0 
L 506 0 
z
" transform="scale(0.015625)"/>
        <path id="ArialMT-72" d="M 416 0 
L 416 3319 
L 922 3319 
L 922 2816 
Q 1116 3169 1280 3281 
Q 1444 3394 1641 3394 
Q 1925 3394 2219 3213 
L 2025 2691 
Q 1819 2813 1613 2813 
Q 1428 2813 1281 2702 
Q 1134 2591 1072 2394 
Q 978 2094 978 1738 
L 978 0 
L 416 0 
z
" transform="scale(0.015625)"/>
        <path id="ArialMT-70" d="M 422 -1272 
L 422 3319 
L 934 3319 
L 934 2888 
Q 1116 3141 1344 3267 
Q 1572 3394 1897 3394 
Q 2322 3394 2647 3175 
Q 2972 2956 3137 2557 
Q 3303 2159 3303 1684 
Q 3303 1175 3120 767 
Q 2938 359 2589 142 
Q 2241 -75 1856 -75 
Q 1575 -75 1351 44 
Q 1128 163 984 344 
L 984 -1272 
L 422 -1272 
z
M 931 1641 
Q 931 1000 1190 694 
Q 1450 388 1819 388 
Q 2194 388 2461 705 
Q 2728 1022 2728 1688 
Q 2728 2322 2467 2637 
Q 2206 2953 1844 2953 
Q 1484 2953 1207 2617 
Q 931 2281 931 1641 
z
" transform="scale(0.015625)"/>
        <path id="ArialMT-65" d="M 2694 1069 
L 3275 997 
Q 3138 488 2766 206 
Q 2394 -75 1816 -75 
Q 1088 -75 661 373 
Q 234 822 234 1631 
Q 234 2469 665 2931 
Q 1097 3394 1784 3394 
Q 2450 3394 2872 2941 
Q 3294 2488 3294 1666 
Q 3294 1616 3291 1516 
L 816 1516 
Q 847 969 1125 678 
Q 1403 388 1819 388 
Q 2128 388 2347 550 
Q 2566 713 2694 1069 
z
M 847 1978 
L 2700 1978 
Q 2663 2397 2488 2606 
Q 2219 2931 1791 2931 
Q 1403 2931 1139 2672 
Q 875 2413 847 1978 
z
" transform="scale(0.015625)"/>
        <path id="ArialMT-26" d="M 3041 541 
Q 2763 231 2434 76 
Q 2106 -78 1725 -78 
Q 1022 -78 609 397 
Q 275 784 275 1263 
Q 275 1688 548 2030 
Q 822 2372 1366 2631 
Q 1056 2988 953 3209 
Q 850 3431 850 3638 
Q 850 4050 1173 4354 
Q 1497 4659 1988 4659 
Q 2456 4659 2754 4371 
Q 3053 4084 3053 3681 
Q 3053 3028 2188 2566 
L 3009 1519 
Q 3150 1794 3228 2156 
L 3813 2031 
Q 3663 1431 3406 1044 
Q 3722 625 4122 341 
L 3744 -106 
Q 3403 113 3041 541 
z
M 1897 2928 
Q 2263 3144 2370 3306 
Q 2478 3469 2478 3666 
Q 2478 3900 2329 4048 
Q 2181 4197 1959 4197 
Q 1731 4197 1579 4050 
Q 1428 3903 1428 3691 
Q 1428 3584 1483 3467 
Q 1538 3350 1647 3219 
L 1897 2928 
z
M 2688 984 
L 1656 2263 
Q 1200 1991 1040 1758 
Q 881 1525 881 1297 
Q 881 1019 1103 719 
Q 1325 419 1731 419 
Q 1984 419 2254 576 
Q 2525 734 2688 984 
z
" transform="scale(0.015625)"/>
        <path id="ArialMT-43" d="M 3763 1606 
L 4369 1453 
Q 4178 706 3683 314 
Q 3188 -78 2472 -78 
Q 1731 -78 1267 223 
Q 803 525 561 1097 
Q 319 1669 319 2325 
Q 319 3041 592 3573 
Q 866 4106 1370 4382 
Q 1875 4659 2481 4659 
Q 3169 4659 3637 4309 
Q 4106 3959 4291 3325 
L 3694 3184 
Q 3534 3684 3231 3912 
Q 2928 4141 2469 4141 
Q 1941 4141 1586 3887 
Q 1231 3634 1087 3207 
Q 944 2781 944 2328 
Q 944 1744 1114 1308 
Q 1284 872 1643 656 
Q 2003 441 2422 441 
Q 2931 441 3284 734 
Q 3638 1028 3763 1606 
z
" transform="scale(0.015625)"/>
        <path id="ArialMT-6e" d="M 422 0 
L 422 3319 
L 928 3319 
L 928 2847 
Q 1294 3394 1984 3394 
Q 2284 3394 2536 3286 
Q 2788 3178 2913 3003 
Q 3038 2828 3088 2588 
Q 3119 2431 3119 2041 
L 3119 0 
L 2556 0 
L 2556 2019 
Q 2556 2363 2490 2533 
Q 2425 2703 2258 2804 
Q 2091 2906 1866 2906 
Q 1506 2906 1245 2678 
Q 984 2450 984 1813 
L 984 0 
L 422 0 
z
" transform="scale(0.015625)"/>
        <path id="ArialMT-6c" d="M 409 0 
L 409 4581 
L 972 4581 
L 972 0 
L 409 0 
z
" transform="scale(0.015625)"/>
       </defs>
       <use xlink:href="#ArialMT-45"/>
       <use xlink:href="#ArialMT-75" transform="translate(66.699219 0)"/>
       <use xlink:href="#ArialMT-72" transform="translate(122.314453 0)"/>
       <use xlink:href="#ArialMT-6f" transform="translate(155.615234 0)"/>
       <use xlink:href="#ArialMT-70" transform="translate(211.230469 0)"/>
       <use xlink:href="#ArialMT-65" transform="translate(266.845703 0)"/>
       <use xlink:href="#ArialMT-20" transform="translate(322.460938 0)"/>
       <use xlink:href="#ArialMT-26" transform="translate(350.244141 0)"/>
       <use xlink:href="#ArialMT-20" transform="translate(416.943359 0)"/>
       <use xlink:href="#ArialMT-43" transform="translate(444.726562 0)"/>
       <use xlink:href="#ArialMT-65" transform="translate(516.943359 0)"/>
       <use xlink:href="#ArialMT-6e" transform="translate(572.558594 0)"/>
       <use xlink:href="#ArialMT-74" transform="translate(628.173828 0)"/>
       <use xlink:href="#ArialMT-72" transform="translate(655.957031 0)"/>
       <use xlink:href="#ArialMT-61" transform="translate(689.257812 0)"/>
       <use xlink:href="#ArialMT-6c" transform="translate(744.873047 0)"/>
       <use xlink:href="#ArialMT-20" transform="translate(767.089844 0)"/>
       <use xlink:href="#ArialMT-41" transform="translate(789.373047 0)"/>
       <use xlink:href="#ArialMT-73" transform="translate(856.072266 0)"/>
       <use xlink:href="#ArialMT-69" transform="translate(906.072266 0)"/>
       <use xlink:href="#ArialMT-61" transform="translate(928.289062 0)"/>
      </g>
     </g>
    </g>
    <g id="xtick_3">
     <g id="text_3">
      <!-- Middle East &amp; North Africa -->
      <g style="fill: #262626" transform="translate(341.588764 540.953515) rotate(-45) scale(0.1 -0.1)">
       <defs>
        <path id="ArialMT-4d" d="M 475 0 
L 475 4581 
L 1388 4581 
L 2472 1338 
Q 2622 884 2691 659 
Q 2769 909 2934 1394 
L 4031 4581 
L 4847 4581 
L 4847 0 
L 4263 0 
L 4263 3834 
L 2931 0 
L 2384 0 
L 1059 3900 
L 1059 0 
L 475 0 
z
" transform="scale(0.015625)"/>
        <path id="ArialMT-64" d="M 2575 0 
L 2575 419 
Q 2259 -75 1647 -75 
Q 1250 -75 917 144 
Q 584 363 401 755 
Q 219 1147 219 1656 
Q 219 2153 384 2558 
Q 550 2963 881 3178 
Q 1213 3394 1622 3394 
Q 1922 3394 2156 3267 
Q 2391 3141 2538 2938 
L 2538 4581 
L 3097 4581 
L 3097 0 
L 2575 0 
z
M 797 1656 
Q 797 1019 1065 703 
Q 1334 388 1700 388 
Q 2069 388 2326 689 
Q 2584 991 2584 1609 
Q 2584 2291 2321 2609 
Q 2059 2928 1675 2928 
Q 1300 2928 1048 2622 
Q 797 2316 797 1656 
z
" transform="scale(0.015625)"/>
        <path id="ArialMT-4e" d="M 488 0 
L 488 4581 
L 1109 4581 
L 3516 984 
L 3516 4581 
L 4097 4581 
L 4097 0 
L 3475 0 
L 1069 3600 
L 1069 0 
L 488 0 
z
" transform="scale(0.015625)"/>
        <path id="ArialMT-66" d="M 556 0 
L 556 2881 
L 59 2881 
L 59 3319 
L 556 3319 
L 556 3672 
Q 556 4006 616 4169 
Q 697 4388 901 4523 
Q 1106 4659 1475 4659 
Q 1713 4659 2000 4603 
L 1916 4113 
Q 1741 4144 1584 4144 
Q 1328 4144 1222 4034 
Q 1116 3925 1116 3625 
L 1116 3319 
L 1763 3319 
L 1763 2881 
L 1116 2881 
L 1116 0 
L 556 0 
z
" transform="scale(0.015625)"/>
        <path id="ArialMT-63" d="M 2588 1216 
L 3141 1144 
Q 3050 572 2676 248 
Q 2303 -75 1759 -75 
Q 1078 -75 664 370 
Q 250 816 250 1647 
Q 250 2184 428 2587 
Q 606 2991 970 3192 
Q 1334 3394 1763 3394 
Q 2303 3394 2647 3120 
Q 2991 2847 3088 2344 
L 2541 2259 
Q 2463 2594 2264 2762 
Q 2066 2931 1784 2931 
Q 1359 2931 1093 2626 
Q 828 2322 828 1663 
Q 828 994 1084 691 
Q 1341 388 1753 388 
Q 2084 388 2306 591 
Q 2528 794 2588 1216 
z
" transform="scale(0.015625)"/>
       </defs>
       <use xlink:href="#ArialMT-4d"/>
       <use xlink:href="#ArialMT-69" transform="translate(83.300781 0)"/>
       <use xlink:href="#ArialMT-64" transform="translate(105.517578 0)"/>
       <use xlink:href="#ArialMT-64" transform="translate(161.132812 0)"/>
       <use xlink:href="#ArialMT-6c" transform="translate(216.748047 0)"/>
       <use xlink:href="#ArialMT-65" transform="translate(238.964844 0)"/>
       <use xlink:href="#ArialMT-20" transform="translate(294.580078 0)"/>
       <use xlink:href="#ArialMT-45" transform="translate(322.363281 0)"/>
       <use xlink:href="#ArialMT-61" transform="translate(389.0625 0)"/>
       <use xlink:href="#ArialMT-73" transform="translate(444.677734 0)"/>
       <use xlink:href="#ArialMT-74" transform="translate(494.677734 0)"/>
       <use xlink:href="#ArialMT-20" transform="translate(522.460938 0)"/>
       <use xlink:href="#ArialMT-26" transform="translate(550.244141 0)"/>
       <use xlink:href="#ArialMT-20" transform="translate(616.943359 0)"/>
       <use xlink:href="#ArialMT-4e" transform="translate(644.726562 0)"/>
       <use xlink:href="#ArialMT-6f" transform="translate(716.943359 0)"/>
       <use xlink:href="#ArialMT-72" transform="translate(772.558594 0)"/>
       <use xlink:href="#ArialMT-74" transform="translate(805.859375 0)"/>
       <use xlink:href="#ArialMT-68" transform="translate(833.642578 0)"/>
       <use xlink:href="#ArialMT-20" transform="translate(889.257812 0)"/>
       <use xlink:href="#ArialMT-41" transform="translate(911.541016 0)"/>
       <use xlink:href="#ArialMT-66" transform="translate(978.240234 0)"/>
       <use xlink:href="#ArialMT-72" transform="translate(1006.023438 0)"/>
       <use xlink:href="#ArialMT-69" transform="translate(1039.324219 0)"/>
       <use xlink:href="#ArialMT-63" transform="translate(1061.541016 0)"/>
       <use xlink:href="#ArialMT-61" transform="translate(1111.541016 0)"/>
      </g>
     </g>
    </g>
    <g id="xtick_4">
     <g id="text_4">
      <!-- Sub-Saharan Africa -->
      <g style="fill: #262626" transform="translate(487.925316 519.743626) rotate(-45) scale(0.1 -0.1)">
       <defs>
        <path id="ArialMT-62" d="M 941 0 
L 419 0 
L 419 4581 
L 981 4581 
L 981 2947 
Q 1338 3394 1891 3394 
Q 2197 3394 2470 3270 
Q 2744 3147 2920 2923 
Q 3097 2700 3197 2384 
Q 3297 2069 3297 1709 
Q 3297 856 2875 390 
Q 2453 -75 1863 -75 
Q 1275 -75 941 416 
L 941 0 
z
M 934 1684 
Q 934 1088 1097 822 
Q 1363 388 1816 388 
Q 2184 388 2453 708 
Q 2722 1028 2722 1663 
Q 2722 2313 2464 2622 
Q 2206 2931 1841 2931 
Q 1472 2931 1203 2611 
Q 934 2291 934 1684 
z
" transform="scale(0.015625)"/>
        <path id="ArialMT-2d" d="M 203 1375 
L 203 1941 
L 1931 1941 
L 1931 1375 
L 203 1375 
z
" transform="scale(0.015625)"/>
       </defs>
       <use xlink:href="#ArialMT-53"/>
       <use xlink:href="#ArialMT-75" transform="translate(66.699219 0)"/>
       <use xlink:href="#ArialMT-62" transform="translate(122.314453 0)"/>
       <use xlink:href="#ArialMT-2d" transform="translate(177.929688 0)"/>
       <use xlink:href="#ArialMT-53" transform="translate(211.230469 0)"/>
       <use xlink:href="#ArialMT-61" transform="translate(277.929688 0)"/>
       <use xlink:href="#ArialMT-68" transform="translate(333.544922 0)"/>
       <use xlink:href="#ArialMT-61" transform="translate(389.160156 0)"/>
       <use xlink:href="#ArialMT-72" transform="translate(444.775391 0)"/>
       <use xlink:href="#ArialMT-61" transform="translate(478.076172 0)"/>
       <use xlink:href="#ArialMT-6e" transform="translate(533.691406 0)"/>
       <use xlink:href="#ArialMT-20" transform="translate(589.306641 0)"/>
       <use xlink:href="#ArialMT-41" transform="translate(611.589844 0)"/>
       <use xlink:href="#ArialMT-66" transform="translate(678.289062 0)"/>
       <use xlink:href="#ArialMT-72" transform="translate(706.072266 0)"/>
       <use xlink:href="#ArialMT-69" transform="translate(739.373047 0)"/>
       <use xlink:href="#ArialMT-63" transform="translate(761.589844 0)"/>
       <use xlink:href="#ArialMT-61" transform="translate(811.589844 0)"/>
      </g>
     </g>
    </g>
    <g id="xtick_5">
     <g id="text_5">
      <!-- Latin America &amp; Caribbean -->
      <g style="fill: #262626" transform="translate(612.26035 542.536771) rotate(-45) scale(0.1 -0.1)">
       <defs>
        <path id="ArialMT-4c" d="M 469 0 
L 469 4581 
L 1075 4581 
L 1075 541 
L 3331 541 
L 3331 0 
L 469 0 
z
" transform="scale(0.015625)"/>
        <path id="ArialMT-6d" d="M 422 0 
L 422 3319 
L 925 3319 
L 925 2853 
Q 1081 3097 1340 3245 
Q 1600 3394 1931 3394 
Q 2300 3394 2536 3241 
Q 2772 3088 2869 2813 
Q 3263 3394 3894 3394 
Q 4388 3394 4653 3120 
Q 4919 2847 4919 2278 
L 4919 0 
L 4359 0 
L 4359 2091 
Q 4359 2428 4304 2576 
Q 4250 2725 4106 2815 
Q 3963 2906 3769 2906 
Q 3419 2906 3187 2673 
Q 2956 2441 2956 1928 
L 2956 0 
L 2394 0 
L 2394 2156 
Q 2394 2531 2256 2718 
Q 2119 2906 1806 2906 
Q 1569 2906 1367 2781 
Q 1166 2656 1075 2415 
Q 984 2175 984 1722 
L 984 0 
L 422 0 
z
" transform="scale(0.015625)"/>
       </defs>
       <use xlink:href="#ArialMT-4c"/>
       <use xlink:href="#ArialMT-61" transform="translate(55.615234 0)"/>
       <use xlink:href="#ArialMT-74" transform="translate(111.230469 0)"/>
       <use xlink:href="#ArialMT-69" transform="translate(139.013672 0)"/>
       <use xlink:href="#ArialMT-6e" transform="translate(161.230469 0)"/>
       <use xlink:href="#ArialMT-20" transform="translate(216.845703 0)"/>
       <use xlink:href="#ArialMT-41" transform="translate(239.128906 0)"/>
       <use xlink:href="#ArialMT-6d" transform="translate(305.828125 0)"/>
       <use xlink:href="#ArialMT-65" transform="translate(389.128906 0)"/>
       <use xlink:href="#ArialMT-72" transform="translate(444.744141 0)"/>
       <use xlink:href="#ArialMT-69" transform="translate(478.044922 0)"/>
       <use xlink:href="#ArialMT-63" transform="translate(500.261719 0)"/>
       <use xlink:href="#ArialMT-61" transform="translate(550.261719 0)"/>
       <use xlink:href="#ArialMT-20" transform="translate(605.876953 0)"/>
       <use xlink:href="#ArialMT-26" transform="translate(633.660156 0)"/>
       <use xlink:href="#ArialMT-20" transform="translate(700.359375 0)"/>
       <use xlink:href="#ArialMT-43" transform="translate(728.142578 0)"/>
       <use xlink:href="#ArialMT-61" transform="translate(800.359375 0)"/>
       <use xlink:href="#ArialMT-72" transform="translate(855.974609 0)"/>
       <use xlink:href="#ArialMT-69" transform="translate(889.275391 0)"/>
       <use xlink:href="#ArialMT-62" transform="translate(911.492188 0)"/>
       <use xlink:href="#ArialMT-62" transform="translate(967.107422 0)"/>
       <use xlink:href="#ArialMT-65" transform="translate(1022.722656 0)"/>
       <use xlink:href="#ArialMT-61" transform="translate(1078.337891 0)"/>
       <use xlink:href="#ArialMT-6e" transform="translate(1133.953125 0)"/>
      </g>
     </g>
    </g>
    <g id="xtick_6">
     <g id="text_6">
      <!-- East Asia &amp; Pacific -->
      <g style="fill: #262626" transform="translate(760.571277 517.378133) rotate(-45) scale(0.1 -0.1)">
       <defs>
        <path id="ArialMT-50" d="M 494 0 
L 494 4581 
L 2222 4581 
Q 2678 4581 2919 4538 
Q 3256 4481 3484 4323 
Q 3713 4166 3852 3881 
Q 3991 3597 3991 3256 
Q 3991 2672 3619 2267 
Q 3247 1863 2275 1863 
L 1100 1863 
L 1100 0 
L 494 0 
z
M 1100 2403 
L 2284 2403 
Q 2872 2403 3119 2622 
Q 3366 2841 3366 3238 
Q 3366 3525 3220 3729 
Q 3075 3934 2838 4000 
Q 2684 4041 2272 4041 
L 1100 4041 
L 1100 2403 
z
" transform="scale(0.015625)"/>
       </defs>
       <use xlink:href="#ArialMT-45"/>
       <use xlink:href="#ArialMT-61" transform="translate(66.699219 0)"/>
       <use xlink:href="#ArialMT-73" transform="translate(122.314453 0)"/>
       <use xlink:href="#ArialMT-74" transform="translate(172.314453 0)"/>
       <use xlink:href="#ArialMT-20" transform="translate(200.097656 0)"/>
       <use xlink:href="#ArialMT-41" transform="translate(222.380859 0)"/>
       <use xlink:href="#ArialMT-73" transform="translate(289.080078 0)"/>
       <use xlink:href="#ArialMT-69" transform="translate(339.080078 0)"/>
       <use xlink:href="#ArialMT-61" transform="translate(361.296875 0)"/>
       <use xlink:href="#ArialMT-20" transform="translate(416.912109 0)"/>
       <use xlink:href="#ArialMT-26" transform="translate(444.695312 0)"/>
       <use xlink:href="#ArialMT-20" transform="translate(511.394531 0)"/>
       <use xlink:href="#ArialMT-50" transform="translate(539.177734 0)"/>
       <use xlink:href="#ArialMT-61" transform="translate(605.876953 0)"/>
       <use xlink:href="#ArialMT-63" transform="translate(661.492188 0)"/>
       <use xlink:href="#ArialMT-69" transform="translate(711.492188 0)"/>
       <use xlink:href="#ArialMT-66" transform="translate(733.708984 0)"/>
       <use xlink:href="#ArialMT-69" transform="translate(761.492188 0)"/>
       <use xlink:href="#ArialMT-63" transform="translate(783.708984 0)"/>
      </g>
     </g>
    </g>
    <g id="xtick_7">
     <g id="text_7">
      <!-- North America -->
      <g style="fill: #262626" transform="translate(903.380028 503.223844) rotate(-45) scale(0.1 -0.1)">
       <use xlink:href="#ArialMT-4e"/>
       <use xlink:href="#ArialMT-6f" transform="translate(72.216797 0)"/>
       <use xlink:href="#ArialMT-72" transform="translate(127.832031 0)"/>
       <use xlink:href="#ArialMT-74" transform="translate(161.132812 0)"/>
       <use xlink:href="#ArialMT-68" transform="translate(188.916016 0)"/>
       <use xlink:href="#ArialMT-20" transform="translate(244.53125 0)"/>
       <use xlink:href="#ArialMT-41" transform="translate(266.814453 0)"/>
       <use xlink:href="#ArialMT-6d" transform="translate(333.513672 0)"/>
       <use xlink:href="#ArialMT-65" transform="translate(416.814453 0)"/>
       <use xlink:href="#ArialMT-72" transform="translate(472.429688 0)"/>
       <use xlink:href="#ArialMT-69" transform="translate(505.730469 0)"/>
       <use xlink:href="#ArialMT-63" transform="translate(527.947266 0)"/>
       <use xlink:href="#ArialMT-61" transform="translate(577.947266 0)"/>
      </g>
     </g>
    </g>
    <g id="text_8">
     <!-- Region -->
     <g style="fill: #262626" transform="translate(496.425313 556.531521) scale(0.12 -0.12)">
      <defs>
       <path id="Arial-BoldMT-52" d="M 469 0 
L 469 4581 
L 2416 4581 
Q 3150 4581 3483 4457 
Q 3816 4334 4016 4018 
Q 4216 3703 4216 3297 
Q 4216 2781 3912 2445 
Q 3609 2109 3006 2022 
Q 3306 1847 3501 1637 
Q 3697 1428 4028 894 
L 4588 0 
L 3481 0 
L 2813 997 
Q 2456 1531 2325 1670 
Q 2194 1809 2047 1861 
Q 1900 1913 1581 1913 
L 1394 1913 
L 1394 0 
L 469 0 
z
M 1394 2644 
L 2078 2644 
Q 2744 2644 2909 2700 
Q 3075 2756 3169 2893 
Q 3263 3031 3263 3238 
Q 3263 3469 3139 3611 
Q 3016 3753 2791 3791 
Q 2678 3806 2116 3806 
L 1394 3806 
L 1394 2644 
z
" transform="scale(0.015625)"/>
       <path id="Arial-BoldMT-65" d="M 2381 1056 
L 3256 909 
Q 3088 428 2723 176 
Q 2359 -75 1813 -75 
Q 947 -75 531 491 
Q 203 944 203 1634 
Q 203 2459 634 2926 
Q 1066 3394 1725 3394 
Q 2466 3394 2894 2905 
Q 3322 2416 3303 1406 
L 1103 1406 
Q 1113 1016 1316 798 
Q 1519 581 1822 581 
Q 2028 581 2168 693 
Q 2309 806 2381 1056 
z
M 2431 1944 
Q 2422 2325 2234 2523 
Q 2047 2722 1778 2722 
Q 1491 2722 1303 2513 
Q 1116 2303 1119 1944 
L 2431 1944 
z
" transform="scale(0.015625)"/>
       <path id="Arial-BoldMT-67" d="M 378 -219 
L 1381 -341 
Q 1406 -516 1497 -581 
Q 1622 -675 1891 -675 
Q 2234 -675 2406 -572 
Q 2522 -503 2581 -350 
Q 2622 -241 2622 53 
L 2622 538 
Q 2228 0 1628 0 
Q 959 0 569 566 
Q 263 1013 263 1678 
Q 263 2513 664 2953 
Q 1066 3394 1663 3394 
Q 2278 3394 2678 2853 
L 2678 3319 
L 3500 3319 
L 3500 341 
Q 3500 -247 3403 -537 
Q 3306 -828 3131 -993 
Q 2956 -1159 2664 -1253 
Q 2372 -1347 1925 -1347 
Q 1081 -1347 728 -1058 
Q 375 -769 375 -325 
Q 375 -281 378 -219 
z
M 1163 1728 
Q 1163 1200 1367 954 
Q 1572 709 1872 709 
Q 2194 709 2416 961 
Q 2638 1213 2638 1706 
Q 2638 2222 2425 2472 
Q 2213 2722 1888 2722 
Q 1572 2722 1367 2476 
Q 1163 2231 1163 1728 
z
" transform="scale(0.015625)"/>
       <path id="Arial-BoldMT-69" d="M 459 3769 
L 459 4581 
L 1338 4581 
L 1338 3769 
L 459 3769 
z
M 459 0 
L 459 3319 
L 1338 3319 
L 1338 0 
L 459 0 
z
" transform="scale(0.015625)"/>
       <path id="Arial-BoldMT-6f" d="M 256 1706 
Q 256 2144 472 2553 
Q 688 2963 1083 3178 
Q 1478 3394 1966 3394 
Q 2719 3394 3200 2905 
Q 3681 2416 3681 1669 
Q 3681 916 3195 420 
Q 2709 -75 1972 -75 
Q 1516 -75 1102 131 
Q 688 338 472 736 
Q 256 1134 256 1706 
z
M 1156 1659 
Q 1156 1166 1390 903 
Q 1625 641 1969 641 
Q 2313 641 2545 903 
Q 2778 1166 2778 1666 
Q 2778 2153 2545 2415 
Q 2313 2678 1969 2678 
Q 1625 2678 1390 2415 
Q 1156 2153 1156 1659 
z
" transform="scale(0.015625)"/>
       <path id="Arial-BoldMT-6e" d="M 3478 0 
L 2600 0 
L 2600 1694 
Q 2600 2231 2544 2389 
Q 2488 2547 2361 2634 
Q 2234 2722 2056 2722 
Q 1828 2722 1647 2597 
Q 1466 2472 1398 2265 
Q 1331 2059 1331 1503 
L 1331 0 
L 453 0 
L 453 3319 
L 1269 3319 
L 1269 2831 
Q 1703 3394 2363 3394 
Q 2653 3394 2893 3289 
Q 3134 3184 3257 3021 
Q 3381 2859 3429 2653 
Q 3478 2447 3478 2063 
L 3478 0 
z
" transform="scale(0.015625)"/>
      </defs>
      <use xlink:href="#Arial-BoldMT-52"/>
      <use xlink:href="#Arial-BoldMT-65" transform="translate(72.216797 0)"/>
      <use xlink:href="#Arial-BoldMT-67" transform="translate(127.832031 0)"/>
      <use xlink:href="#Arial-BoldMT-69" transform="translate(188.916016 0)"/>
      <use xlink:href="#Arial-BoldMT-6f" transform="translate(216.699219 0)"/>
      <use xlink:href="#Arial-BoldMT-6e" transform="translate(277.783203 0)"/>
     </g>
    </g>
   </g>
   <g id="matplotlib.axis_2">
    <g id="ytick_1">
     <g id="line2d_1">
      <path d="M 41.695313 403.098851 
L 991.816563 403.098851 
" clip-path="url(#pbd229d659a)" style="fill: none; stroke: #cccccc; stroke-opacity: 0.3; stroke-width: 0.8; stroke-linecap: round"/>
     </g>
     <g id="text_9">
      <!-- 10 -->
      <g style="fill: #262626" transform="translate(22.46125 407.035648) scale(0.11 -0.11)">
       <defs>
        <path id="ArialMT-31" d="M 2384 0 
L 1822 0 
L 1822 3584 
Q 1619 3391 1289 3197 
Q 959 3003 697 2906 
L 697 3450 
Q 1169 3672 1522 3987 
Q 1875 4303 2022 4600 
L 2384 4600 
L 2384 0 
z
" transform="scale(0.015625)"/>
        <path id="ArialMT-30" d="M 266 2259 
Q 266 3072 433 3567 
Q 600 4063 929 4331 
Q 1259 4600 1759 4600 
Q 2128 4600 2406 4451 
Q 2684 4303 2865 4023 
Q 3047 3744 3150 3342 
Q 3253 2941 3253 2259 
Q 3253 1453 3087 958 
Q 2922 463 2592 192 
Q 2263 -78 1759 -78 
Q 1097 -78 719 397 
Q 266 969 266 2259 
z
M 844 2259 
Q 844 1131 1108 757 
Q 1372 384 1759 384 
Q 2147 384 2411 759 
Q 2675 1134 2675 2259 
Q 2675 3391 2411 3762 
Q 2147 4134 1753 4134 
Q 1366 4134 1134 3806 
Q 844 3388 844 2259 
z
" transform="scale(0.015625)"/>
       </defs>
       <use xlink:href="#ArialMT-31"/>
       <use xlink:href="#ArialMT-30" transform="translate(55.615234 0)"/>
      </g>
     </g>
    </g>
    <g id="ytick_2">
     <g id="line2d_2">
      <path d="M 41.695313 325.878867 
L 991.816563 325.878867 
" clip-path="url(#pbd229d659a)" style="fill: none; stroke: #cccccc; stroke-opacity: 0.3; stroke-width: 0.8; stroke-linecap: round"/>
     </g>
     <g id="text_10">
      <!-- 20 -->
      <g style="fill: #262626" transform="translate(22.46125 329.815664) scale(0.11 -0.11)">
       <defs>
        <path id="ArialMT-32" d="M 3222 541 
L 3222 0 
L 194 0 
Q 188 203 259 391 
Q 375 700 629 1000 
Q 884 1300 1366 1694 
Q 2113 2306 2375 2664 
Q 2638 3022 2638 3341 
Q 2638 3675 2398 3904 
Q 2159 4134 1775 4134 
Q 1369 4134 1125 3890 
Q 881 3647 878 3216 
L 300 3275 
Q 359 3922 746 4261 
Q 1134 4600 1788 4600 
Q 2447 4600 2831 4234 
Q 3216 3869 3216 3328 
Q 3216 3053 3103 2787 
Q 2991 2522 2730 2228 
Q 2469 1934 1863 1422 
Q 1356 997 1212 845 
Q 1069 694 975 541 
L 3222 541 
z
" transform="scale(0.015625)"/>
       </defs>
       <use xlink:href="#ArialMT-32"/>
       <use xlink:href="#ArialMT-30" transform="translate(55.615234 0)"/>
      </g>
     </g>
    </g>
    <g id="ytick_3">
     <g id="line2d_3">
      <path d="M 41.695313 248.658883 
L 991.816563 248.658883 
" clip-path="url(#pbd229d659a)" style="fill: none; stroke: #cccccc; stroke-opacity: 0.3; stroke-width: 0.8; stroke-linecap: round"/>
     </g>
     <g id="text_11">
      <!-- 30 -->
      <g style="fill: #262626" transform="translate(22.46125 252.59568) scale(0.11 -0.11)">
       <defs>
        <path id="ArialMT-33" d="M 269 1209 
L 831 1284 
Q 928 806 1161 595 
Q 1394 384 1728 384 
Q 2125 384 2398 659 
Q 2672 934 2672 1341 
Q 2672 1728 2419 1979 
Q 2166 2231 1775 2231 
Q 1616 2231 1378 2169 
L 1441 2663 
Q 1497 2656 1531 2656 
Q 1891 2656 2178 2843 
Q 2466 3031 2466 3422 
Q 2466 3731 2256 3934 
Q 2047 4138 1716 4138 
Q 1388 4138 1169 3931 
Q 950 3725 888 3313 
L 325 3413 
Q 428 3978 793 4289 
Q 1159 4600 1703 4600 
Q 2078 4600 2393 4439 
Q 2709 4278 2876 4000 
Q 3044 3722 3044 3409 
Q 3044 3113 2884 2869 
Q 2725 2625 2413 2481 
Q 2819 2388 3044 2092 
Q 3269 1797 3269 1353 
Q 3269 753 2831 336 
Q 2394 -81 1725 -81 
Q 1122 -81 723 278 
Q 325 638 269 1209 
z
" transform="scale(0.015625)"/>
       </defs>
       <use xlink:href="#ArialMT-33"/>
       <use xlink:href="#ArialMT-30" transform="translate(55.615234 0)"/>
      </g>
     </g>
    </g>
    <g id="ytick_4">
     <g id="line2d_4">
      <path d="M 41.695313 171.438899 
L 991.816563 171.438899 
" clip-path="url(#pbd229d659a)" style="fill: none; stroke: #cccccc; stroke-opacity: 0.3; stroke-width: 0.8; stroke-linecap: round"/>
     </g>
     <g id="text_12">
      <!-- 40 -->
      <g style="fill: #262626" transform="translate(22.46125 175.375696) scale(0.11 -0.11)">
       <defs>
        <path id="ArialMT-34" d="M 2069 0 
L 2069 1097 
L 81 1097 
L 81 1613 
L 2172 4581 
L 2631 4581 
L 2631 1613 
L 3250 1613 
L 3250 1097 
L 2631 1097 
L 2631 0 
L 2069 0 
z
M 2069 1613 
L 2069 3678 
L 634 1613 
L 2069 1613 
z
" transform="scale(0.015625)"/>
       </defs>
       <use xlink:href="#ArialMT-34"/>
       <use xlink:href="#ArialMT-30" transform="translate(55.615234 0)"/>
      </g>
     </g>
    </g>
    <g id="ytick_5">
     <g id="line2d_5">
      <path d="M 41.695313 94.218915 
L 991.816563 94.218915 
" clip-path="url(#pbd229d659a)" style="fill: none; stroke: #cccccc; stroke-opacity: 0.3; stroke-width: 0.8; stroke-linecap: round"/>
     </g>
     <g id="text_13">
      <!-- 50 -->
      <g style="fill: #262626" transform="translate(22.46125 98.155712) scale(0.11 -0.11)">
       <defs>
        <path id="ArialMT-35" d="M 266 1200 
L 856 1250 
Q 922 819 1161 601 
Q 1400 384 1738 384 
Q 2144 384 2425 690 
Q 2706 997 2706 1503 
Q 2706 1984 2436 2262 
Q 2166 2541 1728 2541 
Q 1456 2541 1237 2417 
Q 1019 2294 894 2097 
L 366 2166 
L 809 4519 
L 3088 4519 
L 3088 3981 
L 1259 3981 
L 1013 2750 
Q 1425 3038 1878 3038 
Q 2478 3038 2890 2622 
Q 3303 2206 3303 1553 
Q 3303 931 2941 478 
Q 2500 -78 1738 -78 
Q 1113 -78 717 272 
Q 322 622 266 1200 
z
" transform="scale(0.015625)"/>
       </defs>
       <use xlink:href="#ArialMT-35"/>
       <use xlink:href="#ArialMT-30" transform="translate(55.615234 0)"/>
      </g>
     </g>
    </g>
    <g id="text_14">
     <!-- Female Labor Force Participation (%) -->
     <g style="fill: #262626" transform="translate(15.935625 347.894572) rotate(-90) scale(0.12 -0.12)">
      <defs>
       <path id="Arial-BoldMT-46" d="M 472 0 
L 472 4581 
L 3613 4581 
L 3613 3806 
L 1397 3806 
L 1397 2722 
L 3309 2722 
L 3309 1947 
L 1397 1947 
L 1397 0 
L 472 0 
z
" transform="scale(0.015625)"/>
       <path id="Arial-BoldMT-6d" d="M 394 3319 
L 1203 3319 
L 1203 2866 
Q 1638 3394 2238 3394 
Q 2556 3394 2790 3262 
Q 3025 3131 3175 2866 
Q 3394 3131 3647 3262 
Q 3900 3394 4188 3394 
Q 4553 3394 4806 3245 
Q 5059 3097 5184 2809 
Q 5275 2597 5275 2122 
L 5275 0 
L 4397 0 
L 4397 1897 
Q 4397 2391 4306 2534 
Q 4184 2722 3931 2722 
Q 3747 2722 3584 2609 
Q 3422 2497 3350 2280 
Q 3278 2063 3278 1594 
L 3278 0 
L 2400 0 
L 2400 1819 
Q 2400 2303 2353 2443 
Q 2306 2584 2207 2653 
Q 2109 2722 1941 2722 
Q 1738 2722 1575 2612 
Q 1413 2503 1342 2297 
Q 1272 2091 1272 1613 
L 1272 0 
L 394 0 
L 394 3319 
z
" transform="scale(0.015625)"/>
       <path id="Arial-BoldMT-61" d="M 1116 2306 
L 319 2450 
Q 453 2931 781 3162 
Q 1109 3394 1756 3394 
Q 2344 3394 2631 3255 
Q 2919 3116 3036 2902 
Q 3153 2688 3153 2116 
L 3144 1091 
Q 3144 653 3186 445 
Q 3228 238 3344 0 
L 2475 0 
Q 2441 88 2391 259 
Q 2369 338 2359 363 
Q 2134 144 1878 34 
Q 1622 -75 1331 -75 
Q 819 -75 523 203 
Q 228 481 228 906 
Q 228 1188 362 1408 
Q 497 1628 739 1745 
Q 981 1863 1438 1950 
Q 2053 2066 2291 2166 
L 2291 2253 
Q 2291 2506 2166 2614 
Q 2041 2722 1694 2722 
Q 1459 2722 1328 2630 
Q 1197 2538 1116 2306 
z
M 2291 1594 
Q 2122 1538 1756 1459 
Q 1391 1381 1278 1306 
Q 1106 1184 1106 997 
Q 1106 813 1243 678 
Q 1381 544 1594 544 
Q 1831 544 2047 700 
Q 2206 819 2256 991 
Q 2291 1103 2291 1419 
L 2291 1594 
z
" transform="scale(0.015625)"/>
       <path id="Arial-BoldMT-6c" d="M 459 0 
L 459 4581 
L 1338 4581 
L 1338 0 
L 459 0 
z
" transform="scale(0.015625)"/>
       <path id="Arial-BoldMT-20" transform="scale(0.015625)"/>
       <path id="Arial-BoldMT-4c" d="M 491 0 
L 491 4544 
L 1416 4544 
L 1416 772 
L 3716 772 
L 3716 0 
L 491 0 
z
" transform="scale(0.015625)"/>
       <path id="Arial-BoldMT-62" d="M 422 0 
L 422 4581 
L 1300 4581 
L 1300 2931 
Q 1706 3394 2263 3394 
Q 2869 3394 3266 2955 
Q 3663 2516 3663 1694 
Q 3663 844 3258 384 
Q 2853 -75 2275 -75 
Q 1991 -75 1714 67 
Q 1438 209 1238 488 
L 1238 0 
L 422 0 
z
M 1294 1731 
Q 1294 1216 1456 969 
Q 1684 619 2063 619 
Q 2353 619 2558 867 
Q 2763 1116 2763 1650 
Q 2763 2219 2556 2470 
Q 2350 2722 2028 2722 
Q 1713 2722 1503 2476 
Q 1294 2231 1294 1731 
z
" transform="scale(0.015625)"/>
       <path id="Arial-BoldMT-72" d="M 1300 0 
L 422 0 
L 422 3319 
L 1238 3319 
L 1238 2847 
Q 1447 3181 1614 3287 
Q 1781 3394 1994 3394 
Q 2294 3394 2572 3228 
L 2300 2463 
Q 2078 2606 1888 2606 
Q 1703 2606 1575 2504 
Q 1447 2403 1373 2137 
Q 1300 1872 1300 1025 
L 1300 0 
z
" transform="scale(0.015625)"/>
       <path id="Arial-BoldMT-63" d="M 3353 2338 
L 2488 2181 
Q 2444 2441 2289 2572 
Q 2134 2703 1888 2703 
Q 1559 2703 1364 2476 
Q 1169 2250 1169 1719 
Q 1169 1128 1367 884 
Q 1566 641 1900 641 
Q 2150 641 2309 783 
Q 2469 925 2534 1272 
L 3397 1125 
Q 3263 531 2881 228 
Q 2500 -75 1859 -75 
Q 1131 -75 698 384 
Q 266 844 266 1656 
Q 266 2478 700 2936 
Q 1134 3394 1875 3394 
Q 2481 3394 2839 3133 
Q 3197 2872 3353 2338 
z
" transform="scale(0.015625)"/>
       <path id="Arial-BoldMT-50" d="M 466 0 
L 466 4581 
L 1950 4581 
Q 2794 4581 3050 4513 
Q 3444 4409 3709 4064 
Q 3975 3719 3975 3172 
Q 3975 2750 3822 2462 
Q 3669 2175 3433 2011 
Q 3197 1847 2953 1794 
Q 2622 1728 1994 1728 
L 1391 1728 
L 1391 0 
L 466 0 
z
M 1391 3806 
L 1391 2506 
L 1897 2506 
Q 2444 2506 2628 2578 
Q 2813 2650 2917 2803 
Q 3022 2956 3022 3159 
Q 3022 3409 2875 3571 
Q 2728 3734 2503 3775 
Q 2338 3806 1838 3806 
L 1391 3806 
z
" transform="scale(0.015625)"/>
       <path id="Arial-BoldMT-74" d="M 1981 3319 
L 1981 2619 
L 1381 2619 
L 1381 1281 
Q 1381 875 1398 808 
Q 1416 741 1477 697 
Q 1538 653 1625 653 
Q 1747 653 1978 738 
L 2053 56 
Q 1747 -75 1359 -75 
Q 1122 -75 931 4 
Q 741 84 652 211 
Q 563 338 528 553 
Q 500 706 500 1172 
L 500 2619 
L 97 2619 
L 97 3319 
L 500 3319 
L 500 3978 
L 1381 4491 
L 1381 3319 
L 1981 3319 
z
" transform="scale(0.015625)"/>
       <path id="Arial-BoldMT-70" d="M 434 3319 
L 1253 3319 
L 1253 2831 
Q 1413 3081 1684 3237 
Q 1956 3394 2288 3394 
Q 2866 3394 3269 2941 
Q 3672 2488 3672 1678 
Q 3672 847 3265 386 
Q 2859 -75 2281 -75 
Q 2006 -75 1782 34 
Q 1559 144 1313 409 
L 1313 -1263 
L 434 -1263 
L 434 3319 
z
M 1303 1716 
Q 1303 1156 1525 889 
Q 1747 622 2066 622 
Q 2372 622 2575 867 
Q 2778 1113 2778 1672 
Q 2778 2194 2568 2447 
Q 2359 2700 2050 2700 
Q 1728 2700 1515 2451 
Q 1303 2203 1303 1716 
z
" transform="scale(0.015625)"/>
       <path id="Arial-BoldMT-28" d="M 1916 -1347 
L 1313 -1347 
Q 834 -625 584 153 
Q 334 931 334 1659 
Q 334 2563 644 3369 
Q 913 4069 1325 4659 
L 1925 4659 
Q 1497 3713 1336 3048 
Q 1175 2384 1175 1641 
Q 1175 1128 1270 590 
Q 1366 53 1531 -431 
Q 1641 -750 1916 -1347 
z
" transform="scale(0.015625)"/>
       <path id="Arial-BoldMT-25" d="M 278 3450 
Q 278 4066 548 4362 
Q 819 4659 1281 4659 
Q 1759 4659 2029 4364 
Q 2300 4069 2300 3450 
Q 2300 2834 2029 2537 
Q 1759 2241 1297 2241 
Q 819 2241 548 2536 
Q 278 2831 278 3450 
z
M 963 3456 
Q 963 3009 1066 2856 
Q 1144 2744 1281 2744 
Q 1422 2744 1500 2856 
Q 1600 3009 1600 3456 
Q 1600 3903 1500 4053 
Q 1422 4169 1281 4169 
Q 1144 4169 1066 4056 
Q 963 3903 963 3456 
z
M 1950 -175 
L 1300 -175 
L 3741 4659 
L 4372 4659 
L 1950 -175 
z
M 3369 1028 
Q 3369 1644 3639 1941 
Q 3909 2238 4378 2238 
Q 4850 2238 5120 1941 
Q 5391 1644 5391 1028 
Q 5391 409 5120 112 
Q 4850 -184 4388 -184 
Q 3909 -184 3639 112 
Q 3369 409 3369 1028 
z
M 4053 1031 
Q 4053 584 4156 434 
Q 4234 319 4372 319 
Q 4513 319 4588 431 
Q 4691 584 4691 1031 
Q 4691 1478 4591 1631 
Q 4513 1744 4372 1744 
Q 4231 1744 4156 1631 
Q 4053 1478 4053 1031 
z
" transform="scale(0.015625)"/>
       <path id="Arial-BoldMT-29" d="M 216 -1347 
Q 475 -791 581 -494 
Q 688 -197 778 190 
Q 869 578 912 926 
Q 956 1275 956 1641 
Q 956 2384 797 3048 
Q 638 3713 209 4659 
L 806 4659 
Q 1278 3988 1539 3234 
Q 1800 2481 1800 1706 
Q 1800 1053 1594 306 
Q 1359 -531 822 -1347 
L 216 -1347 
z
" transform="scale(0.015625)"/>
      </defs>
      <use xlink:href="#Arial-BoldMT-46"/>
      <use xlink:href="#Arial-BoldMT-65" transform="translate(61.083984 0)"/>
      <use xlink:href="#Arial-BoldMT-6d" transform="translate(116.699219 0)"/>
      <use xlink:href="#Arial-BoldMT-61" transform="translate(205.615234 0)"/>
      <use xlink:href="#Arial-BoldMT-6c" transform="translate(261.230469 0)"/>
      <use xlink:href="#Arial-BoldMT-65" transform="translate(289.013672 0)"/>
      <use xlink:href="#Arial-BoldMT-20" transform="translate(344.628906 0)"/>
      <use xlink:href="#Arial-BoldMT-4c" transform="translate(372.412109 0)"/>
      <use xlink:href="#Arial-BoldMT-61" transform="translate(433.496094 0)"/>
      <use xlink:href="#Arial-BoldMT-62" transform="translate(489.111328 0)"/>
      <use xlink:href="#Arial-BoldMT-6f" transform="translate(550.195312 0)"/>
      <use xlink:href="#Arial-BoldMT-72" transform="translate(611.279297 0)"/>
      <use xlink:href="#Arial-BoldMT-20" transform="translate(650.195312 0)"/>
      <use xlink:href="#Arial-BoldMT-46" transform="translate(677.978516 0)"/>
      <use xlink:href="#Arial-BoldMT-6f" transform="translate(739.0625 0)"/>
      <use xlink:href="#Arial-BoldMT-72" transform="translate(800.146484 0)"/>
      <use xlink:href="#Arial-BoldMT-63" transform="translate(839.0625 0)"/>
      <use xlink:href="#Arial-BoldMT-65" transform="translate(894.677734 0)"/>
      <use xlink:href="#Arial-BoldMT-20" transform="translate(950.292969 0)"/>
      <use xlink:href="#Arial-BoldMT-50" transform="translate(978.076172 0)"/>
      <use xlink:href="#Arial-BoldMT-61" transform="translate(1044.775391 0)"/>
      <use xlink:href="#Arial-BoldMT-72" transform="translate(1100.390625 0)"/>
      <use xlink:href="#Arial-BoldMT-74" transform="translate(1139.306641 0)"/>
      <use xlink:href="#Arial-BoldMT-69" transform="translate(1172.607422 0)"/>
      <use xlink:href="#Arial-BoldMT-63" transform="translate(1200.390625 0)"/>
      <use xlink:href="#Arial-BoldMT-69" transform="translate(1256.005859 0)"/>
      <use xlink:href="#Arial-BoldMT-70" transform="translate(1283.789062 0)"/>
      <use xlink:href="#Arial-BoldMT-61" transform="translate(1344.873047 0)"/>
      <use xlink:href="#Arial-BoldMT-74" transform="translate(1400.488281 0)"/>
      <use xlink:href="#Arial-BoldMT-69" transform="translate(1433.789062 0)"/>
      <use xlink:href="#Arial-BoldMT-6f" transform="translate(1461.572266 0)"/>
      <use xlink:href="#Arial-BoldMT-6e" transform="translate(1522.65625 0)"/>
      <use xlink:href="#Arial-BoldMT-20" transform="translate(1583.740234 0)"/>
      <use xlink:href="#Arial-BoldMT-28" transform="translate(1611.523438 0)"/>
      <use xlink:href="#Arial-BoldMT-25" transform="translate(1644.824219 0)"/>
      <use xlink:href="#Arial-BoldMT-29" transform="translate(1733.740234 0)"/>
     </g>
    </g>
   </g>
   <g id="patch_3">
    <path d="M 55.268473 320.607617 
L 163.853759 320.607617 
L 163.853759 223.58223 
L 55.268473 223.58223 
L 55.268473 320.607617 
z
" clip-path="url(#pbd229d659a)" style="fill: #72b6a1; stroke: #595959; stroke-linejoin: miter"/>
   </g>
   <g id="line2d_6">
    <path d="M 109.561116 320.607617 
L 109.561116 427.775377 
" clip-path="url(#pbd229d659a)" style="fill: none; stroke: #595959"/>
   </g>
   <g id="line2d_7">
    <path d="M 109.561116 223.58223 
L 109.561116 136.289162 
" clip-path="url(#pbd229d659a)" style="fill: none; stroke: #595959"/>
   </g>
   <g id="line2d_8">
    <path d="M 82.414795 427.775377 
L 136.707438 427.775377 
" clip-path="url(#pbd229d659a)" style="fill: none; stroke: #595959; stroke-linecap: round"/>
   </g>
   <g id="line2d_9">
    <path d="M 82.414795 136.289162 
L 136.707438 136.289162 
" clip-path="url(#pbd229d659a)" style="fill: none; stroke: #595959; stroke-linecap: round"/>
   </g>
   <g id="line2d_10"/>
   <g id="patch_4">
    <path d="M 191.00008 150.222078 
L 299.585366 150.222078 
L 299.585366 111.695645 
L 191.00008 111.695645 
L 191.00008 150.222078 
z
" clip-path="url(#pbd229d659a)" style="fill: #e99675; stroke: #595959; stroke-linejoin: miter"/>
   </g>
   <g id="line2d_11">
    <path d="M 245.292723 150.222078 
L 245.292723 207.575373 
" clip-path="url(#pbd229d659a)" style="fill: none; stroke: #595959"/>
   </g>
   <g id="line2d_12">
    <path d="M 245.292723 111.695645 
L 245.292723 57.405454 
" clip-path="url(#pbd229d659a)" style="fill: none; stroke: #595959"/>
   </g>
   <g id="line2d_13">
    <path d="M 218.146402 207.575373 
L 272.439045 207.575373 
" clip-path="url(#pbd229d659a)" style="fill: none; stroke: #595959; stroke-linecap: round"/>
   </g>
   <g id="line2d_14">
    <path d="M 218.146402 57.405454 
L 272.439045 57.405454 
" clip-path="url(#pbd229d659a)" style="fill: none; stroke: #595959; stroke-linecap: round"/>
   </g>
   <g id="line2d_15">
    <defs>
     <path id="m1a982aef46" d="M 0 3 
C 0.795609 3 1.55874 2.683901 2.12132 2.12132 
C 2.683901 1.55874 3 0.795609 3 0 
C 3 -0.795609 2.683901 -1.55874 2.12132 -2.12132 
C 1.55874 -2.683901 0.795609 -3 0 -3 
C -0.795609 -3 -1.55874 -2.683901 -2.12132 -2.12132 
C -2.683901 -1.55874 -3 -0.795609 -3 0 
C -3 0.795609 -2.683901 1.55874 -2.12132 2.12132 
C -1.55874 2.683901 -0.795609 3 0 3 
z
" style="stroke: #595959"/>
    </defs>
    <g clip-path="url(#pbd229d659a)">
     <use xlink:href="#m1a982aef46" x="245.292723" y="209.503196" style="fill-opacity: 0; stroke: #595959"/>
     <use xlink:href="#m1a982aef46" x="245.292723" y="209.503196" style="fill-opacity: 0; stroke: #595959"/>
     <use xlink:href="#m1a982aef46" x="245.292723" y="209.503196" style="fill-opacity: 0; stroke: #595959"/>
     <use xlink:href="#m1a982aef46" x="245.292723" y="209.503196" style="fill-opacity: 0; stroke: #595959"/>
     <use xlink:href="#m1a982aef46" x="245.292723" y="209.503196" style="fill-opacity: 0; stroke: #595959"/>
     <use xlink:href="#m1a982aef46" x="245.292723" y="209.503196" style="fill-opacity: 0; stroke: #595959"/>
     <use xlink:href="#m1a982aef46" x="245.292723" y="209.503196" style="fill-opacity: 0; stroke: #595959"/>
     <use xlink:href="#m1a982aef46" x="245.292723" y="209.503196" style="fill-opacity: 0; stroke: #595959"/>
     <use xlink:href="#m1a982aef46" x="245.292723" y="209.503196" style="fill-opacity: 0; stroke: #595959"/>
     <use xlink:href="#m1a982aef46" x="245.292723" y="209.503196" style="fill-opacity: 0; stroke: #595959"/>
     <use xlink:href="#m1a982aef46" x="245.292723" y="209.503196" style="fill-opacity: 0; stroke: #595959"/>
     <use xlink:href="#m1a982aef46" x="245.292723" y="208.331279" style="fill-opacity: 0; stroke: #595959"/>
     <use xlink:href="#m1a982aef46" x="245.292723" y="210.674291" style="fill-opacity: 0; stroke: #595959"/>
     <use xlink:href="#m1a982aef46" x="245.292723" y="209.555003" style="fill-opacity: 0; stroke: #595959"/>
     <use xlink:href="#m1a982aef46" x="245.292723" y="209.555003" style="fill-opacity: 0; stroke: #595959"/>
     <use xlink:href="#m1a982aef46" x="245.292723" y="209.555003" style="fill-opacity: 0; stroke: #595959"/>
     <use xlink:href="#m1a982aef46" x="245.292723" y="209.555003" style="fill-opacity: 0; stroke: #595959"/>
     <use xlink:href="#m1a982aef46" x="245.292723" y="209.555003" style="fill-opacity: 0; stroke: #595959"/>
     <use xlink:href="#m1a982aef46" x="245.292723" y="209.555003" style="fill-opacity: 0; stroke: #595959"/>
     <use xlink:href="#m1a982aef46" x="245.292723" y="209.555003" style="fill-opacity: 0; stroke: #595959"/>
     <use xlink:href="#m1a982aef46" x="245.292723" y="209.555003" style="fill-opacity: 0; stroke: #595959"/>
     <use xlink:href="#m1a982aef46" x="245.292723" y="209.555003" style="fill-opacity: 0; stroke: #595959"/>
     <use xlink:href="#m1a982aef46" x="245.292723" y="209.555003" style="fill-opacity: 0; stroke: #595959"/>
     <use xlink:href="#m1a982aef46" x="245.292723" y="209.555003" style="fill-opacity: 0; stroke: #595959"/>
     <use xlink:href="#m1a982aef46" x="245.292723" y="211.462618" style="fill-opacity: 0; stroke: #595959"/>
     <use xlink:href="#m1a982aef46" x="245.292723" y="211.462618" style="fill-opacity: 0; stroke: #595959"/>
     <use xlink:href="#m1a982aef46" x="245.292723" y="211.462618" style="fill-opacity: 0; stroke: #595959"/>
     <use xlink:href="#m1a982aef46" x="245.292723" y="211.462618" style="fill-opacity: 0; stroke: #595959"/>
     <use xlink:href="#m1a982aef46" x="245.292723" y="211.462618" style="fill-opacity: 0; stroke: #595959"/>
     <use xlink:href="#m1a982aef46" x="245.292723" y="211.462618" style="fill-opacity: 0; stroke: #595959"/>
     <use xlink:href="#m1a982aef46" x="245.292723" y="211.462618" style="fill-opacity: 0; stroke: #595959"/>
     <use xlink:href="#m1a982aef46" x="245.292723" y="211.462618" style="fill-opacity: 0; stroke: #595959"/>
     <use xlink:href="#m1a982aef46" x="245.292723" y="211.462618" style="fill-opacity: 0; stroke: #595959"/>
     <use xlink:href="#m1a982aef46" x="245.292723" y="211.462618" style="fill-opacity: 0; stroke: #595959"/>
     <use xlink:href="#m1a982aef46" x="245.292723" y="211.462618" style="fill-opacity: 0; stroke: #595959"/>
     <use xlink:href="#m1a982aef46" x="245.292723" y="214.079309" style="fill-opacity: 0; stroke: #595959"/>
     <use xlink:href="#m1a982aef46" x="245.292723" y="214.079309" style="fill-opacity: 0; stroke: #595959"/>
     <use xlink:href="#m1a982aef46" x="245.292723" y="214.079309" style="fill-opacity: 0; stroke: #595959"/>
     <use xlink:href="#m1a982aef46" x="245.292723" y="214.079309" style="fill-opacity: 0; stroke: #595959"/>
     <use xlink:href="#m1a982aef46" x="245.292723" y="214.079309" style="fill-opacity: 0; stroke: #595959"/>
     <use xlink:href="#m1a982aef46" x="245.292723" y="214.079309" style="fill-opacity: 0; stroke: #595959"/>
     <use xlink:href="#m1a982aef46" x="245.292723" y="214.079309" style="fill-opacity: 0; stroke: #595959"/>
     <use xlink:href="#m1a982aef46" x="245.292723" y="214.079309" style="fill-opacity: 0; stroke: #595959"/>
     <use xlink:href="#m1a982aef46" x="245.292723" y="214.079309" style="fill-opacity: 0; stroke: #595959"/>
     <use xlink:href="#m1a982aef46" x="245.292723" y="214.079309" style="fill-opacity: 0; stroke: #595959"/>
     <use xlink:href="#m1a982aef46" x="245.292723" y="214.079309" style="fill-opacity: 0; stroke: #595959"/>
     <use xlink:href="#m1a982aef46" x="245.292723" y="212.850211" style="fill-opacity: 0; stroke: #595959"/>
     <use xlink:href="#m1a982aef46" x="245.292723" y="249.478829" style="fill-opacity: 0; stroke: #595959"/>
     <use xlink:href="#m1a982aef46" x="245.292723" y="249.478829" style="fill-opacity: 0; stroke: #595959"/>
     <use xlink:href="#m1a982aef46" x="245.292723" y="249.478829" style="fill-opacity: 0; stroke: #595959"/>
     <use xlink:href="#m1a982aef46" x="245.292723" y="249.478829" style="fill-opacity: 0; stroke: #595959"/>
     <use xlink:href="#m1a982aef46" x="245.292723" y="249.478829" style="fill-opacity: 0; stroke: #595959"/>
     <use xlink:href="#m1a982aef46" x="245.292723" y="249.478829" style="fill-opacity: 0; stroke: #595959"/>
     <use xlink:href="#m1a982aef46" x="245.292723" y="249.478829" style="fill-opacity: 0; stroke: #595959"/>
     <use xlink:href="#m1a982aef46" x="245.292723" y="249.478829" style="fill-opacity: 0; stroke: #595959"/>
     <use xlink:href="#m1a982aef46" x="245.292723" y="249.478829" style="fill-opacity: 0; stroke: #595959"/>
     <use xlink:href="#m1a982aef46" x="245.292723" y="249.478829" style="fill-opacity: 0; stroke: #595959"/>
     <use xlink:href="#m1a982aef46" x="245.292723" y="249.478829" style="fill-opacity: 0; stroke: #595959"/>
     <use xlink:href="#m1a982aef46" x="245.292723" y="250.472753" style="fill-opacity: 0; stroke: #595959"/>
     <use xlink:href="#m1a982aef46" x="245.292723" y="255.861865" style="fill-opacity: 0; stroke: #595959"/>
     <use xlink:href="#m1a982aef46" x="245.292723" y="283.147965" style="fill-opacity: 0; stroke: #595959"/>
     <use xlink:href="#m1a982aef46" x="245.292723" y="260.323099" style="fill-opacity: 0; stroke: #595959"/>
     <use xlink:href="#m1a982aef46" x="245.292723" y="260.517679" style="fill-opacity: 0; stroke: #595959"/>
     <use xlink:href="#m1a982aef46" x="245.292723" y="261.196779" style="fill-opacity: 0; stroke: #595959"/>
     <use xlink:href="#m1a982aef46" x="245.292723" y="268.939465" style="fill-opacity: 0; stroke: #595959"/>
     <use xlink:href="#m1a982aef46" x="245.292723" y="266.408423" style="fill-opacity: 0; stroke: #595959"/>
     <use xlink:href="#m1a982aef46" x="245.292723" y="260.426912" style="fill-opacity: 0; stroke: #595959"/>
     <use xlink:href="#m1a982aef46" x="245.292723" y="274.676246" style="fill-opacity: 0; stroke: #595959"/>
     <use xlink:href="#m1a982aef46" x="245.292723" y="269.558539" style="fill-opacity: 0; stroke: #595959"/>
     <use xlink:href="#m1a982aef46" x="245.292723" y="262.355707" style="fill-opacity: 0; stroke: #595959"/>
     <use xlink:href="#m1a982aef46" x="245.292723" y="267.234004" style="fill-opacity: 0; stroke: #595959"/>
     <use xlink:href="#m1a982aef46" x="245.292723" y="286.379919" style="fill-opacity: 0; stroke: #595959"/>
     <use xlink:href="#m1a982aef46" x="245.292723" y="287.043188" style="fill-opacity: 0; stroke: #595959"/>
     <use xlink:href="#m1a982aef46" x="245.292723" y="283.694397" style="fill-opacity: 0; stroke: #595959"/>
     <use xlink:href="#m1a982aef46" x="245.292723" y="283.258569" style="fill-opacity: 0; stroke: #595959"/>
     <use xlink:href="#m1a982aef46" x="245.292723" y="278.768277" style="fill-opacity: 0; stroke: #595959"/>
     <use xlink:href="#m1a982aef46" x="245.292723" y="270.67037" style="fill-opacity: 0; stroke: #595959"/>
     <use xlink:href="#m1a982aef46" x="245.292723" y="262.287861" style="fill-opacity: 0; stroke: #595959"/>
     <use xlink:href="#m1a982aef46" x="245.292723" y="257.6837" style="fill-opacity: 0; stroke: #595959"/>
     <use xlink:href="#m1a982aef46" x="245.292723" y="252.411656" style="fill-opacity: 0; stroke: #595959"/>
     <use xlink:href="#m1a982aef46" x="245.292723" y="246.512059" style="fill-opacity: 0; stroke: #595959"/>
     <use xlink:href="#m1a982aef46" x="245.292723" y="248.582819" style="fill-opacity: 0; stroke: #595959"/>
     <use xlink:href="#m1a982aef46" x="245.292723" y="242.687708" style="fill-opacity: 0; stroke: #595959"/>
     <use xlink:href="#m1a982aef46" x="245.292723" y="238.631501" style="fill-opacity: 0; stroke: #595959"/>
     <use xlink:href="#m1a982aef46" x="245.292723" y="233.896758" style="fill-opacity: 0; stroke: #595959"/>
     <use xlink:href="#m1a982aef46" x="245.292723" y="231.342799" style="fill-opacity: 0; stroke: #595959"/>
     <use xlink:href="#m1a982aef46" x="245.292723" y="228.823953" style="fill-opacity: 0; stroke: #595959"/>
     <use xlink:href="#m1a982aef46" x="245.292723" y="237.631979" style="fill-opacity: 0; stroke: #595959"/>
     <use xlink:href="#m1a982aef46" x="245.292723" y="232.477075" style="fill-opacity: 0; stroke: #595959"/>
     <use xlink:href="#m1a982aef46" x="245.292723" y="223.865311" style="fill-opacity: 0; stroke: #595959"/>
     <use xlink:href="#m1a982aef46" x="245.292723" y="219.521344" style="fill-opacity: 0; stroke: #595959"/>
     <use xlink:href="#m1a982aef46" x="245.292723" y="217.367694" style="fill-opacity: 0; stroke: #595959"/>
     <use xlink:href="#m1a982aef46" x="245.292723" y="208.552232" style="fill-opacity: 0; stroke: #595959"/>
    </g>
   </g>
   <g id="patch_5">
    <path d="M 326.731688 367.764161 
L 435.316973 367.764161 
L 435.316973 297.832679 
L 326.731688 297.832679 
L 326.731688 367.764161 
z
" clip-path="url(#pbd229d659a)" style="fill: #95a3c3; stroke: #595959; stroke-linejoin: miter"/>
   </g>
   <g id="line2d_16">
    <path d="M 381.02433 367.764161 
L 381.02433 422.941794 
" clip-path="url(#pbd229d659a)" style="fill: none; stroke: #595959"/>
   </g>
   <g id="line2d_17">
    <path d="M 381.02433 297.832679 
L 381.02433 216.572891 
" clip-path="url(#pbd229d659a)" style="fill: none; stroke: #595959"/>
   </g>
   <g id="line2d_18">
    <path d="M 353.878009 422.941794 
L 408.170652 422.941794 
" clip-path="url(#pbd229d659a)" style="fill: none; stroke: #595959; stroke-linecap: round"/>
   </g>
   <g id="line2d_19">
    <path d="M 353.878009 216.572891 
L 408.170652 216.572891 
" clip-path="url(#pbd229d659a)" style="fill: none; stroke: #595959; stroke-linecap: round"/>
   </g>
   <g id="line2d_20"/>
   <g id="patch_6">
    <path d="M 462.463295 147.200481 
L 571.04858 147.200481 
L 571.04858 101.570366 
L 462.463295 101.570366 
L 462.463295 147.200481 
z
" clip-path="url(#pbd229d659a)" style="fill: #db96c0; stroke: #595959; stroke-linejoin: miter"/>
   </g>
   <g id="line2d_21">
    <path d="M 516.755938 147.200481 
L 516.755938 213.369222 
" clip-path="url(#pbd229d659a)" style="fill: none; stroke: #595959"/>
   </g>
   <g id="line2d_22">
    <path d="M 516.755938 101.570366 
L 516.755938 55.981268 
" clip-path="url(#pbd229d659a)" style="fill: none; stroke: #595959"/>
   </g>
   <g id="line2d_23">
    <path d="M 489.609616 213.369222 
L 543.902259 213.369222 
" clip-path="url(#pbd229d659a)" style="fill: none; stroke: #595959; stroke-linecap: round"/>
   </g>
   <g id="line2d_24">
    <path d="M 489.609616 55.981268 
L 543.902259 55.981268 
" clip-path="url(#pbd229d659a)" style="fill: none; stroke: #595959; stroke-linecap: round"/>
   </g>
   <g id="line2d_25">
    <g clip-path="url(#pbd229d659a)">
     <use xlink:href="#m1a982aef46" x="516.755938" y="267.241319" style="fill-opacity: 0; stroke: #595959"/>
     <use xlink:href="#m1a982aef46" x="516.755938" y="267.241319" style="fill-opacity: 0; stroke: #595959"/>
     <use xlink:href="#m1a982aef46" x="516.755938" y="267.241319" style="fill-opacity: 0; stroke: #595959"/>
     <use xlink:href="#m1a982aef46" x="516.755938" y="267.241319" style="fill-opacity: 0; stroke: #595959"/>
     <use xlink:href="#m1a982aef46" x="516.755938" y="267.241319" style="fill-opacity: 0; stroke: #595959"/>
     <use xlink:href="#m1a982aef46" x="516.755938" y="267.241319" style="fill-opacity: 0; stroke: #595959"/>
     <use xlink:href="#m1a982aef46" x="516.755938" y="267.241319" style="fill-opacity: 0; stroke: #595959"/>
     <use xlink:href="#m1a982aef46" x="516.755938" y="267.241319" style="fill-opacity: 0; stroke: #595959"/>
     <use xlink:href="#m1a982aef46" x="516.755938" y="267.241319" style="fill-opacity: 0; stroke: #595959"/>
     <use xlink:href="#m1a982aef46" x="516.755938" y="267.241319" style="fill-opacity: 0; stroke: #595959"/>
     <use xlink:href="#m1a982aef46" x="516.755938" y="267.241319" style="fill-opacity: 0; stroke: #595959"/>
     <use xlink:href="#m1a982aef46" x="516.755938" y="264.649405" style="fill-opacity: 0; stroke: #595959"/>
     <use xlink:href="#m1a982aef46" x="516.755938" y="262.111804" style="fill-opacity: 0; stroke: #595959"/>
     <use xlink:href="#m1a982aef46" x="516.755938" y="259.548441" style="fill-opacity: 0; stroke: #595959"/>
     <use xlink:href="#m1a982aef46" x="516.755938" y="256.892137" style="fill-opacity: 0; stroke: #595959"/>
     <use xlink:href="#m1a982aef46" x="516.755938" y="254.160642" style="fill-opacity: 0; stroke: #595959"/>
     <use xlink:href="#m1a982aef46" x="516.755938" y="251.35791" style="fill-opacity: 0; stroke: #595959"/>
     <use xlink:href="#m1a982aef46" x="516.755938" y="248.542513" style="fill-opacity: 0; stroke: #595959"/>
     <use xlink:href="#m1a982aef46" x="516.755938" y="245.716517" style="fill-opacity: 0; stroke: #595959"/>
     <use xlink:href="#m1a982aef46" x="516.755938" y="242.841818" style="fill-opacity: 0; stroke: #595959"/>
     <use xlink:href="#m1a982aef46" x="516.755938" y="239.957244" style="fill-opacity: 0; stroke: #595959"/>
     <use xlink:href="#m1a982aef46" x="516.755938" y="239.190608" style="fill-opacity: 0; stroke: #595959"/>
     <use xlink:href="#m1a982aef46" x="516.755938" y="237.791642" style="fill-opacity: 0; stroke: #595959"/>
     <use xlink:href="#m1a982aef46" x="516.755938" y="236.500775" style="fill-opacity: 0; stroke: #595959"/>
     <use xlink:href="#m1a982aef46" x="516.755938" y="235.263565" style="fill-opacity: 0; stroke: #595959"/>
     <use xlink:href="#m1a982aef46" x="516.755938" y="234.090009" style="fill-opacity: 0; stroke: #595959"/>
     <use xlink:href="#m1a982aef46" x="516.755938" y="232.994017" style="fill-opacity: 0; stroke: #595959"/>
     <use xlink:href="#m1a982aef46" x="516.755938" y="232.014996" style="fill-opacity: 0; stroke: #595959"/>
     <use xlink:href="#m1a982aef46" x="516.755938" y="231.216777" style="fill-opacity: 0; stroke: #595959"/>
     <use xlink:href="#m1a982aef46" x="516.755938" y="230.442272" style="fill-opacity: 0; stroke: #595959"/>
     <use xlink:href="#m1a982aef46" x="516.755938" y="229.448228" style="fill-opacity: 0; stroke: #595959"/>
     <use xlink:href="#m1a982aef46" x="516.755938" y="228.266003" style="fill-opacity: 0; stroke: #595959"/>
     <use xlink:href="#m1a982aef46" x="516.755938" y="226.922659" style="fill-opacity: 0; stroke: #595959"/>
     <use xlink:href="#m1a982aef46" x="516.755938" y="225.482487" style="fill-opacity: 0; stroke: #595959"/>
     <use xlink:href="#m1a982aef46" x="516.755938" y="224.540775" style="fill-opacity: 0; stroke: #595959"/>
     <use xlink:href="#m1a982aef46" x="516.755938" y="223.667891" style="fill-opacity: 0; stroke: #595959"/>
     <use xlink:href="#m1a982aef46" x="516.755938" y="222.857772" style="fill-opacity: 0; stroke: #595959"/>
     <use xlink:href="#m1a982aef46" x="516.755938" y="222.117125" style="fill-opacity: 0; stroke: #595959"/>
     <use xlink:href="#m1a982aef46" x="516.755938" y="221.903692" style="fill-opacity: 0; stroke: #595959"/>
     <use xlink:href="#m1a982aef46" x="516.755938" y="221.596085" style="fill-opacity: 0; stroke: #595959"/>
     <use xlink:href="#m1a982aef46" x="516.755938" y="221.810978" style="fill-opacity: 0; stroke: #595959"/>
     <use xlink:href="#m1a982aef46" x="516.755938" y="220.62638" style="fill-opacity: 0; stroke: #595959"/>
     <use xlink:href="#m1a982aef46" x="516.755938" y="222.754322" style="fill-opacity: 0; stroke: #595959"/>
     <use xlink:href="#m1a982aef46" x="516.755938" y="222.706522" style="fill-opacity: 0; stroke: #595959"/>
     <use xlink:href="#m1a982aef46" x="516.755938" y="223.018457" style="fill-opacity: 0; stroke: #595959"/>
     <use xlink:href="#m1a982aef46" x="516.755938" y="238.888496" style="fill-opacity: 0; stroke: #595959"/>
     <use xlink:href="#m1a982aef46" x="516.755938" y="238.888496" style="fill-opacity: 0; stroke: #595959"/>
     <use xlink:href="#m1a982aef46" x="516.755938" y="238.888496" style="fill-opacity: 0; stroke: #595959"/>
     <use xlink:href="#m1a982aef46" x="516.755938" y="238.888496" style="fill-opacity: 0; stroke: #595959"/>
     <use xlink:href="#m1a982aef46" x="516.755938" y="238.888496" style="fill-opacity: 0; stroke: #595959"/>
     <use xlink:href="#m1a982aef46" x="516.755938" y="238.888496" style="fill-opacity: 0; stroke: #595959"/>
     <use xlink:href="#m1a982aef46" x="516.755938" y="238.888496" style="fill-opacity: 0; stroke: #595959"/>
     <use xlink:href="#m1a982aef46" x="516.755938" y="238.888496" style="fill-opacity: 0; stroke: #595959"/>
     <use xlink:href="#m1a982aef46" x="516.755938" y="238.888496" style="fill-opacity: 0; stroke: #595959"/>
     <use xlink:href="#m1a982aef46" x="516.755938" y="238.888496" style="fill-opacity: 0; stroke: #595959"/>
     <use xlink:href="#m1a982aef46" x="516.755938" y="238.888496" style="fill-opacity: 0; stroke: #595959"/>
     <use xlink:href="#m1a982aef46" x="516.755938" y="237.899052" style="fill-opacity: 0; stroke: #595959"/>
     <use xlink:href="#m1a982aef46" x="516.755938" y="236.861828" style="fill-opacity: 0; stroke: #595959"/>
     <use xlink:href="#m1a982aef46" x="516.755938" y="235.692269" style="fill-opacity: 0; stroke: #595959"/>
     <use xlink:href="#m1a982aef46" x="516.755938" y="234.36133" style="fill-opacity: 0; stroke: #595959"/>
     <use xlink:href="#m1a982aef46" x="516.755938" y="232.926584" style="fill-opacity: 0; stroke: #595959"/>
     <use xlink:href="#m1a982aef46" x="516.755938" y="232.050118" style="fill-opacity: 0; stroke: #595959"/>
     <use xlink:href="#m1a982aef46" x="516.755938" y="231.169908" style="fill-opacity: 0; stroke: #595959"/>
     <use xlink:href="#m1a982aef46" x="516.755938" y="230.317697" style="fill-opacity: 0; stroke: #595959"/>
     <use xlink:href="#m1a982aef46" x="516.755938" y="229.536085" style="fill-opacity: 0; stroke: #595959"/>
     <use xlink:href="#m1a982aef46" x="516.755938" y="228.801204" style="fill-opacity: 0; stroke: #595959"/>
     <use xlink:href="#m1a982aef46" x="516.755938" y="239.254459" style="fill-opacity: 0; stroke: #595959"/>
     <use xlink:href="#m1a982aef46" x="516.755938" y="231.377139" style="fill-opacity: 0; stroke: #595959"/>
     <use xlink:href="#m1a982aef46" x="516.755938" y="219.725722" style="fill-opacity: 0; stroke: #595959"/>
     <use xlink:href="#m1a982aef46" x="516.755938" y="221.035185" style="fill-opacity: 0; stroke: #595959"/>
     <use xlink:href="#m1a982aef46" x="516.755938" y="233.390866" style="fill-opacity: 0; stroke: #595959"/>
     <use xlink:href="#m1a982aef46" x="516.755938" y="233.390866" style="fill-opacity: 0; stroke: #595959"/>
     <use xlink:href="#m1a982aef46" x="516.755938" y="233.390866" style="fill-opacity: 0; stroke: #595959"/>
     <use xlink:href="#m1a982aef46" x="516.755938" y="233.390866" style="fill-opacity: 0; stroke: #595959"/>
     <use xlink:href="#m1a982aef46" x="516.755938" y="233.390866" style="fill-opacity: 0; stroke: #595959"/>
     <use xlink:href="#m1a982aef46" x="516.755938" y="233.390866" style="fill-opacity: 0; stroke: #595959"/>
     <use xlink:href="#m1a982aef46" x="516.755938" y="233.390866" style="fill-opacity: 0; stroke: #595959"/>
     <use xlink:href="#m1a982aef46" x="516.755938" y="233.390866" style="fill-opacity: 0; stroke: #595959"/>
     <use xlink:href="#m1a982aef46" x="516.755938" y="233.390866" style="fill-opacity: 0; stroke: #595959"/>
     <use xlink:href="#m1a982aef46" x="516.755938" y="233.390866" style="fill-opacity: 0; stroke: #595959"/>
     <use xlink:href="#m1a982aef46" x="516.755938" y="233.390866" style="fill-opacity: 0; stroke: #595959"/>
     <use xlink:href="#m1a982aef46" x="516.755938" y="232.329298" style="fill-opacity: 0; stroke: #595959"/>
     <use xlink:href="#m1a982aef46" x="516.755938" y="231.130072" style="fill-opacity: 0; stroke: #595959"/>
     <use xlink:href="#m1a982aef46" x="516.755938" y="229.836567" style="fill-opacity: 0; stroke: #595959"/>
     <use xlink:href="#m1a982aef46" x="516.755938" y="228.458757" style="fill-opacity: 0; stroke: #595959"/>
     <use xlink:href="#m1a982aef46" x="516.755938" y="226.996952" style="fill-opacity: 0; stroke: #595959"/>
     <use xlink:href="#m1a982aef46" x="516.755938" y="225.445882" style="fill-opacity: 0; stroke: #595959"/>
     <use xlink:href="#m1a982aef46" x="516.755938" y="223.873155" style="fill-opacity: 0; stroke: #595959"/>
     <use xlink:href="#m1a982aef46" x="516.755938" y="222.32655" style="fill-opacity: 0; stroke: #595959"/>
     <use xlink:href="#m1a982aef46" x="516.755938" y="220.90603" style="fill-opacity: 0; stroke: #595959"/>
     <use xlink:href="#m1a982aef46" x="516.755938" y="219.581108" style="fill-opacity: 0; stroke: #595959"/>
     <use xlink:href="#m1a982aef46" x="516.755938" y="218.317694" style="fill-opacity: 0; stroke: #595959"/>
     <use xlink:href="#m1a982aef46" x="516.755938" y="217.317104" style="fill-opacity: 0; stroke: #595959"/>
     <use xlink:href="#m1a982aef46" x="516.755938" y="216.733913" style="fill-opacity: 0; stroke: #595959"/>
     <use xlink:href="#m1a982aef46" x="516.755938" y="216.383011" style="fill-opacity: 0; stroke: #595959"/>
     <use xlink:href="#m1a982aef46" x="516.755938" y="216.102207" style="fill-opacity: 0; stroke: #595959"/>
     <use xlink:href="#m1a982aef46" x="516.755938" y="215.899044" style="fill-opacity: 0; stroke: #595959"/>
     <use xlink:href="#m1a982aef46" x="516.755938" y="297.345324" style="fill-opacity: 0; stroke: #595959"/>
     <use xlink:href="#m1a982aef46" x="516.755938" y="297.345324" style="fill-opacity: 0; stroke: #595959"/>
     <use xlink:href="#m1a982aef46" x="516.755938" y="297.345324" style="fill-opacity: 0; stroke: #595959"/>
     <use xlink:href="#m1a982aef46" x="516.755938" y="297.345324" style="fill-opacity: 0; stroke: #595959"/>
     <use xlink:href="#m1a982aef46" x="516.755938" y="297.345324" style="fill-opacity: 0; stroke: #595959"/>
     <use xlink:href="#m1a982aef46" x="516.755938" y="297.345324" style="fill-opacity: 0; stroke: #595959"/>
     <use xlink:href="#m1a982aef46" x="516.755938" y="297.345324" style="fill-opacity: 0; stroke: #595959"/>
     <use xlink:href="#m1a982aef46" x="516.755938" y="297.345324" style="fill-opacity: 0; stroke: #595959"/>
     <use xlink:href="#m1a982aef46" x="516.755938" y="297.345324" style="fill-opacity: 0; stroke: #595959"/>
     <use xlink:href="#m1a982aef46" x="516.755938" y="297.345324" style="fill-opacity: 0; stroke: #595959"/>
     <use xlink:href="#m1a982aef46" x="516.755938" y="297.345324" style="fill-opacity: 0; stroke: #595959"/>
     <use xlink:href="#m1a982aef46" x="516.755938" y="291.244834" style="fill-opacity: 0; stroke: #595959"/>
     <use xlink:href="#m1a982aef46" x="516.755938" y="285.091626" style="fill-opacity: 0; stroke: #595959"/>
     <use xlink:href="#m1a982aef46" x="516.755938" y="278.969864" style="fill-opacity: 0; stroke: #595959"/>
     <use xlink:href="#m1a982aef46" x="516.755938" y="273.098462" style="fill-opacity: 0; stroke: #595959"/>
     <use xlink:href="#m1a982aef46" x="516.755938" y="267.3494" style="fill-opacity: 0; stroke: #595959"/>
     <use xlink:href="#m1a982aef46" x="516.755938" y="261.632326" style="fill-opacity: 0; stroke: #595959"/>
     <use xlink:href="#m1a982aef46" x="516.755938" y="263.089688" style="fill-opacity: 0; stroke: #595959"/>
     <use xlink:href="#m1a982aef46" x="516.755938" y="264.286253" style="fill-opacity: 0; stroke: #595959"/>
     <use xlink:href="#m1a982aef46" x="516.755938" y="265.393257" style="fill-opacity: 0; stroke: #595959"/>
     <use xlink:href="#m1a982aef46" x="516.755938" y="266.458006" style="fill-opacity: 0; stroke: #595959"/>
     <use xlink:href="#m1a982aef46" x="516.755938" y="267.458556" style="fill-opacity: 0; stroke: #595959"/>
     <use xlink:href="#m1a982aef46" x="516.755938" y="268.399639" style="fill-opacity: 0; stroke: #595959"/>
     <use xlink:href="#m1a982aef46" x="516.755938" y="269.281077" style="fill-opacity: 0; stroke: #595959"/>
     <use xlink:href="#m1a982aef46" x="516.755938" y="269.948898" style="fill-opacity: 0; stroke: #595959"/>
     <use xlink:href="#m1a982aef46" x="516.755938" y="270.450001" style="fill-opacity: 0; stroke: #595959"/>
     <use xlink:href="#m1a982aef46" x="516.755938" y="271.082444" style="fill-opacity: 0; stroke: #595959"/>
     <use xlink:href="#m1a982aef46" x="516.755938" y="271.799773" style="fill-opacity: 0; stroke: #595959"/>
     <use xlink:href="#m1a982aef46" x="516.755938" y="272.333377" style="fill-opacity: 0; stroke: #595959"/>
     <use xlink:href="#m1a982aef46" x="516.755938" y="265.90415" style="fill-opacity: 0; stroke: #595959"/>
     <use xlink:href="#m1a982aef46" x="516.755938" y="258.752492" style="fill-opacity: 0; stroke: #595959"/>
     <use xlink:href="#m1a982aef46" x="516.755938" y="251.39296" style="fill-opacity: 0; stroke: #595959"/>
     <use xlink:href="#m1a982aef46" x="516.755938" y="257.057093" style="fill-opacity: 0; stroke: #595959"/>
     <use xlink:href="#m1a982aef46" x="516.755938" y="262.847341" style="fill-opacity: 0; stroke: #595959"/>
     <use xlink:href="#m1a982aef46" x="516.755938" y="268.423884" style="fill-opacity: 0; stroke: #595959"/>
     <use xlink:href="#m1a982aef46" x="516.755938" y="273.889147" style="fill-opacity: 0; stroke: #595959"/>
     <use xlink:href="#m1a982aef46" x="516.755938" y="279.776749" style="fill-opacity: 0; stroke: #595959"/>
     <use xlink:href="#m1a982aef46" x="516.755938" y="285.504504" style="fill-opacity: 0; stroke: #595959"/>
     <use xlink:href="#m1a982aef46" x="516.755938" y="291.640353" style="fill-opacity: 0; stroke: #595959"/>
     <use xlink:href="#m1a982aef46" x="516.755938" y="298.900267" style="fill-opacity: 0; stroke: #595959"/>
     <use xlink:href="#m1a982aef46" x="516.755938" y="307.988502" style="fill-opacity: 0; stroke: #595959"/>
     <use xlink:href="#m1a982aef46" x="516.755938" y="317.613" style="fill-opacity: 0; stroke: #595959"/>
     <use xlink:href="#m1a982aef46" x="516.755938" y="328.30073" style="fill-opacity: 0; stroke: #595959"/>
     <use xlink:href="#m1a982aef46" x="516.755938" y="328.30073" style="fill-opacity: 0; stroke: #595959"/>
     <use xlink:href="#m1a982aef46" x="516.755938" y="328.30073" style="fill-opacity: 0; stroke: #595959"/>
    </g>
   </g>
   <g id="patch_7">
    <path d="M 598.194902 203.735002 
L 706.780188 203.735002 
L 706.780188 157.786605 
L 598.194902 157.786605 
L 598.194902 203.735002 
z
" clip-path="url(#pbd229d659a)" style="fill: #a2c865; stroke: #595959; stroke-linejoin: miter"/>
   </g>
   <g id="line2d_26">
    <path d="M 652.487545 203.735002 
L 652.487545 257.441517 
" clip-path="url(#pbd229d659a)" style="fill: none; stroke: #595959"/>
   </g>
   <g id="line2d_27">
    <path d="M 652.487545 157.786605 
L 652.487545 91.189754 
" clip-path="url(#pbd229d659a)" style="fill: none; stroke: #595959"/>
   </g>
   <g id="line2d_28">
    <path d="M 625.341223 257.441517 
L 679.633866 257.441517 
" clip-path="url(#pbd229d659a)" style="fill: none; stroke: #595959; stroke-linecap: round"/>
   </g>
   <g id="line2d_29">
    <path d="M 625.341223 91.189754 
L 679.633866 91.189754 
" clip-path="url(#pbd229d659a)" style="fill: none; stroke: #595959; stroke-linecap: round"/>
   </g>
   <g id="line2d_30"/>
   <g id="patch_8">
    <path d="M 733.926509 174.776474 
L 842.511795 174.776474 
L 842.511795 127.957689 
L 733.926509 127.957689 
L 733.926509 174.776474 
z
" clip-path="url(#pbd229d659a)" style="fill: #e5c849; stroke: #595959; stroke-linejoin: miter"/>
   </g>
   <g id="line2d_31">
    <path d="M 788.219152 174.776474 
L 788.219152 243.206786 
" clip-path="url(#pbd229d659a)" style="fill: none; stroke: #595959"/>
   </g>
   <g id="line2d_32">
    <path d="M 788.219152 127.957689 
L 788.219152 68.863229 
" clip-path="url(#pbd229d659a)" style="fill: none; stroke: #595959"/>
   </g>
   <g id="line2d_33">
    <path d="M 761.07283 243.206786 
L 815.365473 243.206786 
" clip-path="url(#pbd229d659a)" style="fill: none; stroke: #595959; stroke-linecap: round"/>
   </g>
   <g id="line2d_34">
    <path d="M 761.07283 68.863229 
L 815.365473 68.863229 
" clip-path="url(#pbd229d659a)" style="fill: none; stroke: #595959; stroke-linecap: round"/>
   </g>
   <g id="line2d_35"/>
   <g id="patch_9">
    <path d="M 869.658116 138.808122 
L 978.243402 138.808122 
L 978.243402 124.40934 
L 869.658116 124.40934 
L 869.658116 138.808122 
z
" clip-path="url(#pbd229d659a)" style="fill: #dbc29e; stroke: #595959; stroke-linejoin: miter"/>
   </g>
   <g id="line2d_36">
    <path d="M 923.950759 138.808122 
L 923.950759 139.607002 
" clip-path="url(#pbd229d659a)" style="fill: none; stroke: #595959"/>
   </g>
   <g id="line2d_37">
    <path d="M 923.950759 124.40934 
L 923.950759 114.704441 
" clip-path="url(#pbd229d659a)" style="fill: none; stroke: #595959"/>
   </g>
   <g id="line2d_38">
    <path d="M 896.804438 139.607002 
L 951.09708 139.607002 
" clip-path="url(#pbd229d659a)" style="fill: none; stroke: #595959; stroke-linecap: round"/>
   </g>
   <g id="line2d_39">
    <path d="M 896.804438 114.704441 
L 951.09708 114.704441 
" clip-path="url(#pbd229d659a)" style="fill: none; stroke: #595959; stroke-linecap: round"/>
   </g>
   <g id="line2d_40"/>
   <g id="line2d_41">
    <path d="M 55.268473 284.530679 
L 163.853759 284.530679 
" clip-path="url(#pbd229d659a)" style="fill: none; stroke: #595959"/>
   </g>
   <g id="line2d_42">
    <path d="M 191.00008 125.601023 
L 299.585366 125.601023 
" clip-path="url(#pbd229d659a)" style="fill: none; stroke: #595959"/>
   </g>
   <g id="line2d_43">
    <path d="M 326.731688 338.012003 
L 435.316973 338.012003 
" clip-path="url(#pbd229d659a)" style="fill: none; stroke: #595959"/>
   </g>
   <g id="line2d_44">
    <path d="M 462.463295 117.067055 
L 571.04858 117.067055 
" clip-path="url(#pbd229d659a)" style="fill: none; stroke: #595959"/>
   </g>
   <g id="line2d_45">
    <path d="M 598.194902 179.159198 
L 706.780188 179.159198 
" clip-path="url(#pbd229d659a)" style="fill: none; stroke: #595959"/>
   </g>
   <g id="line2d_46">
    <path d="M 733.926509 148.773772 
L 842.511795 148.773772 
" clip-path="url(#pbd229d659a)" style="fill: none; stroke: #595959"/>
   </g>
   <g id="line2d_47">
    <path d="M 869.658116 131.450862 
L 978.243402 131.450862 
" clip-path="url(#pbd229d659a)" style="fill: none; stroke: #595959"/>
   </g>
   <g id="patch_10">
    <path d="M 41.695313 446.365082 
L 41.695313 37.391562 
" style="fill: none; stroke: #cccccc; stroke-width: 0.8; stroke-linejoin: miter; stroke-linecap: square"/>
   </g>
   <g id="patch_11">
    <path d="M 991.816563 446.365082 
L 991.816563 37.391562 
" style="fill: none; stroke: #cccccc; stroke-width: 0.8; stroke-linejoin: miter; stroke-linecap: square"/>
   </g>
   <g id="patch_12">
    <path d="M 41.695313 446.365082 
L 991.816563 446.365082 
" style="fill: none; stroke: #cccccc; stroke-width: 0.8; stroke-linejoin: miter; stroke-linecap: square"/>
   </g>
   <g id="patch_13">
    <path d="M 41.695313 37.391562 
L 991.816563 37.391562 
" style="fill: none; stroke: #cccccc; stroke-width: 0.8; stroke-linejoin: miter; stroke-linecap: square"/>
   </g>
   <g id="text_15">
    <!-- Female Labor Force Participation (%) -->
    <g style="fill: #262626" transform="translate(393.070313 17.391562) scale(0.14 -0.14)">
     <use xlink:href="#Arial-BoldMT-46"/>
     <use xlink:href="#Arial-BoldMT-65" transform="translate(61.083984 0)"/>
     <use xlink:href="#Arial-BoldMT-6d" transform="translate(116.699219 0)"/>
     <use xlink:href="#Arial-BoldMT-61" transform="translate(205.615234 0)"/>
     <use xlink:href="#Arial-BoldMT-6c" transform="translate(261.230469 0)"/>
     <use xlink:href="#Arial-BoldMT-65" transform="translate(289.013672 0)"/>
     <use xlink:href="#Arial-BoldMT-20" transform="translate(344.628906 0)"/>
     <use xlink:href="#Arial-BoldMT-4c" transform="translate(372.412109 0)"/>
     <use xlink:href="#Arial-BoldMT-61" transform="translate(433.496094 0)"/>
     <use xlink:href="#Arial-BoldMT-62" transform="translate(489.111328 0)"/>
     <use xlink:href="#Arial-BoldMT-6f" transform="translate(550.195312 0)"/>
     <use xlink:href="#Arial-BoldMT-72" transform="translate(611.279297 0)"/>
     <use xlink:href="#Arial-BoldMT-20" transform="translate(650.195312 0)"/>
     <use xlink:href="#Arial-BoldMT-46" transform="translate(677.978516 0)"/>
     <use xlink:href="#Arial-BoldMT-6f" transform="translate(739.0625 0)"/>
     <use xlink:href="#Arial-BoldMT-72" transform="translate(800.146484 0)"/>
     <use xlink:href="#Arial-BoldMT-63" transform="translate(839.0625 0)"/>
     <use xlink:href="#Arial-BoldMT-65" transform="translate(894.677734 0)"/>
     <use xlink:href="#Arial-BoldMT-20" transform="translate(950.292969 0)"/>
     <use xlink:href="#Arial-BoldMT-50" transform="translate(978.076172 0)"/>
     <use xlink:href="#Arial-BoldMT-61" transform="translate(1044.775391 0)"/>
     <use xlink:href="#Arial-BoldMT-72" transform="translate(1100.390625 0)"/>
     <use xlink:href="#Arial-BoldMT-74" transform="translate(1139.306641 0)"/>
     <use xlink:href="#Arial-BoldMT-69" transform="translate(1172.607422 0)"/>
     <use xlink:href="#Arial-BoldMT-63" transform="translate(1200.390625 0)"/>
     <use xlink:href="#Arial-BoldMT-69" transform="translate(1256.005859 0)"/>
     <use xlink:href="#Arial-BoldMT-70" transform="translate(1283.789062 0)"/>
     <use xlink:href="#Arial-BoldMT-61" transform="translate(1344.873047 0)"/>
     <use xlink:href="#Arial-BoldMT-74" transform="translate(1400.488281 0)"/>
     <use xlink:href="#Arial-BoldMT-69" transform="translate(1433.789062 0)"/>
     <use xlink:href="#Arial-BoldMT-6f" transform="translate(1461.572266 0)"/>
     <use xlink:href="#Arial-BoldMT-6e" transform="translate(1522.65625 0)"/>
     <use xlink:href="#Arial-BoldMT-20" transform="translate(1583.740234 0)"/>
     <use xlink:href="#Arial-BoldMT-28" transform="translate(1611.523438 0)"/>
     <use xlink:href="#Arial-BoldMT-25" transform="translate(1644.824219 0)"/>
     <use xlink:href="#Arial-BoldMT-29" transform="translate(1733.740234 0)"/>
    </g>
   </g>
  </g>
 </g>
 <defs>
  <clipPath id="pbd229d659a">
   <rect x="41.695313" y="37.391562" width="950.12125" height="408.97352"/>
  </clipPath>
 </defs>
</svg>
