<svg class="main-svg" xmlns="http://www.w3.org/2000/svg" xmlns:xlink="http://www.w3.org/1999/xlink" width="1400" height="700" style="" viewBox="0 0 1400 700"><rect x="0" y="0" width="1400" height="700" style="fill: rgb(255, 255, 255); fill-opacity: 1;"/><defs id="defs-99a60e"><g class="clips"/><g class="gradients"><linearGradient x1="0" y1="1" x2="0" y2="0" gradientUnits="objectBoundingBox" id="g99a60e-cbcoloraxis"><stop offset="0%" stop-color="rgb(165, 0, 38)" stop-opacity="1"/><stop offset="10%" stop-color="rgb(215, 48, 39)" stop-opacity="1"/><stop offset="20%" stop-color="rgb(244, 109, 67)" stop-opacity="1"/><stop offset="30%" stop-color="rgb(253, 174, 97)" stop-opacity="1"/><stop offset="40%" stop-color="rgb(254, 224, 139)" stop-opacity="1"/><stop offset="50%" stop-color="rgb(255, 255, 191)" stop-opacity="1"/><stop offset="60%" stop-color="rgb(217, 239, 139)" stop-opacity="1"/><stop offset="70%" stop-color="rgb(166, 217, 106)" stop-opacity="1"/><stop offset="80%" stop-color="rgb(102, 189, 99)" stop-opacity="1"/><stop offset="90%" stop-color="rgb(26, 152, 80)" stop-opacity="1"/><stop offset="100%" stop-color="rgb(0, 104, 55)" stop-opacity="1"/></linearGradient></g><g class="patterns"/></defs><g class="bglayer"/><g class="layer-below"><g class="imagelayer"/><g class="shapelayer"/></g><g class="cartesianlayer"/><g class="polarlayer"/><g class="smithlayer"/><g class="ternarylayer"/><g class="geolayer"/><g class="funnelarealayer"/><g class="pielayer"/><g class="iciclelayer"/><g class="treemaplayer"/><g class="sunburstlayer"><g class="trace sunburst" stroke-linejoin="round" style="opacity: 1;"><g class="slice cursor-pointer"><path class="surface" d="M635.5,360L765.5,360A130,130 0,0,0 693.5794563522338,243.69532791057378L635.5,360A0,0 0,0,1 635.5,360Z" style="pointer-events: none; stroke-width: 1; fill: rgb(0, 105, 55); fill-opacity: 1; stroke: rgb(255, 255, 255); stroke-opacity: 1;"/><g class="slicetext"><text data-notex="1" class="slicetext" text-anchor="middle" x="0" y="0" style="font-family: 'Open Sans', verdana, arial, sans-serif; font-size: 12px; fill: rgb(255, 255, 255); fill-opacity: 1; white-space: pre;" transform="translate(724.0971074754918,305.21327457629934)scale(0.9025609993686623)rotate(58.268160747397246)">Europe &amp; Central Asia</text></g></g><g class="slice cursor-pointer"><path class="surface" d="M635.5,360L693.5794563522338,243.69532791057378A130,130 0,0,0 558.4042970147664,255.32788059271638L635.5,360A0,0 0,0,1 635.5,360Z" style="pointer-events: none; stroke-width: 1; fill: rgb(6, 115, 61); fill-opacity: 1; stroke: rgb(255, 255, 255); stroke-opacity: 1;"/><g class="slicetext"><text data-notex="1" class="slicetext" text-anchor="middle" x="0" y="0" style="font-family: 'Open Sans', verdana, arial, sans-serif; font-size: 12px; fill: rgb(255, 255, 255); fill-opacity: 1; white-space: pre;" transform="translate(626.2767008829308,257.10402477980307)rotate(-4.918493870341763)">East Asia &amp; Pacific</text></g></g><g class="slice cursor-pointer"><path class="surface" d="M635.5,360L558.4042970147664,255.32788059271638A130,130 0,0,0 506.89342471971105,378.98285528247453L635.5,360A0,0 0,0,1 635.5,360Z" style="pointer-events: none; stroke-width: 1; fill: rgb(15, 132, 69); fill-opacity: 1; stroke: rgb(255, 255, 255); stroke-opacity: 1;"/><g class="slicetext"><text data-notex="1" class="slicetext" text-anchor="middle" x="0" y="0" style="font-family: 'Open Sans', verdana, arial, sans-serif; font-size: 12px; fill: rgb(255, 255, 255); fill-opacity: 1; white-space: pre;" transform="translate(537.4079006569784,319.1378380442079)scale(0.7386280790108845)rotate(-67.3848862764122)">Latin America &amp; Caribbean</text></g></g><g class="slice cursor-pointer"><path class="surface" d="M635.5,360L506.89342471971105,378.98285528247453A130,130 0,0,0 591.2725560255305,482.24538109673165L635.5,360A0,0 0,0,1 635.5,360Z" style="pointer-events: none; stroke-width: 1; fill: rgb(18, 137, 72); fill-opacity: 1; stroke: rgb(255, 255, 255); stroke-opacity: 1;"/><g class="slicetext"><text data-notex="1" class="slicetext" text-anchor="middle" x="0" y="0" style="font-family: 'Open Sans', verdana, arial, sans-serif; font-size: 12px; fill: rgb(255, 255, 255); fill-opacity: 1; white-space: pre;" transform="translate(547.9621186164383,431.53001855467875)scale(0.7461484146497706)rotate(50.746636539886254)">Middle East &amp; North Africa</text></g></g><g class="slice cursor-pointer"><path class="surface" d="M635.5,360L591.2725560255305,482.24538109673165A130,130 0,0,0 717.4144729364938,460.94562458837146L635.5,360A0,0 0,0,1 635.5,360Z" style="pointer-events: none; stroke-width: 1; fill: rgb(84, 180, 94); fill-opacity: 1; stroke: rgb(255, 255, 255); stroke-opacity: 1;"/><g class="slicetext"><text data-notex="1" class="slicetext" text-anchor="middle" x="0" y="0" style="font-family: 'Open Sans', verdana, arial, sans-serif; font-size: 12px; fill: rgb(68, 68, 68); fill-opacity: 1; white-space: pre;" transform="translate(643.1896562496229,431.2145290854156)scale(0.9499544769149603)rotate(80.41569981860027)">Sub-Saharan Africa</text></g></g><g class="slice cursor-pointer"><path class="surface" d="M635.5,360L717.4144729364938,460.94562458837146A130,130 0,0,0 765.5,359.99999999999994L635.5,360A0,0 0,0,1 635.5,360Z" style="pointer-events: none; stroke-width: 1; fill: rgb(228, 244, 155); fill-opacity: 1; stroke: rgb(255, 255, 255); stroke-opacity: 1;"/><g class="slicetext"><text data-notex="1" class="slicetext" text-anchor="middle" x="0" y="0" style="font-family: 'Open Sans', verdana, arial, sans-serif; font-size: 12px; fill: rgb(68, 68, 68); fill-opacity: 1; white-space: pre;" transform="translate(717.5701627651166,403.59418609118177)">South Asia</text></g></g><g class="slice cursor-pointer"><path class="surface" d="M635.5,360L765.5,359.99999999999994A130,130 0,0,0 765.5,359.99999999999994L635.5,360A0,0 0,0,1 635.5,360Z" style="pointer-events: none; stroke-width: 1; fill: rgb(68, 68, 68); fill-opacity: 1; stroke: rgb(255, 255, 255); stroke-opacity: 1;"/><g class="slicetext"><text data-notex="1" class="slicetext" text-anchor="middle" x="0" y="0" style="font-family: 'Open Sans', verdana, arial, sans-serif; font-size: 12px; fill: rgb(255, 255, 255); fill-opacity: 1; white-space: pre;" transform="translate(635.5,295)scale(0)">North America</text></g></g><g class="slice"><path class="surface" d="M765.5,360L895.5,360A260,260 0,0,0 889.1365974200776,302.8294092284723L762.3182987100388,331.41470461423614A130,130 0,0,1 765.5,360Z" style="pointer-events: none; stroke-width: 1; fill: rgb(0, 104, 55); fill-opacity: 1; stroke: rgb(255, 255, 255); stroke-opacity: 1; opacity: 1;"/><g class="slicetext"><text data-notex="1" class="slicetext" text-anchor="middle" x="0" y="0" style="font-family: 'Open Sans', verdana, arial, sans-serif; font-size: 12px; fill: rgb(255, 255, 255); fill-opacity: 1; white-space: pre;" transform="translate(830.2170028839391,342.8547111699955)rotate(-6.3511947236223705)">Uzbekistan</text></g></g><g class="slice"><path class="surface" d="M762.3182987100388,331.41470461423614L889.1365974200776,302.8294092284723A260,260 0,0,0 870.3727081005607,248.4885163334789L752.9363540502803,304.2442581667394A130,130 0,0,1 762.3182987100388,331.41470461423614Z" style="pointer-events: none; stroke-width: 1; fill: rgb(0, 105, 55); fill-opacity: 1; stroke: rgb(255, 255, 255); stroke-opacity: 1; opacity: 1;"/><g class="slicetext"><text data-notex="1" class="slicetext" text-anchor="middle" x="0" y="0" style="font-family: 'Open Sans', verdana, arial, sans-serif; font-size: 12px; fill: rgb(255, 255, 255); fill-opacity: 1; white-space: pre;" transform="translate(821.2233634660876,300.63051325527186)rotate(-19.04977360909129)">Russian Federation</text></g></g><g class="slice"><path class="surface" d="M752.9363540502803,304.2442581667394L870.3727081005607,248.4885163334789A260,260 0,0,0 840.1399345164912,199.61765308773474L737.8199672582456,279.8088265438674A130,130 0,0,1 752.9363540502803,304.2442581667394Z" style="pointer-events: none; stroke-width: 1; fill: rgb(1, 105, 56); fill-opacity: 1; stroke: rgb(255, 255, 255); stroke-opacity: 1; opacity: 1;"/><g class="slicetext"><text data-notex="1" class="slicetext" text-anchor="middle" x="0" y="0" style="font-family: 'Open Sans', verdana, arial, sans-serif; font-size: 12px; fill: rgb(255, 255, 255); fill-opacity: 1; white-space: pre;" transform="translate(811.3253402519031,256.5213877533118)rotate(-31.742001396748265)">Armenia</text></g></g><g class="slice"><path class="surface" d="M737.8199672582456,279.8088265438674L840.1399345164912,199.61765308773474A260,260 0,0,0 799.9101311952472,158.58175663470396L717.7050655976236,259.290878317352A130,130 0,0,1 737.8199672582456,279.8088265438674Z" style="pointer-events: none; stroke-width: 1; fill: rgb(1, 105, 56); fill-opacity: 1; stroke: rgb(255, 255, 255); stroke-opacity: 1; opacity: 1;"/><g class="slicetext"><text data-notex="1" class="slicetext" text-anchor="middle" x="0" y="0" style="font-family: 'Open Sans', verdana, arial, sans-serif; font-size: 12px; fill: rgb(255, 255, 255); fill-opacity: 1; white-space: pre;" transform="translate(778.1585978897267,226.44549736471313)rotate(-44.43168864836878)">Turkmenistan</text></g></g><g class="slice"><path class="surface" d="M717.7050655976236,259.290878317352L799.9101311952472,158.58175663470396A260,260 0,0,0 751.6589127044678,127.39065582114753L693.5794563522338,243.69532791057378A130,130 0,0,1 717.7050655976236,259.290878317352Z" style="pointer-events: none; stroke-width: 1; fill: rgb(1, 105, 56); fill-opacity: 1; stroke: rgb(255, 255, 255); stroke-opacity: 1; opacity: 1;"/><g class="slicetext"><text data-notex="1" class="slicetext" text-anchor="middle" x="0" y="0" style="font-family: 'Open Sans', verdana, arial, sans-serif; font-size: 12px; fill: rgb(255, 255, 255); fill-opacity: 1; white-space: pre;" transform="translate(762.2318548071685,167.87448110680947)">Belarus</text></g></g><g class="slice"><path class="surface" d="M693.5794563522338,243.69532791057378L751.6589127044678,127.39065582114753A260,260 0,0,0 697.6682221257477,107.54186058333613L666.5841110628738,233.77093029166807A130,130 0,0,1 693.5794563522338,243.69532791057378Z" style="pointer-events: none; stroke-width: 1; fill: rgb(0, 104, 55); fill-opacity: 1; stroke: rgb(255, 255, 255); stroke-opacity: 1; opacity: 1;"/><g class="slicetext"><text data-notex="1" class="slicetext" text-anchor="middle" x="0" y="0" style="font-family: 'Open Sans', verdana, arial, sans-serif; font-size: 12px; fill: rgb(255, 255, 255); fill-opacity: 1; white-space: pre;" transform="translate(716.278299090751,144.7750192426829)">Palau</text></g></g><g class="slice"><path class="surface" d="M666.5841110628738,233.77093029166807L697.6682221257477,107.54186058333613A260,260 0,0,0 640.7958070068386,100.05393938713684L638.1479035034192,230.02696969356842A130,130 0,0,1 666.5841110628738,233.77093029166807Z" style="pointer-events: none; stroke-width: 1; fill: rgb(2, 107, 57); fill-opacity: 1; stroke: rgb(255, 255, 255); stroke-opacity: 1; opacity: 1;"/><g class="slicetext"><text data-notex="1" class="slicetext" text-anchor="middle" x="0" y="0" style="font-family: 'Open Sans', verdana, arial, sans-serif; font-size: 12px; fill: rgb(255, 255, 255); fill-opacity: 1; white-space: pre;" transform="translate(666.0671682647607,132.33560657056475)">Nauru</text></g></g><g class="slice"><path class="surface" d="M638.1479035034192,230.02696969356842L640.7958070068386,100.05393938713684A260,260 0,0,0 584.1016124706812,105.13100274967542L609.8008062353406,232.5655013748377A130,130 0,0,1 638.1479035034192,230.02696969356842Z" style="pointer-events: none; stroke-width: 1; fill: rgb(7, 116, 61); fill-opacity: 1; stroke: rgb(255, 255, 255); stroke-opacity: 1; opacity: 1;"/><g class="slicetext"><text data-notex="1" class="slicetext" text-anchor="middle" x="0" y="0" style="font-family: 'Open Sans', verdana, arial, sans-serif; font-size: 12px; fill: rgb(255, 255, 255); fill-opacity: 1; white-space: pre;" transform="translate(614.5974238016468,131.08658033691407)">Kiribati</text></g></g><g class="slice"><path class="surface" d="M609.8008062353406,232.5655013748377L584.1016124706812,105.13100274967542A260,260 0,0,0 529.8805027992605,122.41944142867459L582.6902513996303,241.2097207143373A130,130 0,0,1 609.8008062353406,232.5655013748377Z" style="pointer-events: none; stroke-width: 1; fill: rgb(7, 117, 62); fill-opacity: 1; stroke: rgb(255, 255, 255); stroke-opacity: 1; opacity: 1;"/><g class="slicetext"><text data-notex="1" class="slicetext" text-anchor="middle" x="0" y="0" style="font-family: 'Open Sans', verdana, arial, sans-serif; font-size: 12px; fill: rgb(255, 255, 255); fill-opacity: 1; white-space: pre;" transform="translate(569.7269892175087,168.53170748881362)rotate(72.3150817233385)">Mongolia</text></g></g><g class="slice"><path class="surface" d="M582.6902513996303,241.2097207143373L529.8805027992605,122.41944142867459A260,260 0,0,0 481.30859402953286,150.65576118543274L558.4042970147664,255.32788059271638A130,130 0,0,1 582.6902513996303,241.2097207143373Z" style="pointer-events: none; stroke-width: 1; fill: rgb(15, 132, 69); fill-opacity: 1; stroke: rgb(255, 255, 255); stroke-opacity: 1; opacity: 1;"/><g class="slicetext"><text data-notex="1" class="slicetext" text-anchor="middle" x="0" y="0" style="font-family: 'Open Sans', verdana, arial, sans-serif; font-size: 12px; fill: rgb(255, 255, 255); fill-opacity: 1; white-space: pre;" transform="translate(517.571132547297,161.63963290633725)">Samoa</text></g></g><g class="slice"><path class="surface" d="M558.4042970147664,255.32788059271638L481.30859402953286,150.65576118543274A260,260 0,0,0 439.36404889751543,189.32285248128917L537.4320244487577,274.6614262406446A130,130 0,0,1 558.4042970147664,255.32788059271638Z" style="pointer-events: none; stroke-width: 1; fill: rgb(5, 114, 60); fill-opacity: 1; stroke: rgb(255, 255, 255); stroke-opacity: 1; opacity: 1;"/><g class="slicetext"><text data-notex="1" class="slicetext" text-anchor="middle" x="0" y="0" style="font-family: 'Open Sans', verdana, arial, sans-serif; font-size: 12px; fill: rgb(255, 255, 255); fill-opacity: 1; white-space: pre;" transform="translate(493.9999323682323,213.1454213307107)rotate(47.32821107339964)">Uruguay</text></g></g><g class="slice"><path class="surface" d="M537.4320244487577,274.6614262406446L439.36404889751543,189.32285248128917A260,260 0,0,0 406.8648837589796,236.2018432227075L521.1824418794898,298.1009216113538A130,130 0,0,1 537.4320244487577,274.6614262406446Z" style="pointer-events: none; stroke-width: 1; fill: rgb(5, 114, 60); fill-opacity: 1; stroke: rgb(255, 255, 255); stroke-opacity: 1; opacity: 1;"/><g class="slicetext"><text data-notex="1" class="slicetext" text-anchor="middle" x="0" y="0" style="font-family: 'Open Sans', verdana, arial, sans-serif; font-size: 12px; fill: rgb(255, 255, 255); fill-opacity: 1; white-space: pre;" transform="translate(469.7733811957459,250.5845482824176)rotate(34.7318864617456)">Argentina</text></g></g><g class="slice"><path class="surface" d="M521.1824418794898,298.1009216113538L406.8648837589796,236.2018432227075A260,260 0,0,0 385.67038249665734,287.9919294930527L510.58519124832867,323.99596474652634A130,130 0,0,1 521.1824418794898,298.1009216113538Z" style="pointer-events: none; stroke-width: 1; fill: rgb(17, 136, 72); fill-opacity: 1; stroke: rgb(255, 255, 255); stroke-opacity: 1; opacity: 1;"/><g class="slicetext"><text data-notex="1" class="slicetext" text-anchor="middle" x="0" y="0" style="font-family: 'Open Sans', verdana, arial, sans-serif; font-size: 12px; fill: rgb(255, 255, 255); fill-opacity: 1; white-space: pre;" transform="translate(453.5415271863459,290.3978149167917)rotate(22.25627112479151)">Venezuela, RB</text></g></g><g class="slice"><path class="surface" d="M510.58519124832867,323.99596474652634L385.67038249665734,287.9919294930527A260,260 0,0,0 376.08363474365547,342.58881287255645L505.79181737182773,351.2944064362782A130,130 0,0,1 510.58519124832867,323.99596474652634Z" style="pointer-events: none; stroke-width: 1; fill: rgb(23, 147, 77); fill-opacity: 1; stroke: rgb(255, 255, 255); stroke-opacity: 1; opacity: 1;"/><g class="slicetext"><text data-notex="1" class="slicetext" text-anchor="middle" x="0" y="0" style="font-family: 'Open Sans', verdana, arial, sans-serif; font-size: 12px; fill: rgb(255, 255, 255); fill-opacity: 1; white-space: pre;" transform="translate(404.0865854174184,323.86577520655885)">Cuba</text></g></g><g class="slice"><path class="surface" d="M505.79181737182773,351.2944064362782L376.08363474365547,342.58881287255645A260,260 0,0,0 378.2868494394221,397.96571056494906L506.89342471971105,378.98285528247453A130,130 0,0,1 505.79181737182773,351.2944064362782Z" style="pointer-events: none; stroke-width: 1; fill: rgb(24, 147, 78); fill-opacity: 1; stroke: rgb(255, 255, 255); stroke-opacity: 1; opacity: 1;"/><g class="slicetext"><text data-notex="1" class="slicetext" text-anchor="middle" x="0" y="0" style="font-family: 'Open Sans', verdana, arial, sans-serif; font-size: 12px; fill: rgb(255, 255, 255); fill-opacity: 1; white-space: pre;" transform="translate(400.72721538270065,373.84062525690996)">Chile</text></g></g><g class="slice"><path class="surface" d="M506.89342471971105,378.98285528247453L378.2868494394221,397.96571056494906A260,260 0,0,0 392.6059063318753,452.7494434546121L514.0529531659377,406.37472172730605A130,130 0,0,1 506.89342471971105,378.98285528247453Z" style="pointer-events: none; stroke-width: 1; fill: rgb(10, 123, 65); fill-opacity: 1; stroke: rgb(255, 255, 255); stroke-opacity: 1; opacity: 1;"/><g class="slicetext"><text data-notex="1" class="slicetext" text-anchor="middle" x="0" y="0" style="font-family: 'Open Sans', verdana, arial, sans-serif; font-size: 12px; fill: rgb(255, 255, 255); fill-opacity: 1; white-space: pre;" transform="translate(447.65847529537666,413.67906144820375)scale(0.9851546346572575)rotate(-14.647944303190343)">United Arab Emirates</text></g></g><g class="slice"><path class="surface" d="M514.0529531659377,406.37472172730605L392.6059063318753,452.7494434546121A260,260 0,0,0 418.1698485126878,502.71511922183277L526.8349242563439,431.3575596109164A130,130 0,0,1 514.0529531659377,406.37472172730605Z" style="pointer-events: none; stroke-width: 1; fill: rgb(16, 133, 70); fill-opacity: 1; stroke: rgb(255, 255, 255); stroke-opacity: 1; opacity: 1;"/><g class="slicetext"><text data-notex="1" class="slicetext" text-anchor="middle" x="0" y="0" style="font-family: 'Open Sans', verdana, arial, sans-serif; font-size: 12px; fill: rgb(255, 255, 255); fill-opacity: 1; white-space: pre;" transform="translate(426.1501439122055,471.38734224527866)">Qatar</text></g></g><g class="slice"><path class="surface" d="M526.8349242563439,431.3575596109164L418.1698485126878,502.71511922183277A260,260 0,0,0 453.5784277285661,545.7539812286387L544.539213864283,452.87699061431937A130,130 0,0,1 526.8349242563439,431.3575596109164Z" style="pointer-events: none; stroke-width: 1; fill: rgb(20, 141, 74); fill-opacity: 1; stroke: rgb(255, 255, 255); stroke-opacity: 1; opacity: 1;"/><g class="slicetext"><text data-notex="1" class="slicetext" text-anchor="middle" x="0" y="0" style="font-family: 'Open Sans', verdana, arial, sans-serif; font-size: 12px; fill: rgb(255, 255, 255); fill-opacity: 1; white-space: pre;" transform="translate(487.8176423739514,487.327220931398)rotate(-39.44453407241326)">West Bank and Gaza</text></g></g><g class="slice"><path class="surface" d="M544.539213864283,452.87699061431937L453.5784277285661,545.7539812286387A260,260 0,0,0 497.2561620938226,580.20136530224L566.3780810469113,470.10068265112A130,130 0,0,1 544.539213864283,452.87699061431937Z" style="pointer-events: none; stroke-width: 1; fill: rgb(21, 143, 75); fill-opacity: 1; stroke: rgb(255, 255, 255); stroke-opacity: 1; opacity: 1;"/><g class="slicetext"><text data-notex="1" class="slicetext" text-anchor="middle" x="0" y="0" style="font-family: 'Open Sans', verdana, arial, sans-serif; font-size: 12px; fill: rgb(255, 255, 255); fill-opacity: 1; white-space: pre;" transform="translate(518.3751255371725,515.7758577342041)rotate(-51.73816235450636)">Saudi Arabia</text></g></g><g class="slice"><path class="surface" d="M566.3780810469113,470.10068265112L497.2561620938226,580.20136530224A260,260 0,0,0 547.045112051061,604.4907621934633L591.2725560255305,482.24538109673165A130,130 0,0,1 566.3780810469113,470.10068265112Z" style="pointer-events: none; stroke-width: 1; fill: rgb(24, 148, 78); fill-opacity: 1; stroke: rgb(255, 255, 255); stroke-opacity: 1; opacity: 1;"/><g class="slicetext"><text data-notex="1" class="slicetext" text-anchor="middle" x="0" y="0" style="font-family: 'Open Sans', verdana, arial, sans-serif; font-size: 12px; fill: rgb(255, 255, 255); fill-opacity: 1; white-space: pre;" transform="translate(532.4773170602242,575.678203737219)">Bahrain</text></g></g><g class="slice"><path class="surface" d="M591.2725560255305,482.24538109673165L547.045112051061,604.4907621934633A260,260 0,0,0 601.0439905116517,617.706777967012L618.2719952558258,488.853388983506A130,130 0,0,1 591.2725560255305,482.24538109673165Z" style="pointer-events: none; stroke-width: 1; fill: rgb(22, 144, 76); fill-opacity: 1; stroke: rgb(255, 255, 255); stroke-opacity: 1; opacity: 1;"/><g class="slicetext"><text data-notex="1" class="slicetext" text-anchor="middle" x="0" y="0" style="font-family: 'Open Sans', verdana, arial, sans-serif; font-size: 12px; fill: rgb(255, 255, 255); fill-opacity: 1; white-space: pre;" transform="translate(579.6600932541992,592.6544142563898)">Lesotho</text></g></g><g class="slice"><path class="surface" d="M618.2719952558258,488.853388983506L601.0439905116517,617.706777967012A260,260 0,0,0 654.738941901602,619.2872212711354L645.119470950801,489.6436106355677A130,130 0,0,1 618.2719952558258,488.853388983506Z" style="pointer-events: none; stroke-width: 1; fill: rgb(74, 176, 92); fill-opacity: 1; stroke: rgb(255, 255, 255); stroke-opacity: 1; opacity: 1;"/><g class="slicetext"><text data-notex="1" class="slicetext" text-anchor="middle" x="0" y="0" style="font-family: 'Open Sans', verdana, arial, sans-serif; font-size: 12px; fill: rgb(68, 68, 68); fill-opacity: 1; white-space: pre;" transform="translate(634.1295592431856,559.5121709844647)rotate(-88.31405760961047)">Zimbabwe</text></g></g><g class="slice"><path class="surface" d="M645.119470950801,489.6436106355677L654.738941901602,619.2872212711354A260,260 0,0,0 707.3250243110202,609.8823040607745L671.4125121555102,484.94115203038723A130,130 0,0,1 645.119470950801,489.6436106355677Z" style="pointer-events: none; stroke-width: 1; fill: rgb(84, 180, 95); fill-opacity: 1; stroke: rgb(255, 255, 255); stroke-opacity: 1; opacity: 1;"/><g class="slicetext"><text data-notex="1" class="slicetext" text-anchor="middle" x="0" y="0" style="font-family: 'Open Sans', verdana, arial, sans-serif; font-size: 12px; fill: rgb(68, 68, 68); fill-opacity: 1; white-space: pre;" transform="translate(666.7593986319406,560.3421684719134)rotate(79.85997076484102)">Mauritius</text></g></g><g class="slice"><path class="surface" d="M671.4125121555102,484.94115203038723L707.3250243110202,609.8823040607745A260,260 0,0,0 755.8528250191341,590.4673458646879L695.6764125095671,475.23367293234395A130,130 0,0,1 671.4125121555102,484.94115203038723Z" style="pointer-events: none; stroke-width: 1; fill: rgb(119, 196, 101); fill-opacity: 1; stroke: rgb(255, 255, 255); stroke-opacity: 1; opacity: 1;"/><g class="slicetext"><text data-notex="1" class="slicetext" text-anchor="middle" x="0" y="0" style="font-family: 'Open Sans', verdana, arial, sans-serif; font-size: 12px; fill: rgb(68, 68, 68); fill-opacity: 1; white-space: pre;" transform="translate(703.7144555315945,542.616983586427)rotate(68.19468428827099)">South Africa</text></g></g><g class="slice"><path class="surface" d="M695.6764125095671,475.23367293234395L755.8528250191341,590.4673458646879A260,260 0,0,0 799.3289458729877,561.8912491767429L717.4144729364938,460.94562458837146A130,130 0,0,1 695.6764125095671,475.23367293234395Z" style="pointer-events: none; stroke-width: 1; fill: rgb(125, 199, 102); fill-opacity: 1; stroke: rgb(255, 255, 255); stroke-opacity: 1; opacity: 1;"/><g class="slicetext"><text data-notex="1" class="slicetext" text-anchor="middle" x="0" y="0" style="font-family: 'Open Sans', verdana, arial, sans-serif; font-size: 12px; fill: rgb(68, 68, 68); fill-opacity: 1; white-space: pre;" transform="translate(745.7960836117634,535.9990380962736)rotate(56.6837786222963)">Eswatini</text></g></g><g class="slice"><path class="surface" d="M717.4144729364938,460.94562458837146L799.3289458729877,561.8912491767429A260,260 0,0,0 839.0902335711469,521.7127601472619L737.2951167855734,440.85638007363093A130,130 0,0,1 717.4144729364938,460.94562458837146Z" style="pointer-events: none; stroke-width: 1; fill: rgb(11, 125, 66); fill-opacity: 1; stroke: rgb(255, 255, 255); stroke-opacity: 1; opacity: 1;"/><g class="slicetext"><text data-notex="1" class="slicetext" text-anchor="middle" x="0" y="0" style="font-family: 'Open Sans', verdana, arial, sans-serif; font-size: 12px; fill: rgb(255, 255, 255); fill-opacity: 1; white-space: pre;" transform="translate(776.5223244658868,505.8889976354977)rotate(44.700979168974186)">Maldives</text></g></g><g class="slice"><path class="surface" d="M737.2951167855734,440.85638007363093L839.0902335711469,521.7127601472619A260,260 0,0,0 867.6174974529312,477.138667297304L751.5587487264656,418.569333648652A130,130 0,0,1 737.2951167855734,440.85638007363093Z" style="pointer-events: none; stroke-width: 1; fill: rgb(100, 188, 99); fill-opacity: 1; stroke: rgb(255, 255, 255); stroke-opacity: 1; opacity: 1;"/><g class="slicetext"><text data-notex="1" class="slicetext" text-anchor="middle" x="0" y="0" style="font-family: 'Open Sans', verdana, arial, sans-serif; font-size: 12px; fill: rgb(68, 68, 68); fill-opacity: 1; white-space: pre;" transform="translate(804.064031291081,473.22307930275105)rotate(32.61910123302198)">Sri Lanka</text></g></g><g class="slice"><path class="surface" d="M751.5587487264656,418.569333648652L867.6174974529312,477.138667297304A260,260 0,0,0 884.0654879744668,436.25744677089057L759.7827439872334,398.1287233854453A130,130 0,0,1 751.5587487264656,418.569333648652Z" style="pointer-events: none; stroke-width: 1; fill: rgb(254, 231, 150); fill-opacity: 1; stroke: rgb(255, 255, 255); stroke-opacity: 1; opacity: 1;"/><g class="slicetext"><text data-notex="1" class="slicetext" text-anchor="middle" x="0" y="0" style="font-family: 'Open Sans', verdana, arial, sans-serif; font-size: 12px; fill: rgb(68, 68, 68); fill-opacity: 1; white-space: pre;" transform="translate(821.6673139638431,439.75239200377507)rotate(21.916702868569814)">Bangladesh</text></g></g><g class="slice"><path class="surface" d="M759.7827439872334,398.1287233854453L884.0654879744668,436.25744677089057A260,260 0,0,0 893.2480429223003,394.1459568576435L764.3740214611502,377.0729784288217A130,130 0,0,1 759.7827439872334,398.1287233854453Z" style="pointer-events: none; stroke-width: 1; fill: rgb(254, 214, 131); fill-opacity: 1; stroke: rgb(255, 255, 255); stroke-opacity: 1; opacity: 1;"/><g class="slicetext"><text data-notex="1" class="slicetext" text-anchor="middle" x="0" y="0" style="font-family: 'Open Sans', verdana, arial, sans-serif; font-size: 12px; fill: rgb(68, 68, 68); fill-opacity: 1; white-space: pre;" transform="translate(870.0867972145029,415.65245648862276)">India</text></g></g><g class="slice"><path class="surface" d="M764.3740214611502,377.0729784288217L893.2480429223003,394.1459568576435A260,260 0,0,0 895.5,359.99999999999983L765.5,359.99999999999994A130,130 0,0,1 764.3740214611502,377.0729784288217Z" style="pointer-events: none; stroke-width: 1; fill: rgb(165, 0, 38); fill-opacity: 1; stroke: rgb(255, 255, 255); stroke-opacity: 1; opacity: 1;"/><g class="slicetext"><text data-notex="1" class="slicetext" text-anchor="middle" x="0" y="0" style="font-family: 'Open Sans', verdana, arial, sans-serif; font-size: 12px; fill: rgb(255, 255, 255); fill-opacity: 1; white-space: pre;" transform="translate(864.4154206234809,379.6069571180467)rotate(3.773244775612852)">Nepal</text></g></g><g class="slice"><path class="surface" d="M765.5,359.99999999999994L895.5,359.99999999999983A260,260 0,0,0 895.5,359.99999999999983L765.5,359.99999999999994A130,130 0,0,1 765.5,359.99999999999994Z" style="pointer-events: none; stroke-width: 1; fill: rgb(68, 68, 68); fill-opacity: 1; stroke: rgb(255, 255, 255); stroke-opacity: 1; opacity: 1;"/><g class="slicetext"><text data-notex="1" class="slicetext" text-anchor="middle" x="0" y="0" style="font-family: 'Open Sans', verdana, arial, sans-serif; font-size: 12px; fill: rgb(255, 255, 255); fill-opacity: 1; white-space: pre;" transform="translate(635.5,165)scale(0)">Bermuda</text></g></g><g class="slice"><path class="surface" d="M765.5,359.99999999999994L895.5,359.99999999999983A260,260 0,0,0 895.5,359.99999999999983L765.5,359.99999999999994A130,130 0,0,1 765.5,359.99999999999994Z" style="pointer-events: none; stroke-width: 1; fill: rgb(68, 68, 68); fill-opacity: 1; stroke: rgb(255, 255, 255); stroke-opacity: 1; opacity: 1;"/><g class="slicetext"><text data-notex="1" class="slicetext" text-anchor="middle" x="0" y="0" style="font-family: 'Open Sans', verdana, arial, sans-serif; font-size: 12px; fill: rgb(255, 255, 255); fill-opacity: 1; white-space: pre;" transform="translate(635.5,165)scale(0)">Canada</text></g></g><g class="slice"><path class="surface" d="M765.5,359.99999999999994L895.5,359.99999999999983A260,260 0,0,0 895.5,359.99999999999983L765.5,359.99999999999994A130,130 0,0,1 765.5,359.99999999999994Z" style="pointer-events: none; stroke-width: 1; fill: rgb(68, 68, 68); fill-opacity: 1; stroke: rgb(255, 255, 255); stroke-opacity: 1; opacity: 1;"/><g class="slicetext"><text data-notex="1" class="slicetext" text-anchor="middle" x="0" y="0" style="font-family: 'Open Sans', verdana, arial, sans-serif; font-size: 12px; fill: rgb(255, 255, 255); fill-opacity: 1; white-space: pre;" transform="translate(635.5,165)scale(0)">United States</text></g></g></g></g><g class="glimages"/><defs id="topdefs-99a60e"><g class="clips"/></defs><g class="layer-above"><g class="imagelayer"/><g class="shapelayer"/></g><g class="infolayer"><g class="cbcoloraxis colorbar" transform="translate(80,100)"><rect class="cbbg" x="1133" y="0" width="175.2041015625" height="520" style="fill: rgb(0, 0, 0); fill-opacity: 0; stroke: rgb(68, 68, 68); stroke-opacity: 1; stroke-width: 0;"/><g class="cbfills" transform="translate(0,32)"><rect class="cbfill gradient_filled" style="fill: url('#g99a60e-cbcoloraxis');" x="1143" y="0" width="30" height="478"/></g><g class="cblines" transform="translate(0,32)"/><g class="cbaxis crisp" transform="translate(0,-100)"><g class="ycbcoloraxistick"><text text-anchor="start" x="1175.9" y="4.199999999999999" transform="translate(0,603.05)" style="font-family: 'Open Sans', verdana, arial, sans-serif; font-size: 12px; fill: rgb(42, 63, 95); fill-opacity: 1; white-space: pre;">60</text></g><g class="ycbcoloraxistick"><text text-anchor="start" x="1175.9" y="4.199999999999999" style="font-family: 'Open Sans', verdana, arial, sans-serif; font-size: 12px; fill: rgb(42, 63, 95); fill-opacity: 1; white-space: pre;" transform="translate(0,544.1700000000001)">65</text></g><g class="ycbcoloraxistick"><text text-anchor="start" x="1175.9" y="4.199999999999999" style="font-family: 'Open Sans', verdana, arial, sans-serif; font-size: 12px; fill: rgb(42, 63, 95); fill-opacity: 1; white-space: pre;" transform="translate(0,485.29)">70</text></g><g class="ycbcoloraxistick"><text text-anchor="start" x="1175.9" y="4.199999999999999" style="font-family: 'Open Sans', verdana, arial, sans-serif; font-size: 12px; fill: rgb(42, 63, 95); fill-opacity: 1; white-space: pre;" transform="translate(0,426.41)">75</text></g><g class="ycbcoloraxistick"><text text-anchor="start" x="1175.9" y="4.199999999999999" style="font-family: 'Open Sans', verdana, arial, sans-serif; font-size: 12px; fill: rgb(42, 63, 95); fill-opacity: 1; white-space: pre;" transform="translate(0,367.53)">80</text></g><g class="ycbcoloraxistick"><text text-anchor="start" x="1175.9" y="4.199999999999999" style="font-family: 'Open Sans', verdana, arial, sans-serif; font-size: 12px; fill: rgb(42, 63, 95); fill-opacity: 1; white-space: pre;" transform="translate(0,308.64)">85</text></g><g class="ycbcoloraxistick"><text text-anchor="start" x="1175.9" y="4.199999999999999" style="font-family: 'Open Sans', verdana, arial, sans-serif; font-size: 12px; fill: rgb(42, 63, 95); fill-opacity: 1; white-space: pre;" transform="translate(0,249.76)">90</text></g><g class="ycbcoloraxistick"><text text-anchor="start" x="1175.9" y="4.199999999999999" style="font-family: 'Open Sans', verdana, arial, sans-serif; font-size: 12px; fill: rgb(42, 63, 95); fill-opacity: 1; white-space: pre;" transform="translate(0,190.88)">95</text></g><g class="ycbcoloraxistick"><text text-anchor="start" x="1175.9" y="4.199999999999999" style="font-family: 'Open Sans', verdana, arial, sans-serif; font-size: 12px; fill: rgb(42, 63, 95); fill-opacity: 1; white-space: pre;" transform="translate(0,132)">100</text></g></g><g class="cbtitleunshift" transform="translate(-80,-100)"><g class="cbtitle" transform=""><text class="ycbcoloraxistitle" x="1223.22" y="123.5" text-anchor="start" style="opacity: 1; font-family: 'Open Sans', verdana, arial, sans-serif; font-size: 14px; fill: rgb(42, 63, 95); fill-opacity: 1; white-space: pre;">Literacy_Rate_Female</text></g></g><rect class="cboutline" x="1143" y="32" width="30" height="478" style="stroke: rgb(68, 68, 68); stroke-opacity: 1; fill: none; stroke-width: 0;"/></g><g class="g-gtitle"><text class="gtitle" x="700" y="50" text-anchor="middle" dy="0em" style="opacity: 1; font-family: 'Open Sans', verdana, arial, sans-serif; font-size: 18px; fill: rgb(42, 63, 95); fill-opacity: 1; white-space: pre;">Top Countries by Female Literacy Rate per Region (2024)</text></g></g></svg>